<svg width="200" height="200" viewBox="0 0 200 200" fill="none" xmlns="http://www.w3.org/2000/svg">
<g style="mix-blend-mode:multiply">
<path d="M100 179.775C155.228 179.775 200 177.161 200 173.937C200 170.713 155.228 168.099 100 168.099C44.7715 168.099 0 170.713 0 173.937C0 177.161 44.7715 179.775 100 179.775Z" fill="#F5F5F5"/>
</g>
<path d="M124.483 22.95H112.105C111.702 22.9585 111.313 23.1018 111.001 23.357C110.688 23.6122 110.47 23.9646 110.382 24.358L110.299 24.745C110.085 25.705 109.555 26.5652 108.793 27.1873C108.031 27.8094 107.082 28.1573 106.099 28.175H94.3419C93.4092 28.1958 92.5061 27.8467 91.8298 27.2042C91.1535 26.5616 90.7588 25.6776 90.7319 24.745V24.358C90.7224 23.9759 90.5618 23.6131 90.2854 23.3492C90.0089 23.0852 89.639 22.9417 89.2568 22.95H76.8778C74.8449 22.9862 72.8957 23.7661 71.3989 25.1422C69.9021 26.5184 68.9614 28.3953 68.7548 30.418L58.8199 144.163C58.715 145.114 58.814 146.076 59.1102 146.986C59.4063 147.896 59.8929 148.732 60.5375 149.439C61.1821 150.146 61.9699 150.708 62.8485 151.087C63.727 151.465 64.6762 151.653 65.6329 151.636H113.22C115.253 151.599 117.202 150.818 118.699 149.441C120.196 148.064 121.136 146.186 121.343 144.163L131.297 30.418C131.401 29.467 131.301 28.5047 131.005 27.5952C130.708 26.6857 130.221 25.8498 129.576 25.1433C128.93 24.4367 128.142 23.8757 127.263 23.4975C126.385 23.1193 125.435 22.9327 124.479 22.95H124.483Z" fill="#A1A606"/>
<path d="M119.66 75.268H94.388C94.1753 75.2715 93.9644 75.2298 93.7691 75.1455C93.5738 75.0613 93.3987 74.9365 93.2554 74.7794C93.112 74.6224 93.0037 74.4366 92.9376 74.2345C92.8715 74.0323 92.8491 73.8185 92.872 73.607L94.772 51.847C94.8172 51.3972 95.026 50.9796 95.3587 50.6734C95.6914 50.3672 96.1249 50.1938 96.577 50.186H121.849C122.062 50.1825 122.273 50.2243 122.468 50.3085C122.663 50.3928 122.838 50.5176 122.982 50.6746C123.125 50.8317 123.233 51.0175 123.299 51.2196C123.365 51.4217 123.388 51.6356 123.365 51.847L121.465 73.607C121.418 74.0564 121.209 74.4733 120.877 74.7792C120.544 75.0851 120.112 75.259 119.66 75.268V75.268Z" fill="white"/>
<path d="M111.254 143.307H68.9617C68.4333 143.317 67.9088 143.214 67.4233 143.005C66.9378 142.796 66.5024 142.486 66.1462 142.095C65.7899 141.705 65.5209 141.243 65.3572 140.741C65.1935 140.238 65.1388 139.706 65.1967 139.181V139.181C65.3124 138.064 65.8325 137.029 66.659 136.269C67.4855 135.509 68.5613 135.078 69.6837 135.056H111.976C112.504 135.046 113.029 135.149 113.514 135.358C114 135.567 114.435 135.877 114.791 136.268C115.148 136.658 115.417 137.12 115.58 137.622C115.744 138.125 115.799 138.657 115.741 139.182V139.182C115.627 140.3 115.108 141.337 114.281 142.097C113.454 142.857 112.377 143.288 111.254 143.307V143.307Z" fill="white"/>
<path d="M114.621 44.204H75.8159C75.5192 44.2116 75.2244 44.1551 74.9515 44.0383C74.6787 43.9216 74.4343 43.7473 74.2349 43.5275C74.0356 43.3076 73.886 43.0473 73.7964 42.7644C73.7068 42.4815 73.6794 42.1826 73.7159 41.888L74.0309 38.278C74.0961 37.6521 74.3881 37.0716 74.8517 36.6459C75.3153 36.2202 75.9186 35.9788 76.5479 35.967H115.348C115.644 35.9617 115.938 36.0194 116.21 36.1363C116.483 36.2533 116.727 36.4268 116.927 36.6454C117.127 36.8639 117.278 37.1225 117.37 37.404C117.463 37.6855 117.494 37.9834 117.463 38.278L117.143 41.888C117.079 42.5158 116.786 43.0982 116.322 43.525C115.857 43.9518 115.252 44.1934 114.621 44.204Z" fill="white"/>
<path d="M122.512 38.154C122.494 38.3286 122.413 38.4906 122.284 38.6094C122.155 38.7283 121.987 38.7958 121.812 38.799C121.73 38.8002 121.648 38.7839 121.572 38.7511C121.496 38.7183 121.428 38.6698 121.373 38.6089C121.317 38.5479 121.275 38.4758 121.25 38.3974C121.224 38.319 121.215 38.2361 121.224 38.154C121.242 37.98 121.323 37.8186 121.452 37.7005C121.581 37.5825 121.749 37.5161 121.924 37.514C122.006 37.5121 122.088 37.5278 122.164 37.56C122.239 37.5922 122.307 37.6402 122.363 37.7008C122.419 37.7614 122.461 37.8332 122.486 37.9113C122.512 37.9895 122.521 38.0722 122.512 38.154V38.154Z" fill="white"/>
<path d="M122.342 40.084C122.325 40.259 122.244 40.4216 122.115 40.5407C121.986 40.6598 121.817 40.7268 121.642 40.729C121.559 40.7302 121.477 40.7139 121.402 40.6811C121.326 40.6483 121.258 40.5998 121.202 40.5389C121.147 40.4779 121.105 40.4058 121.079 40.3274C121.054 40.249 121.045 40.1661 121.054 40.084C121.07 39.9091 121.151 39.7465 121.28 39.6274C121.409 39.5083 121.578 39.4412 121.754 39.439C121.836 39.4379 121.918 39.4542 121.994 39.487C122.069 39.5198 122.137 39.5682 122.193 39.6292C122.248 39.6902 122.29 39.7622 122.316 39.8407C122.342 39.9191 122.35 40.002 122.342 40.084Z" fill="white"/>
<path d="M122.177 42.008C122.159 42.1826 122.079 42.3446 121.95 42.4635C121.821 42.5823 121.652 42.6498 121.477 42.653C121.395 42.6542 121.313 42.6379 121.237 42.6051C121.161 42.5723 121.093 42.5238 121.038 42.4629C120.982 42.4019 120.94 42.3298 120.915 42.2514C120.889 42.173 120.88 42.0901 120.889 42.008C120.907 41.8335 120.988 41.6715 121.117 41.5526C121.246 41.4338 121.414 41.3663 121.589 41.363C121.672 41.3619 121.753 41.3782 121.829 41.411C121.905 41.4438 121.973 41.4923 122.028 41.5532C122.084 41.6142 122.126 41.6862 122.151 41.7646C122.177 41.8431 122.186 41.926 122.177 42.008V42.008Z" fill="white"/>
<path d="M116.519 111.165H69.3118C69.0992 111.169 68.8882 111.127 68.693 111.043C68.4977 110.958 68.3226 110.834 68.1792 110.676C68.0358 110.519 67.9275 110.334 67.8614 110.131C67.7953 109.929 67.7729 109.715 67.7958 109.504L69.9958 84.67C70.0411 84.2202 70.2498 83.8026 70.5825 83.4964C70.9152 83.1902 71.3487 83.0168 71.8008 83.009H118.993C119.205 83.0063 119.415 83.0485 119.61 83.1331C119.805 83.2176 119.979 83.3425 120.122 83.4995C120.265 83.6565 120.373 83.842 120.439 84.0438C120.504 84.2456 120.527 84.459 120.504 84.67L118.333 109.504C118.287 109.955 118.077 110.374 117.743 110.681C117.408 110.987 116.972 111.159 116.519 111.165V111.165Z" fill="white"/>
<path d="M82.2991 116.354H67.5991C67.5478 116.355 67.4969 116.345 67.4497 116.325C67.4026 116.305 67.3603 116.275 67.3256 116.237C67.291 116.199 67.2648 116.154 67.2489 116.105C67.2329 116.057 67.2275 116.005 67.2331 115.954V115.954C67.2434 115.844 67.2937 115.742 67.3745 115.667C67.4553 115.592 67.5608 115.549 67.6711 115.547H82.3711C82.423 115.546 82.4746 115.556 82.5223 115.577C82.57 115.597 82.6127 115.628 82.6475 115.667C82.6822 115.705 82.7082 115.751 82.7237 115.801C82.7391 115.85 82.7437 115.902 82.7371 115.954V115.954C82.7252 116.063 82.6742 116.163 82.5935 116.237C82.5129 116.31 82.4082 116.352 82.2991 116.354V116.354Z" fill="white"/>
<path d="M100.67 116.354H84.8927C84.841 116.356 84.7895 116.346 84.7417 116.326C84.694 116.307 84.651 116.277 84.6159 116.239C84.5807 116.201 84.554 116.156 84.5378 116.107C84.5215 116.057 84.516 116.005 84.5217 115.954V115.954C84.532 115.844 84.5823 115.742 84.6631 115.667C84.7438 115.592 84.8494 115.549 84.9597 115.547H100.742C100.794 115.546 100.845 115.556 100.893 115.577C100.941 115.597 100.983 115.628 101.018 115.667C101.053 115.705 101.079 115.751 101.094 115.801C101.11 115.85 101.114 115.902 101.108 115.954V115.954C101.096 116.063 101.045 116.163 100.964 116.237C100.884 116.31 100.779 116.352 100.67 116.354V116.354Z" fill="white"/>
<path d="M77.2128 119.938H67.2898C67.2377 119.939 67.1859 119.929 67.138 119.908C67.0901 119.888 67.0471 119.857 67.012 119.819C66.9769 119.78 66.9504 119.735 66.9343 119.685C66.9183 119.635 66.913 119.583 66.9188 119.531V119.531C66.9301 119.422 66.9808 119.32 67.0614 119.245C67.1419 119.17 67.2469 119.127 67.3568 119.124H77.3008C77.3527 119.124 77.4041 119.134 77.4516 119.155C77.4992 119.176 77.5418 119.207 77.5768 119.245C77.6117 119.283 77.6382 119.329 77.6546 119.378C77.671 119.427 77.6769 119.479 77.6718 119.531V119.531C77.6601 119.644 77.6064 119.748 77.5215 119.824C77.4365 119.899 77.3264 119.94 77.2128 119.938Z" fill="white"/>
<path d="M96.114 119.938H79.823C79.7709 119.939 79.7191 119.929 79.6712 119.908C79.6233 119.888 79.5803 119.857 79.5452 119.819C79.5101 119.78 79.4836 119.735 79.4675 119.685C79.4515 119.635 79.4462 119.583 79.452 119.531V119.531C79.4635 119.421 79.515 119.318 79.5968 119.243C79.6786 119.168 79.7851 119.126 79.896 119.124H96.178C96.2302 119.123 96.2819 119.133 96.3298 119.154C96.3777 119.174 96.4207 119.205 96.4558 119.243C96.4909 119.282 96.5174 119.328 96.5335 119.377C96.5496 119.427 96.5549 119.479 96.549 119.531V119.531C96.5388 119.64 96.4889 119.742 96.4087 119.817C96.3286 119.892 96.2237 119.935 96.114 119.938V119.938Z" fill="white"/>
<path d="M93.4767 123.518H66.9767C66.9249 123.52 66.8735 123.51 66.8257 123.49C66.7779 123.471 66.735 123.441 66.6998 123.403C66.6646 123.365 66.638 123.32 66.6218 123.271C66.6055 123.222 66.6 123.169 66.6057 123.118V123.118C66.6171 123.008 66.6686 122.905 66.7504 122.83C66.8322 122.755 66.9387 122.713 67.0497 122.711H93.5497C93.6016 122.711 93.6529 122.721 93.7005 122.742C93.748 122.763 93.7906 122.794 93.8256 122.832C93.8605 122.87 93.8871 122.916 93.9035 122.965C93.9198 123.014 93.9257 123.066 93.9207 123.118C93.9076 123.227 93.8554 123.328 93.7737 123.401C93.6921 123.475 93.5865 123.516 93.4767 123.518V123.518Z" fill="white"/>
<path d="M97.8438 123.518H96.0958C96.0441 123.52 95.9926 123.51 95.9448 123.49C95.8971 123.471 95.8542 123.441 95.819 123.403C95.7838 123.365 95.7572 123.32 95.7409 123.271C95.7247 123.222 95.7192 123.169 95.7248 123.118V123.118C95.7351 123.008 95.7854 122.906 95.8662 122.831C95.947 122.756 96.0525 122.713 96.1628 122.711H97.9168C97.9687 122.71 98.0203 122.72 98.068 122.741C98.1157 122.761 98.1584 122.792 98.1932 122.831C98.2279 122.869 98.2539 122.915 98.2694 122.965C98.2848 123.014 98.2894 123.066 98.2828 123.118V123.118C98.2709 123.227 98.2199 123.327 98.1392 123.401C98.0586 123.474 97.9539 123.516 97.8448 123.518H97.8438Z" fill="white"/>
<path d="M79.0339 127.102H66.6559C66.604 127.102 66.5527 127.092 66.5051 127.071C66.4576 127.05 66.415 127.019 66.38 126.981C66.3451 126.943 66.3185 126.897 66.3022 126.848C66.2858 126.799 66.2799 126.747 66.285 126.695C66.2964 126.585 66.3479 126.482 66.4297 126.407C66.5115 126.332 66.618 126.29 66.729 126.288H79.106C79.1581 126.287 79.2098 126.297 79.2577 126.318C79.3057 126.338 79.3486 126.369 79.3838 126.407C79.4189 126.446 79.4454 126.492 79.4614 126.541C79.4775 126.591 79.4828 126.643 79.477 126.695V126.695C79.4655 126.805 79.414 126.908 79.3322 126.983C79.2504 127.058 79.1439 127.1 79.033 127.102H79.0339Z" fill="white"/>
<path d="M97.0386 127.102H81.6286C81.5767 127.102 81.5253 127.092 81.4778 127.071C81.4303 127.05 81.3876 127.019 81.3527 126.981C81.3177 126.943 81.2912 126.897 81.2748 126.848C81.2584 126.799 81.2526 126.747 81.2576 126.695C81.2691 126.585 81.3206 126.482 81.4024 126.407C81.4842 126.332 81.5906 126.29 81.7016 126.288H97.1076C97.1597 126.287 97.2115 126.297 97.2594 126.318C97.3073 126.338 97.3503 126.369 97.3854 126.407C97.4205 126.446 97.447 126.492 97.4631 126.541C97.4792 126.591 97.4845 126.643 97.4786 126.695V126.695C97.4673 126.804 97.4166 126.906 97.3361 126.981C97.2555 127.056 97.1505 127.099 97.0406 127.102H97.0386Z" fill="white"/>
<path d="M81.587 130.682H66.346C66.294 130.683 66.2425 130.673 66.1948 130.652C66.1471 130.632 66.1044 130.601 66.0696 130.562C66.0349 130.524 66.0089 130.478 65.9934 130.429C65.9779 130.379 65.9734 130.327 65.98 130.275V130.275C65.9919 130.166 66.0429 130.066 66.1236 129.992C66.2042 129.919 66.3088 129.877 66.418 129.875H81.653C81.7047 129.873 81.7562 129.883 81.8039 129.903C81.8517 129.922 81.8946 129.952 81.9298 129.99C81.965 130.028 81.9916 130.073 82.0079 130.122C82.0241 130.172 82.0296 130.224 82.024 130.275V130.275C82.0137 130.385 81.9635 130.487 81.883 130.562C81.8024 130.637 81.6971 130.68 81.587 130.682Z" fill="white"/>
<path d="M96.4511 130.682H84.1761C84.1241 130.683 84.0725 130.673 84.0248 130.652C83.9771 130.632 83.9344 130.601 83.8997 130.562C83.8649 130.524 83.8389 130.478 83.8235 130.429C83.808 130.379 83.8034 130.327 83.8101 130.275V130.275C83.822 130.166 83.873 130.066 83.9536 129.992C84.0342 129.919 84.1389 129.877 84.2481 129.875H96.5231C96.5748 129.873 96.6263 129.883 96.674 129.903C96.7218 129.922 96.7647 129.952 96.7999 129.99C96.8351 130.028 96.8617 130.073 96.878 130.122C96.8942 130.172 96.8997 130.224 96.8941 130.275V130.275C96.8826 130.385 96.8311 130.488 96.7493 130.563C96.6675 130.638 96.561 130.68 96.4501 130.682H96.4511Z" fill="white"/>
<path d="M119.062 73.206C119.017 73.2574 118.963 73.2994 118.901 73.3296C118.84 73.3597 118.774 73.3774 118.706 73.3817C118.638 73.386 118.569 73.3767 118.505 73.3545C118.44 73.3322 118.381 73.2974 118.33 73.252L97.2201 53.107C97.1242 53.0104 97.0703 52.8797 97.0703 52.7435C97.0703 52.6074 97.1242 52.4767 97.2201 52.38C97.2649 52.3286 97.3195 52.2867 97.3807 52.2565C97.4419 52.2264 97.5084 52.2086 97.5765 52.2043C97.6446 52.2001 97.7128 52.2093 97.7773 52.2316C97.8418 52.2538 97.9012 52.2887 97.9521 52.334L119.062 72.479C119.158 72.5757 119.212 72.7064 119.212 72.8425C119.212 72.9787 119.158 73.1094 119.062 73.206V73.206Z" fill="#A1A606"/>
<path d="M95.3527 73.202C95.3108 73.1473 95.2803 73.0846 95.263 73.0178C95.2458 72.951 95.242 72.8815 95.2521 72.8132C95.2622 72.745 95.2858 72.6795 95.3217 72.6205C95.3575 72.5616 95.4048 72.5104 95.4607 72.4701L106.23 63.6701C106.332 63.5815 106.465 63.5367 106.6 63.5453C106.735 63.5539 106.861 63.6152 106.952 63.7161C106.993 63.7707 107.023 63.833 107.04 63.8993C107.056 63.9655 107.06 64.0345 107.05 64.1021C107.04 64.1698 107.016 64.2348 106.981 64.2933C106.946 64.3518 106.899 64.4027 106.844 64.443L96.0747 73.2521C95.9719 73.3401 95.8386 73.3842 95.7035 73.3749C95.5684 73.3655 95.4425 73.3034 95.3527 73.202V73.202Z" fill="#A1A606"/>
<path d="M109.268 61.818C109.227 61.7634 109.197 61.7011 109.18 61.6348C109.163 61.5686 109.16 61.4996 109.17 61.4319C109.18 61.3643 109.203 61.2993 109.238 61.2408C109.274 61.1823 109.321 61.1314 109.376 61.091L120.166 52.272C120.268 52.1835 120.401 52.1387 120.536 52.1473C120.671 52.1559 120.797 52.2172 120.888 52.318V52.318C120.929 52.3727 120.959 52.435 120.976 52.5012C120.992 52.5675 120.996 52.6365 120.986 52.7041C120.976 52.7718 120.952 52.8368 120.917 52.8953C120.882 52.9538 120.835 53.0047 120.78 53.045L109.99 61.864C109.887 61.9526 109.754 61.9974 109.619 61.9888C109.484 61.9802 109.358 61.9189 109.268 61.818Z" fill="#A1A606"/>
<g opacity="0.7">
<path d="M119.062 73.206C119.017 73.2574 118.963 73.2994 118.901 73.3296C118.84 73.3597 118.774 73.3774 118.706 73.3817C118.638 73.386 118.569 73.3767 118.505 73.3545C118.44 73.3322 118.381 73.2974 118.33 73.252L97.2201 53.107C97.1242 53.0104 97.0703 52.8797 97.0703 52.7435C97.0703 52.6074 97.1242 52.4767 97.2201 52.38C97.2649 52.3286 97.3195 52.2867 97.3807 52.2565C97.4419 52.2264 97.5084 52.2086 97.5765 52.2043C97.6446 52.2001 97.7128 52.2093 97.7773 52.2316C97.8418 52.2538 97.9012 52.2887 97.9521 52.334L119.062 72.479C119.158 72.5757 119.212 72.7064 119.212 72.8425C119.212 72.9787 119.158 73.1094 119.062 73.206V73.206Z" fill="white"/>
</g>
<g opacity="0.7">
<path d="M95.3518 73.202C95.3099 73.1473 95.2793 73.0846 95.2621 73.0178C95.2448 72.951 95.2411 72.8815 95.2511 72.8132C95.2612 72.745 95.2848 72.6795 95.3207 72.6205C95.3565 72.5616 95.4038 72.5104 95.4598 72.4701L106.229 63.6701C106.331 63.5815 106.464 63.5367 106.599 63.5453C106.734 63.5539 106.86 63.6152 106.951 63.7161C106.992 63.7707 107.022 63.833 107.039 63.8993C107.055 63.9655 107.059 64.0345 107.049 64.1021C107.039 64.1698 107.015 64.2348 106.98 64.2933C106.945 64.3518 106.898 64.4027 106.843 64.443L96.0738 73.2521C95.9709 73.3401 95.8376 73.3842 95.7025 73.3749C95.5675 73.3655 95.4415 73.3034 95.3518 73.202V73.202Z" fill="white"/>
</g>
<g opacity="0.7">
<path d="M109.268 61.818C109.227 61.7634 109.197 61.7011 109.18 61.6348C109.163 61.5686 109.16 61.4996 109.17 61.4319C109.18 61.3643 109.203 61.2993 109.238 61.2408C109.274 61.1823 109.321 61.1314 109.376 61.091L120.166 52.272C120.268 52.1835 120.401 52.1387 120.536 52.1473C120.671 52.1559 120.797 52.2172 120.888 52.318V52.318C120.929 52.3727 120.959 52.435 120.976 52.5012C120.992 52.5675 120.996 52.6365 120.986 52.7041C120.976 52.7718 120.952 52.8368 120.917 52.8953C120.882 52.9538 120.835 53.0047 120.78 53.045L109.99 61.864C109.887 61.9526 109.754 61.9974 109.619 61.9888C109.484 61.9802 109.358 61.9189 109.268 61.818Z" fill="white"/>
</g>
<path d="M59.0289 20.474H52.3289C51.6787 20.4754 51.0555 20.7346 50.5962 21.1949C50.1369 21.6551 49.8789 22.2788 49.8789 22.929V29.634C49.8789 30.2851 50.1376 30.9096 50.598 31.37C51.0584 31.8304 51.6828 32.089 52.3339 32.089H59.0339C59.3567 32.0897 59.6765 32.0267 59.9749 31.9036C60.2734 31.7805 60.5446 31.5998 60.7731 31.3717C61.0016 31.1437 61.1829 30.8729 61.3065 30.5747C61.4302 30.2765 61.4939 29.9568 61.4939 29.634V22.934C61.4939 22.6108 61.4301 22.2907 61.3061 21.9922C61.1821 21.6937 61.0003 21.4226 60.7713 21.1945C60.5423 20.9664 60.2705 20.7858 59.9715 20.663C59.6725 20.5402 59.3521 20.4777 59.0289 20.479V20.474ZM55.6919 22.846C56.6979 22.846 57.2389 23.666 57.2389 24.672C57.2389 25.678 56.6969 26.498 55.6919 26.498C54.6869 26.498 54.1449 25.683 54.1449 24.672C54.1449 23.661 54.6809 22.846 55.6919 22.846ZM59.7199 29.69H51.6589C51.5933 29.6901 51.5304 29.6642 51.4839 29.618L51.9999 28.21C52.1609 27.766 52.4546 27.3824 52.8413 27.1112C53.2279 26.8399 53.6886 26.6943 54.1609 26.694H57.2089C57.6819 26.694 58.1434 26.8394 58.5309 27.1106C58.9183 27.3818 59.213 27.7656 59.3749 28.21L59.8909 29.618C59.8688 29.6408 59.8424 29.6589 59.8132 29.6713C59.784 29.6836 59.7526 29.69 59.7209 29.69H59.7199Z" fill="#A1A606"/>
<path opacity="0.7" d="M59.0289 20.474H52.3289C51.6787 20.4754 51.0555 20.7346 50.5962 21.1949C50.1369 21.6551 49.8789 22.2788 49.8789 22.929V29.634C49.8789 30.2851 50.1376 30.9096 50.598 31.37C51.0584 31.8304 51.6828 32.089 52.3339 32.089H59.0339C59.3567 32.0897 59.6765 32.0267 59.9749 31.9036C60.2734 31.7805 60.5446 31.5998 60.7731 31.3717C61.0016 31.1437 61.1829 30.8729 61.3065 30.5747C61.4302 30.2765 61.4939 29.9568 61.4939 29.634V22.934C61.4939 22.6108 61.4301 22.2907 61.3061 21.9922C61.1821 21.6937 61.0003 21.4226 60.7713 21.1945C60.5423 20.9664 60.2705 20.7858 59.9715 20.663C59.6725 20.5402 59.3521 20.4777 59.0289 20.479V20.474ZM55.6919 22.846C56.6979 22.846 57.2389 23.666 57.2389 24.672C57.2389 25.678 56.6969 26.498 55.6919 26.498C54.6869 26.498 54.1449 25.683 54.1449 24.672C54.1449 23.661 54.6809 22.846 55.6919 22.846ZM59.7199 29.69H51.6589C51.5933 29.6901 51.5304 29.6642 51.4839 29.618L51.9999 28.21C52.1609 27.766 52.4546 27.3824 52.8413 27.1112C53.2279 26.8399 53.6886 26.6943 54.1609 26.694H57.2089C57.6819 26.694 58.1434 26.8394 58.5309 27.1106C58.9183 27.3818 59.213 27.7656 59.3749 28.21L59.8909 29.618C59.8688 29.6408 59.8424 29.6589 59.8132 29.6713C59.784 29.6836 59.7526 29.69 59.7209 29.69H59.7199Z" fill="white"/>
<path d="M35.2619 47.954H30.1869C29.753 47.9532 29.3232 48.038 28.9222 48.2035C28.5211 48.369 28.1566 48.612 27.8495 48.9185C27.5425 49.225 27.2988 49.589 27.1326 49.9898C26.9664 50.3906 26.8809 50.8202 26.8809 51.254V56.334C26.8809 56.7682 26.9664 57.1981 27.1325 57.5992C27.2986 58.0003 27.5422 58.3647 27.8492 58.6717C28.1561 58.9787 28.5206 59.2222 28.9217 59.3884C29.3228 59.5545 29.7527 59.64 30.1869 59.64H35.2619C35.6957 59.64 36.1253 59.5545 36.5261 59.3883C36.9269 59.2221 37.2909 58.9784 37.5974 58.6714C37.9039 58.3643 38.1469 57.9998 38.3124 57.5987C38.4779 57.1977 38.5626 56.7679 38.5619 56.334V51.259C38.5619 50.3838 38.2142 49.5445 37.5953 48.9256C36.9764 48.3067 36.1371 47.959 35.2619 47.959V47.954ZM32.7239 56.562C32.7239 56.562 30.6609 54.298 30.6609 53.143C30.6609 52.5898 30.8806 52.0592 31.2718 51.668C31.663 51.2768 32.1936 51.057 32.7469 51.057C33.3001 51.057 33.8307 51.2768 34.2219 51.668C34.6131 52.0592 34.8329 52.5898 34.8329 53.143C34.8079 54.298 32.7249 56.562 32.7249 56.562H32.7239Z" fill="#A1A606"/>
<path d="M32.7236 52.193C32.5345 52.192 32.3494 52.2473 32.1917 52.3517C32.0341 52.4562 31.9111 52.6051 31.8382 52.7796C31.7654 52.9542 31.7461 53.1464 31.7827 53.3319C31.8194 53.5174 31.9103 53.6879 32.0441 53.8216C32.1778 53.9553 32.3482 54.0463 32.5338 54.0829C32.7193 54.1196 32.9115 54.1003 33.086 54.0274C33.2606 53.9546 33.4095 53.8316 33.5139 53.6739C33.6184 53.5163 33.6736 53.3311 33.6726 53.142C33.6713 52.8907 33.5709 52.6501 33.3932 52.4724C33.2155 52.2947 32.9749 52.1943 32.7236 52.193Z" fill="#A1A606"/>
<g opacity="0.7">
<path d="M35.2619 47.954H30.1869C29.753 47.9532 29.3232 48.038 28.9222 48.2035C28.5211 48.369 28.1566 48.612 27.8495 48.9185C27.5425 49.225 27.2988 49.589 27.1326 49.9898C26.9664 50.3906 26.8809 50.8202 26.8809 51.254V56.334C26.8809 56.7682 26.9664 57.1981 27.1325 57.5992C27.2986 58.0003 27.5422 58.3647 27.8492 58.6717C28.1561 58.9787 28.5206 59.2222 28.9217 59.3884C29.3228 59.5545 29.7527 59.64 30.1869 59.64H35.2619C35.6957 59.64 36.1253 59.5545 36.5261 59.3883C36.9269 59.2221 37.2909 58.9784 37.5974 58.6714C37.9039 58.3643 38.1469 57.9998 38.3124 57.5987C38.4779 57.1977 38.5626 56.7679 38.5619 56.334V51.259C38.5619 50.3838 38.2142 49.5445 37.5953 48.9256C36.9764 48.3067 36.1371 47.959 35.2619 47.959V47.954ZM32.7239 56.562C32.7239 56.562 30.6609 54.298 30.6609 53.143C30.6609 52.5898 30.8806 52.0592 31.2718 51.668C31.663 51.2768 32.1936 51.057 32.7469 51.057C33.3001 51.057 33.8307 51.2768 34.2219 51.668C34.6131 52.0592 34.8329 52.5898 34.8329 53.143C34.8079 54.298 32.7249 56.562 32.7249 56.562H32.7239Z" fill="white"/>
<path d="M32.7236 52.194C32.5345 52.193 32.3494 52.2483 32.1917 52.3527C32.0341 52.4572 31.9111 52.6061 31.8382 52.7806C31.7654 52.9551 31.7461 53.1474 31.7827 53.3329C31.8194 53.5184 31.9103 53.6889 32.0441 53.8226C32.1778 53.9563 32.3482 54.0473 32.5338 54.0839C32.7193 54.1206 32.9115 54.1012 33.086 54.0284C33.2606 53.9556 33.4095 53.8326 33.5139 53.6749C33.6184 53.5173 33.6736 53.3321 33.6726 53.143C33.6713 52.8917 33.5709 52.6511 33.3932 52.4734C33.2155 52.2957 32.9749 52.1953 32.7236 52.194Z" fill="white"/>
</g>
<path d="M146.686 33.57L150.086 31.37L146.686 29.17V33.57Z" fill="#A1A606"/>
<path d="M151.065 25.374H144.587C143.855 25.374 143.153 25.6647 142.636 26.1821C142.118 26.6995 141.828 27.4013 141.828 28.133V34.611C141.829 35.3423 142.12 36.0433 142.637 36.5605C143.154 37.0776 143.855 37.3687 144.587 37.37H151.065C151.796 37.37 152.498 37.0793 153.016 36.5619C153.533 36.0445 153.824 35.3428 153.824 34.611V28.134C153.824 27.7715 153.753 27.4125 153.615 27.0774C153.477 26.7424 153.273 26.438 153.017 26.1816C152.761 25.9253 152.456 25.7221 152.121 25.5837C151.786 25.4453 151.427 25.3744 151.065 25.375V25.374ZM147.826 35.689C147.826 36.8316 148.281 37.9272 149.089 38.7348C149.897 39.5424 150.993 39.9959 152.136 39.9955C153.278 39.9952 154.374 39.5411 155.182 38.733C155.99 37.9249 156.444 36.8291 156.444 35.6865C156.444 34.5439 155.99 33.4481 155.182 32.64C154.374 31.832 153.278 31.3779 152.136 31.3775C150.993 31.3772 149.897 31.8307 149.089 32.6383C148.281 33.4459 147.826 34.5414 147.826 35.684V35.689Z" fill="#A1A606"/>
<g opacity="0.7">
<path d="M146.686 33.57L150.086 31.37L146.686 29.17V33.57Z" fill="white"/>
<path d="M151.065 25.374H144.587C143.855 25.374 143.153 25.6647 142.636 26.1821C142.118 26.6995 141.828 27.4013 141.828 28.133V34.611C141.829 35.3424 142.12 36.0434 142.637 36.5605C143.154 37.0776 143.855 37.3687 144.587 37.37H151.065C151.796 37.37 152.498 37.0794 153.016 36.5619C153.533 36.0445 153.824 35.3428 153.824 34.611V28.134C153.824 27.7715 153.753 27.4125 153.615 27.0774C153.477 26.7424 153.273 26.438 153.017 26.1817C152.761 25.9253 152.456 25.7221 152.121 25.5837C151.786 25.4453 151.427 25.3744 151.065 25.375V25.374ZM147.826 35.689C147.826 36.8316 148.281 37.9272 149.089 38.7348C149.897 39.5424 150.993 39.9959 152.136 39.9955C153.278 39.9952 154.374 39.5411 155.182 38.733C155.99 37.925 156.444 36.8291 156.444 35.6865C156.444 34.5439 155.99 33.4481 155.182 32.6401C154.374 31.832 153.278 31.3779 152.136 31.3775C150.993 31.3772 149.897 31.8307 149.089 32.6383C148.281 33.4459 147.826 34.5414 147.826 35.684V35.689Z" fill="white"/>
</g>
<path d="M157.424 50.218V49.818L158.203 49.385C158.146 49.0162 158.049 48.6548 157.914 48.307H157.027C156.915 48.065 156.781 47.8338 156.627 47.616L157.086 46.858C156.851 46.5671 156.586 46.3011 156.297 46.064L155.534 46.523C155.317 46.37 155.088 46.2362 154.848 46.123V45.231C154.499 45.0992 154.138 45.0024 153.77 44.942L153.337 45.721H152.543L152.11 44.942C151.742 45.0036 151.381 45.1004 151.032 45.231V46.123C150.792 46.235 150.562 46.3689 150.346 46.523L149.583 46.064C149.291 46.2996 149.025 46.5658 148.789 46.858L149.248 47.616C149.096 47.8349 148.962 48.066 148.848 48.307H147.961C147.826 48.6554 147.728 49.0166 147.667 49.385L148.446 49.818V50.612L147.667 51.045C147.727 51.4136 147.826 51.7749 147.961 52.123H148.848C148.962 52.3641 149.096 52.5952 149.248 52.814L148.789 53.577C149.026 53.8665 149.292 54.1309 149.583 54.366L150.346 53.907C150.561 54.063 150.79 54.1971 151.032 54.307V55.1991C151.38 55.3321 151.742 55.4289 152.11 55.488L152.543 54.709H153.337L153.77 55.488C154.139 55.4302 154.5 55.3333 154.848 55.1991V54.307C155.089 54.1959 155.319 54.062 155.534 53.907L156.297 54.366C156.585 54.1295 156.849 53.8652 157.086 53.577L156.627 52.814C156.781 52.5963 156.915 52.365 157.027 52.123H157.914C158.05 51.7755 158.147 51.414 158.203 51.045L157.424 50.612C157.414 50.471 157.424 50.357 157.424 50.218ZM152.924 53.271C152.32 53.271 151.73 53.092 151.228 52.7565C150.726 52.421 150.334 51.9442 150.103 51.3864C149.872 50.8285 149.812 50.2147 149.93 49.6224C150.047 49.0302 150.338 48.4862 150.765 48.0592C151.192 47.6323 151.736 47.3415 152.328 47.2237C152.921 47.1059 153.534 47.1664 154.092 47.3974C154.65 47.6285 155.127 48.0198 155.462 48.5219C155.798 49.0239 155.977 49.6142 155.977 50.218C155.977 51.0278 155.655 51.8043 155.083 52.3768C154.51 52.9494 153.734 53.271 152.924 53.271V53.271Z" fill="#A1A606"/>
<path opacity="0.7" d="M157.424 50.218V49.818L158.203 49.385C158.146 49.0162 158.049 48.6548 157.914 48.307H157.027C156.915 48.065 156.781 47.8338 156.627 47.616L157.086 46.858C156.851 46.5671 156.586 46.3011 156.297 46.064L155.534 46.523C155.317 46.37 155.088 46.2362 154.848 46.123V45.231C154.499 45.0992 154.138 45.0024 153.77 44.942L153.337 45.721H152.543L152.11 44.942C151.742 45.0036 151.381 45.1004 151.032 45.231V46.123C150.792 46.235 150.562 46.3689 150.346 46.523L149.583 46.064C149.291 46.2996 149.025 46.5658 148.789 46.858L149.248 47.616C149.096 47.8349 148.962 48.066 148.848 48.307H147.961C147.826 48.6554 147.728 49.0166 147.667 49.385L148.446 49.818V50.612L147.667 51.045C147.727 51.4136 147.826 51.7749 147.961 52.123H148.848C148.962 52.3641 149.096 52.5952 149.248 52.814L148.789 53.577C149.026 53.8665 149.292 54.1309 149.583 54.366L150.346 53.907C150.561 54.063 150.79 54.1971 151.032 54.307V55.1991C151.38 55.3321 151.742 55.4289 152.11 55.488L152.543 54.709H153.337L153.77 55.488C154.139 55.4302 154.5 55.3333 154.848 55.1991V54.307C155.089 54.1959 155.319 54.062 155.534 53.907L156.297 54.366C156.585 54.1295 156.849 53.8652 157.086 53.577L156.627 52.814C156.781 52.5963 156.915 52.365 157.027 52.123H157.914C158.05 51.7755 158.147 51.414 158.203 51.045L157.424 50.612C157.414 50.471 157.424 50.357 157.424 50.218ZM152.924 53.271C152.32 53.271 151.73 53.092 151.228 52.7565C150.726 52.421 150.334 51.9442 150.103 51.3864C149.872 50.8285 149.812 50.2147 149.93 49.6224C150.047 49.0302 150.338 48.4862 150.765 48.0592C151.192 47.6323 151.736 47.3415 152.328 47.2237C152.921 47.1059 153.534 47.1664 154.092 47.3974C154.65 47.6285 155.127 48.0198 155.462 48.5219C155.798 49.0239 155.977 49.6142 155.977 50.218C155.977 51.0278 155.655 51.8043 155.083 52.3768C154.51 52.9494 153.734 53.271 152.924 53.271V53.271Z" fill="white"/>
<path d="M145.67 65.551C145.674 65.353 145.666 65.1549 145.644 64.958L146.81 64.313C146.722 63.7598 146.577 63.2172 146.377 62.694L145.046 62.72C144.877 62.3587 144.677 62.0133 144.446 61.688L145.132 60.548C144.781 60.1142 144.385 59.7184 143.951 59.367L142.811 60.048C142.485 59.8216 142.14 59.6233 141.78 59.455V58.124C141.259 57.9232 140.718 57.778 140.166 57.691L139.521 58.857H138.335L137.707 57.691C137.155 57.7793 136.614 57.9244 136.093 58.124V59.455C135.733 59.623 135.388 59.8214 135.062 60.048L133.948 59.367C133.512 59.7183 133.115 60.1141 132.762 60.548L133.448 61.688C133.22 62.0135 133.021 62.3589 132.855 62.72L131.523 62.691C131.32 63.2134 131.175 63.7563 131.09 64.31L132.256 64.955C132.215 65.3493 132.215 65.7468 132.256 66.141L131.09 66.791C131.176 67.3431 131.321 67.8842 131.523 68.405L132.854 68.379C133.019 68.7408 133.217 69.0863 133.447 69.411L132.761 70.551C133.114 70.985 133.511 71.3808 133.947 71.732L135.087 71.051C135.412 71.2796 135.758 71.4781 136.119 71.644V72.975C136.64 73.177 137.181 73.3222 137.733 73.408L138.383 72.242C138.777 72.2833 139.175 72.2833 139.569 72.242L140.214 73.408C140.766 73.3235 141.307 73.1783 141.828 72.975V71.644C142.189 71.4778 142.534 71.2793 142.859 71.051L143.999 71.732C144.433 71.3807 144.829 70.9849 145.18 70.551L144.494 69.411C144.726 69.0865 144.926 68.741 145.094 68.379L146.425 68.405C146.624 67.8834 146.77 67.3425 146.858 66.791L145.692 66.141C145.669 65.9452 145.662 65.748 145.67 65.551V65.551ZM138.97 68.202C139.677 68.2001 140.355 67.9174 140.854 67.416C141.354 66.9147 141.633 66.2358 141.632 65.5283C141.631 64.8208 141.35 64.1427 140.849 63.6427C140.348 63.1428 139.67 62.862 138.962 62.862C138.255 62.862 137.576 63.1428 137.076 63.6427C136.575 64.1427 136.293 64.8208 136.292 65.5283C136.291 66.2358 136.571 66.9147 137.07 67.416C137.57 67.9174 138.247 68.2001 138.955 68.202H138.97Z" fill="#A1A606"/>
<path opacity="0.7" d="M145.67 65.551C145.674 65.353 145.666 65.1549 145.644 64.958L146.81 64.313C146.722 63.7598 146.577 63.2172 146.377 62.694L145.046 62.72C144.877 62.3587 144.677 62.0133 144.446 61.688L145.132 60.548C144.781 60.1142 144.385 59.7184 143.951 59.367L142.811 60.048C142.485 59.8216 142.14 59.6233 141.78 59.455V58.124C141.259 57.9232 140.718 57.778 140.166 57.691L139.521 58.857H138.335L137.707 57.691C137.155 57.7793 136.614 57.9244 136.093 58.124V59.455C135.733 59.623 135.388 59.8214 135.062 60.048L133.948 59.367C133.512 59.7183 133.115 60.1141 132.762 60.548L133.448 61.688C133.22 62.0135 133.021 62.3589 132.855 62.72L131.523 62.691C131.32 63.2134 131.175 63.7563 131.09 64.31L132.256 64.955C132.215 65.3493 132.215 65.7468 132.256 66.141L131.09 66.791C131.176 67.3431 131.321 67.8842 131.523 68.405L132.854 68.379C133.019 68.7408 133.217 69.0863 133.447 69.411L132.761 70.551C133.114 70.985 133.511 71.3808 133.947 71.732L135.087 71.051C135.412 71.2796 135.758 71.4781 136.119 71.644V72.975C136.64 73.177 137.181 73.3222 137.733 73.408L138.383 72.242C138.777 72.2833 139.175 72.2833 139.569 72.242L140.214 73.408C140.766 73.3235 141.307 73.1783 141.828 72.975V71.644C142.189 71.4778 142.534 71.2793 142.859 71.051L143.999 71.732C144.433 71.3807 144.829 70.9849 145.18 70.551L144.494 69.411C144.726 69.0865 144.926 68.741 145.094 68.379L146.425 68.405C146.624 67.8834 146.77 67.3425 146.858 66.791L145.692 66.141C145.669 65.9452 145.662 65.748 145.67 65.551V65.551ZM138.97 68.202C139.677 68.2001 140.355 67.9174 140.854 67.416C141.354 66.9147 141.633 66.2358 141.632 65.5283C141.631 64.8208 141.35 64.1427 140.849 63.6427C140.348 63.1428 139.67 62.862 138.962 62.862C138.255 62.862 137.576 63.1428 137.076 63.6427C136.575 64.1427 136.293 64.8208 136.292 65.5283C136.291 66.2358 136.571 66.9147 137.07 67.416C137.57 67.9174 138.247 68.2001 138.955 68.202H138.97Z" fill="white"/>
<path d="M126.726 35.648V38.348L124.147 39.704C124.047 39.7578 123.963 39.8377 123.904 39.9354C123.846 40.033 123.815 40.1447 123.815 40.2585C123.815 40.3724 123.846 40.484 123.904 40.5817C123.963 40.6793 124.047 40.7593 124.147 40.813L126.726 42.169V44.869C126.726 45.0119 126.754 45.1534 126.809 45.2854C126.864 45.4174 126.944 45.5373 127.045 45.6384C127.146 45.7394 127.266 45.8195 127.398 45.8742C127.53 45.9289 127.671 45.957 127.814 45.957H137.041C137.33 45.957 137.607 45.8426 137.812 45.6387C138.017 45.4348 138.133 45.158 138.134 44.869V35.642C138.134 35.3522 138.019 35.0741 137.814 34.8692C137.609 34.6642 137.331 34.549 137.041 34.549H127.799C127.511 34.553 127.237 34.6709 127.035 34.8769C126.834 35.0828 126.723 35.3602 126.726 35.648Z" fill="#A1A606"/>
<g opacity="0.9">
<path d="M129.883 38.464H135.128C135.295 38.4575 135.452 38.3867 135.568 38.2666C135.683 38.1464 135.748 37.9862 135.748 37.8195C135.748 37.6529 135.683 37.4927 135.568 37.3725C135.452 37.2524 135.295 37.1816 135.128 37.175H129.883C129.797 37.1716 129.71 37.1857 129.629 37.2166C129.548 37.2474 129.473 37.2944 129.411 37.3545C129.348 37.4147 129.298 37.4869 129.264 37.5668C129.23 37.6467 129.213 37.7327 129.213 37.8195C129.213 37.9064 129.23 37.9923 129.264 38.0722C129.298 38.1521 129.348 38.2243 129.411 38.2845C129.473 38.3447 129.548 38.3916 129.629 38.4225C129.71 38.4533 129.797 38.4675 129.883 38.464V38.464Z" fill="white"/>
<path d="M135.128 39.64H129.883C129.797 39.6366 129.71 39.6507 129.629 39.6816C129.548 39.7124 129.473 39.7594 129.411 39.8195C129.348 39.8797 129.298 39.9519 129.264 40.0318C129.23 40.1117 129.213 40.1977 129.213 40.2845C129.213 40.3714 129.23 40.4573 129.264 40.5372C129.298 40.6171 129.348 40.6893 129.411 40.7495C129.473 40.8097 129.548 40.8566 129.629 40.8875C129.71 40.9183 129.797 40.9324 129.883 40.929H135.128C135.295 40.9225 135.452 40.8517 135.568 40.7315C135.683 40.6114 135.748 40.4512 135.748 40.2845C135.748 40.1179 135.683 39.9577 135.568 39.8375C135.452 39.7174 135.295 39.6466 135.128 39.64Z" fill="white"/>
<path d="M135.128 42.059H129.883C129.797 42.0556 129.71 42.0697 129.629 42.1006C129.548 42.1314 129.473 42.1784 129.411 42.2386C129.348 42.2987 129.298 42.3709 129.264 42.4508C129.23 42.5307 129.213 42.6167 129.213 42.7035C129.213 42.7904 129.23 42.8763 129.264 42.9562C129.298 43.0361 129.348 43.1083 129.411 43.1685C129.473 43.2287 129.548 43.2756 129.629 43.3065C129.71 43.3373 129.797 43.3515 129.883 43.348H135.128C135.295 43.3415 135.452 43.2707 135.568 43.1505C135.683 43.0304 135.748 42.8702 135.748 42.7035C135.748 42.5369 135.683 42.3767 135.568 42.2565C135.452 42.1364 135.295 42.0656 135.128 42.059Z" fill="white"/>
</g>
<path d="M74.5842 31.388H76.7842L77.9192 33.539C77.9941 33.6791 78.1056 33.7963 78.2418 33.8779C78.378 33.9596 78.5339 34.0027 78.6927 34.0027C78.8516 34.0027 79.0074 33.9596 79.1436 33.8779C79.2799 33.7963 79.3914 33.6791 79.4662 33.539L80.6012 31.388H82.8012C83.0103 31.388 83.2174 31.3468 83.4105 31.2666C83.6036 31.1864 83.779 31.0689 83.9266 30.9209C84.0742 30.7728 84.1912 30.597 84.2707 30.4037C84.3503 30.2103 84.3909 30.0031 84.3902 29.794V21.588C84.3902 21.3794 84.3491 21.1727 84.2693 20.98C84.1894 20.7872 84.0724 20.612 83.9248 20.4644C83.7773 20.3169 83.6021 20.1998 83.4093 20.12C83.2165 20.0401 83.0099 19.999 82.8012 19.999H74.5802C74.3713 19.9982 74.1643 20.0388 73.9712 20.1184C73.7781 20.1979 73.6026 20.315 73.4549 20.4627C73.3072 20.6104 73.1901 20.7859 73.1106 20.979C73.031 21.1722 72.9904 21.3791 72.9912 21.588V29.84C73.0019 30.255 73.1746 30.6493 73.4723 30.9386C73.77 31.2279 74.1691 31.3892 74.5842 31.388V31.388Z" fill="#A1A606"/>
<path opacity="0.9" d="M78.7021 22.46L76.1641 23.945V28.288H78.0521V25.37H79.3521V28.284H81.2401V23.941L78.7021 22.46Z" fill="white"/>
<path d="M99.2884 149.388H97.3284L96.0644 146.988C96.0018 146.872 95.9088 146.774 95.7953 146.707C95.6818 146.639 95.5521 146.603 95.4199 146.603C95.2877 146.603 95.158 146.639 95.0446 146.707C94.9311 146.774 94.8381 146.872 94.7754 146.988L93.5114 149.388H91.5004C91.0204 149.388 90.56 149.579 90.2206 149.918C89.8811 150.258 89.6904 150.718 89.6904 151.198V158.986C89.6904 159.466 89.8811 159.926 90.2206 160.266C90.56 160.605 91.0204 160.796 91.5004 160.796H99.2884C99.7685 160.796 100.229 160.605 100.568 160.266C100.908 159.926 101.098 159.466 101.098 158.986V151.198C101.098 150.718 100.908 150.258 100.568 149.918C100.229 149.579 99.7685 149.388 99.2884 149.388V149.388Z" fill="#A1A606"/>
<path opacity="0.9" d="M96.4982 152.364C96.1202 151.985 95.6422 151.722 95.1201 151.606C94.598 151.489 94.0535 151.523 93.5503 151.705C93.047 151.886 92.6059 152.207 92.2784 152.63C91.951 153.053 91.7509 153.561 91.7015 154.094C91.6521 154.626 91.7554 155.162 91.9994 155.638C92.2434 156.114 92.618 156.511 93.0793 156.782C93.5406 157.053 94.0695 157.187 94.6041 157.168C95.1388 157.149 95.657 156.979 96.0982 156.676C96.1197 156.804 96.1789 156.922 96.2682 157.016L98.0222 158.764C98.0801 158.825 98.1498 158.875 98.227 158.908C98.3043 158.942 98.3876 158.961 98.4719 158.962C98.5563 158.963 98.6401 158.947 98.7183 158.916C98.7965 158.884 98.8675 158.837 98.9272 158.777C98.9869 158.717 99.034 158.646 99.0657 158.568C99.0974 158.49 99.1132 158.406 99.1119 158.322C99.1107 158.237 99.0926 158.154 99.0586 158.077C99.0247 158 98.9755 157.93 98.9142 157.872L97.1662 156.124C97.072 156.031 96.951 155.97 96.8202 155.949C97.1909 155.407 97.3612 154.753 97.3019 154.099C97.2426 153.445 96.9574 152.832 96.4952 152.365L96.4982 152.364ZM95.8982 155.752C95.5751 156.075 95.15 156.276 94.6955 156.32C94.2409 156.365 93.7849 156.251 93.4051 155.997C93.0253 155.743 92.7451 155.366 92.6124 154.929C92.4797 154.492 92.5025 154.022 92.6771 153.6C92.8517 153.178 93.1671 152.83 93.5698 152.614C93.9725 152.398 94.4374 152.329 94.8855 152.418C95.3336 152.506 95.7371 152.747 96.0273 153.1C96.3175 153.453 96.4765 153.895 96.4772 154.352C96.4776 154.612 96.4266 154.87 96.3273 155.11C96.2279 155.35 96.0821 155.568 95.8982 155.752V155.752Z" fill="white"/>
<path d="M182.578 97.524C182.578 97.524 178.378 107.942 174.259 109.067C170.14 110.192 163.944 109.278 163.944 109.278L162.025 109.794L160.142 109.515H160.075L157.955 109.463C157.878 109.47 157.801 109.455 157.733 109.42C157.664 109.384 157.608 109.33 157.569 109.263C157.531 109.196 157.513 109.119 157.518 109.042C157.522 108.965 157.549 108.891 157.594 108.829L158.352 107.798C158.416 107.713 158.504 107.65 158.605 107.617L160.627 106.967C160.707 106.949 160.789 106.949 160.869 106.967L163.964 107.457C163.964 107.457 172.551 106.049 173.428 105.257C174.305 104.465 176.889 96.133 176.889 96.133L182.578 97.524Z" fill="#EEC1BB"/>
<path opacity="0.1" d="M164.156 107.389L163.956 107.42L160.861 106.93C160.781 106.912 160.699 106.912 160.619 106.93L158.597 107.58C158.496 107.613 158.408 107.676 158.344 107.761L157.586 108.792C157.541 108.854 157.514 108.928 157.51 109.005C157.506 109.082 157.524 109.159 157.562 109.226C157.6 109.293 157.656 109.347 157.725 109.383C157.793 109.418 157.87 109.433 157.947 109.426L160.067 109.478H160.134L161.398 109.664C162.476 109.121 163.418 108.343 164.157 107.389H164.156Z" fill="black"/>
<path d="M185.116 87.203C182.063 86.203 177.766 88.498 176.121 98.111L182.46 99.983C182.46 99.983 189.479 88.637 185.116 87.203Z" fill="#A1A606"/>
<path d="M167.353 74.639C167.353 74.959 167.523 75.211 167.729 75.211C167.935 75.211 168.116 74.938 168.1 74.628C168.084 74.318 167.93 74.061 167.724 74.066C167.518 74.071 167.353 74.325 167.353 74.639Z" fill="#263238"/>
<path d="M168.601 74.954L167.101 77.435C167.101 77.435 167.617 78.023 168.746 77.59L168.601 74.954Z" fill="#D4827D"/>
<path d="M168.885 72.648C168.867 72.669 168.844 72.6848 168.817 72.694C168.791 72.7031 168.763 72.7052 168.735 72.7C168.532 72.6656 168.324 72.6799 168.127 72.7418C167.931 72.8037 167.752 72.9114 167.605 73.056C167.574 73.0854 167.532 73.1018 167.489 73.1018C167.446 73.1018 167.405 73.0854 167.373 73.056C167.344 73.0237 167.327 72.9814 167.327 72.9375C167.327 72.8936 167.344 72.8513 167.373 72.819C167.555 72.6323 167.78 72.4928 168.028 72.4128C168.277 72.3328 168.541 72.3147 168.797 72.36C168.819 72.3626 168.84 72.3695 168.859 72.3803C168.878 72.3911 168.895 72.4056 168.908 72.4229C168.922 72.4402 168.932 72.46 168.937 72.4811C168.943 72.5023 168.944 72.5243 168.941 72.546C168.933 72.5848 168.914 72.6203 168.885 72.648V72.648Z" fill="#263238"/>
<path d="M179.488 72.39C179.72 76.583 179.911 78.357 178.059 80.74C175.104 83.293 170.07 83.7 168.585 79.662C167.249 76.052 167.094 69.796 170.973 67.635C171.631 67.2682 172.355 67.0346 173.103 66.9478C173.852 66.861 174.61 66.9226 175.334 67.1291C176.059 67.3356 176.735 67.6829 177.325 68.1511C177.915 68.6194 178.407 69.1994 178.773 69.858C179.202 70.6363 179.447 71.5024 179.49 72.39H179.488Z" fill="#EEC1BB"/>
<path d="M173.645 81.566L174.707 87.781L179.885 86.581L178.075 80.237L173.645 81.566Z" fill="#EEC1BB"/>
<path d="M169.916 72.7C170.179 69.977 169.24 73.123 167.982 69.528C166.724 65.933 172.67 63.014 173.619 63.684C174.568 64.354 174.026 65.384 177.173 65.964C178.031 66.1003 178.811 66.5446 179.365 67.2138C179.919 67.8831 180.211 68.7314 180.185 69.6C180.185 69.6 181.995 70.436 181.351 74.324C180.877 76.8149 179.816 79.1567 178.255 81.155C177.829 80.7866 177.289 80.5757 176.725 80.5575C176.162 80.5393 175.609 80.7149 175.16 81.055C174.417 80.5703 173.789 79.9298 173.319 79.178C172.473 77.909 172.21 76.702 171.05 76.599C168.626 76.382 169.828 73.597 169.916 72.7Z" fill="#263238"/>
<path d="M179.85 70.069C179.85 70.069 182.429 68.491 181.284 66.835C180.139 65.179 180.691 68.661 179.85 70.069Z" fill="#263238"/>
<path d="M170.658 74.283C170.086 74.9224 169.792 75.7625 169.838 76.619C169.91 77.754 171.024 77.955 171.901 77.336C172.778 76.717 173.608 75.51 173.101 74.515C172.989 74.2979 172.824 74.1123 172.622 73.9755C172.419 73.8386 172.185 73.7548 171.942 73.7317C171.699 73.7086 171.454 73.747 171.229 73.8433C171.004 73.9397 170.807 74.0908 170.656 74.283H170.658Z" fill="#FFC3BD"/>
<path opacity="0.1" d="M173.743 82.154L174.166 84.619C174.129 84.0085 174.213 83.3967 174.413 82.8187C174.613 82.2407 174.925 81.7079 175.332 81.251C175.016 81.2713 174.709 81.3631 174.434 81.5195C174.158 81.676 173.922 81.8929 173.743 82.154V82.154Z" fill="black"/>
<path d="M137.336 98.183H135.856V106.915H137.336V98.183Z" fill="#A1A606"/>
<path opacity="0.7" d="M137.336 98.183H135.856V106.915H137.336V98.183Z" fill="white"/>
<path d="M127.165 80.844H123.477C122.814 80.844 122.178 81.1074 121.709 81.5763C121.24 82.0451 120.977 82.681 120.977 83.344V100.431C120.977 101.094 121.24 101.73 121.709 102.199C122.178 102.668 122.814 102.931 123.477 102.931H127.165V80.844Z" fill="#A1A606"/>
<path d="M147.37 80.844H127.115C124.437 80.844 122.265 83.0154 122.265 85.694V98.079C122.265 100.758 124.437 102.929 127.115 102.929H147.37C150.049 102.929 152.22 100.758 152.22 98.079V85.694C152.22 83.0154 150.049 80.844 147.37 80.844Z" fill="#A1A606"/>
<path opacity="0.5" d="M147.37 80.844H127.115C124.437 80.844 122.265 83.0154 122.265 85.694V98.079C122.265 100.758 124.437 102.929 127.115 102.929H147.37C150.049 102.929 152.22 100.758 152.22 98.079V85.694C152.22 83.0154 150.049 80.844 147.37 80.844Z" fill="white"/>
<path d="M148.339 81.875H126.147C124.573 81.875 123.297 83.151 123.297 84.725V99.047C123.297 100.621 124.573 101.897 126.147 101.897H148.339C149.913 101.897 151.189 100.621 151.189 99.047V84.725C151.189 83.151 149.913 81.875 148.339 81.875Z" fill="#263238"/>
<path d="M131.209 110.577C131.256 109.179 131.844 107.855 132.849 106.882C133.854 105.91 135.198 105.367 136.596 105.367C137.994 105.367 139.338 105.91 140.343 106.882C141.348 107.855 141.936 109.179 141.983 110.577H131.209Z" fill="#A1A606"/>
<path d="M143.922 108.741H133.148V110.489H154.698V109.772L143.922 108.741Z" fill="#A1A606"/>
<path opacity="0.8" d="M143.922 108.741H133.148V110.489H154.698V109.772L143.922 108.741Z" fill="white"/>
<path d="M143.922 110.489H133.148V108.741L143.922 109.772V110.489Z" fill="#A1A606"/>
<path opacity="0.6" d="M143.922 110.489H133.148V108.741L143.922 109.772V110.489Z" fill="white"/>
<path d="M167.678 170.683H145.454C145.011 170.684 144.572 170.597 144.162 170.428C143.752 170.259 143.38 170.01 143.066 169.697C142.752 169.384 142.503 169.012 142.333 168.602C142.164 168.192 142.076 167.753 142.076 167.31V116.21C142.076 115.767 142.164 115.328 142.333 114.918C142.503 114.509 142.752 114.136 143.066 113.823C143.38 113.51 143.752 113.262 144.162 113.092C144.572 112.923 145.011 112.836 145.454 112.837H167.678C167.917 112.837 168.146 112.932 168.315 113.101C168.483 113.269 168.578 113.498 168.578 113.737V113.737C168.578 113.976 168.483 114.205 168.315 114.373C168.146 114.542 167.917 114.637 167.678 114.637H145.454C145.249 114.634 145.045 114.671 144.854 114.747C144.663 114.823 144.49 114.937 144.343 115.081C144.197 115.225 144.081 115.397 144.001 115.586C143.922 115.775 143.881 115.979 143.881 116.184V167.284C143.881 167.489 143.922 167.693 144.001 167.882C144.081 168.072 144.197 168.243 144.343 168.387C144.49 168.531 144.663 168.645 144.854 168.721C145.045 168.797 145.249 168.834 145.454 168.831H167.678C167.917 168.831 168.146 168.926 168.315 169.095C168.483 169.263 168.578 169.492 168.578 169.731V169.731C168.584 169.853 168.565 169.975 168.523 170.089C168.48 170.203 168.415 170.308 168.331 170.396C168.246 170.484 168.145 170.555 168.033 170.603C167.921 170.651 167.8 170.675 167.678 170.675V170.683Z" fill="#263238"/>
<g opacity="0.5">
<path d="M167.678 170.683H145.454C145.011 170.684 144.572 170.597 144.162 170.428C143.752 170.259 143.38 170.01 143.066 169.697C142.752 169.384 142.503 169.012 142.333 168.602C142.164 168.192 142.076 167.753 142.076 167.31V116.21C142.076 115.767 142.164 115.328 142.333 114.918C142.503 114.509 142.752 114.136 143.066 113.823C143.38 113.51 143.752 113.262 144.162 113.092C144.572 112.923 145.011 112.836 145.454 112.837H167.678C167.917 112.837 168.146 112.932 168.315 113.101C168.483 113.269 168.578 113.498 168.578 113.737V113.737C168.578 113.976 168.483 114.205 168.315 114.373C168.146 114.542 167.917 114.637 167.678 114.637H145.454C145.249 114.634 145.045 114.671 144.854 114.747C144.663 114.823 144.49 114.937 144.343 115.081C144.197 115.225 144.081 115.397 144.001 115.586C143.922 115.775 143.881 115.979 143.881 116.184V167.284C143.881 167.489 143.922 167.693 144.001 167.882C144.081 168.072 144.197 168.243 144.343 168.387C144.49 168.531 144.663 168.645 144.854 168.721C145.045 168.797 145.249 168.834 145.454 168.831H167.678C167.917 168.831 168.146 168.926 168.315 169.095C168.483 169.263 168.578 169.492 168.578 169.731V169.731C168.584 169.853 168.565 169.975 168.523 170.089C168.48 170.203 168.415 170.308 168.331 170.396C168.246 170.484 168.145 170.555 168.033 170.603C167.921 170.651 167.8 170.675 167.678 170.675V170.683Z" fill="white"/>
</g>
<path d="M145.366 110.489H113.807V113.135H145.366V110.489Z" fill="#A1A606"/>
<path opacity="0.2" d="M145.366 110.489H113.807V113.135H145.366V110.489Z" fill="white"/>
<path d="M170.839 110.489H143.922V113.135H170.839V110.489Z" fill="#A1A606"/>
<path opacity="0.5" d="M170.839 110.489H143.922V113.135H170.839V110.489Z" fill="white"/>
<path d="M161.401 151.935L162.892 167.005H159.323L155.749 152.327L161.401 151.935Z" fill="#EEC1BB"/>
<path d="M158.987 166.004L163.541 166.081C163.624 166.083 163.705 166.113 163.768 166.166C163.832 166.22 163.876 166.293 163.892 166.375L164.655 170.094C164.687 170.252 164.656 170.416 164.568 170.551C164.481 170.686 164.343 170.781 164.186 170.816H164.057C162.412 170.759 160.962 170.646 158.899 170.61C156.49 170.569 157.094 170.868 154.257 170.863C152.55 170.863 152.271 168.908 152.993 168.826C156.32 168.465 156.681 167.47 157.98 166.304C158.268 166.084 158.626 165.977 158.987 166.004V166.004Z" fill="#263238"/>
<path opacity="0.1" d="M162.504 163.07L161.404 151.935L155.751 152.327L158.366 163.07H162.504Z" fill="black"/>
<path d="M185.838 117.189L171.201 117.705C171.201 117.705 151.484 124.605 150.968 129.898C150.401 135.355 157.023 160.426 157.023 160.426H162.908C162.908 160.426 161.283 142.026 160.664 136.397C160.045 130.768 181.186 132.627 184.858 127.825C188.216 123.419 185.838 117.189 185.838 117.189Z" fill="#263238"/>
<path opacity="0.2" d="M185.838 117.189L171.201 117.705C171.201 117.705 151.484 124.605 150.968 129.898C150.401 135.355 157.023 160.426 157.023 160.426H162.908C162.908 160.426 161.283 142.026 160.664 136.397C160.045 130.768 181.186 132.627 184.858 127.825C188.216 123.419 185.838 117.189 185.838 117.189Z" fill="black"/>
<path d="M163.887 159.6L164.016 161.679H156.744L156.032 159.6H163.887Z" fill="#A1A606"/>
<path d="M147.78 152.652L148.172 167.006H144.665L142.586 152.652H147.78Z" fill="#EEC1BB"/>
<path d="M144.18 166.004L148.734 166.081C148.817 166.083 148.897 166.113 148.961 166.166C149.025 166.22 149.069 166.293 149.085 166.375L149.848 170.094C149.88 170.252 149.849 170.416 149.761 170.551C149.674 170.686 149.536 170.781 149.379 170.816H149.25C147.605 170.759 146.155 170.646 144.092 170.61C141.678 170.569 142.287 170.868 139.45 170.863C137.743 170.863 137.464 168.908 138.186 168.826C141.513 168.465 141.874 167.47 143.173 166.304C143.46 166.083 143.818 165.976 144.179 166.004H144.18Z" fill="#263238"/>
<path opacity="0.1" d="M148.063 163.06L147.779 152.652H142.586L144.097 163.07C145.227 163.075 146.779 163.065 148.063 163.06Z" fill="black"/>
<path d="M179.473 118.401C179.473 118.401 180.69 129.531 169.373 130.052C158.056 130.573 149.212 131.867 148.954 135.896C148.696 139.925 148.954 160.446 148.954 160.446H142.801C142.801 160.446 140.408 147.47 139.474 139.424C138.566 131.61 136.895 125.942 144.926 123.296C153.451 120.48 168.604 117.881 168.604 117.881L179.517 117.19L179.473 118.401Z" fill="#263238"/>
<path d="M149.858 159.6L149.471 161.679H142.715L142.003 159.6H149.858Z" fill="#A1A606"/>
<path d="M181.913 86.475C181.913 86.475 181.913 83.968 176.843 84.257C171.458 84.566 172.475 86.97 172.475 86.97L181.913 86.475Z" fill="#A1A606"/>
<path opacity="0.3" d="M181.913 86.475C181.913 86.475 181.913 83.968 176.843 84.257C171.458 84.566 172.475 86.97 172.475 86.97L181.913 86.475Z" fill="black"/>
<path d="M186.637 97.714C186.297 102.67 186.415 117.581 186.415 117.581C186.415 117.581 175.584 118.293 167.084 118.014L166.1 89.335C166.104 88.828 166.26 88.334 166.549 87.9172C166.838 87.5005 167.246 87.1805 167.719 86.999C170.119 86.065 175.765 85.008 184.589 86.169C187.633 86.574 187.04 91.855 186.637 97.714Z" fill="#A1A606"/>
<path d="M167.838 97.524C167.838 97.524 163.629 107.942 159.519 109.067C155.409 110.192 149.204 109.278 149.204 109.278L147.285 109.794L145.408 109.515H145.341L143.216 109.463C143.139 109.47 143.062 109.455 142.994 109.42C142.926 109.384 142.869 109.33 142.831 109.263C142.793 109.196 142.775 109.119 142.779 109.042C142.783 108.965 142.81 108.891 142.855 108.829L143.618 107.797C143.682 107.712 143.77 107.649 143.871 107.616L145.888 106.966C145.97 106.948 146.055 106.948 146.136 106.966L149.231 107.456C149.231 107.456 157.818 106.048 158.69 105.256C159.562 104.464 162.156 96.132 162.156 96.132L167.838 97.524Z" fill="#EEC1BB"/>
<path opacity="0.1" d="M167.729 92.675C167.729 92.675 167.074 93.454 166.28 94.575L166.564 102.875C169.726 101.475 170.979 93.339 170.979 93.339L168.916 91.885L167.729 92.675Z" fill="black"/>
<path d="M170.375 87.203C167.322 86.203 163.02 88.498 161.375 98.111L167.719 99.963C167.719 99.963 174.738 88.637 170.375 87.203Z" fill="#A1A606"/>
<path d="M174.414 135.452H169.643V149.434H174.414V135.452Z" fill="#263238"/>
<path opacity="0.6" d="M174.414 135.452H169.643V149.434H174.414V135.452Z" fill="white"/>
<path d="M175.151 162.101V144.338H168.9V162.101L154.67 164.076V166.051L172.025 164.571L189.38 166.051V164.076L175.151 162.101Z" fill="#263238"/>
<path d="M154.465 170.896C155.505 170.896 156.348 170.053 156.348 169.013C156.348 167.973 155.505 167.13 154.465 167.13C153.425 167.13 152.582 167.973 152.582 169.013C152.582 170.053 153.425 170.896 154.465 170.896Z" fill="#A1A606"/>
<path d="M189.381 170.896C190.421 170.896 191.264 170.053 191.264 169.013C191.264 167.973 190.421 167.13 189.381 167.13C188.341 167.13 187.498 167.973 187.498 169.013C187.498 170.053 188.341 170.896 189.381 170.896Z" fill="#A1A606"/>
<path d="M172.026 170.896C173.066 170.896 173.909 170.053 173.909 169.013C173.909 167.973 173.066 167.13 172.026 167.13C170.986 167.13 170.143 167.973 170.143 169.013C170.143 170.053 170.986 170.896 172.026 170.896Z" fill="#A1A606"/>
<path opacity="0.3" d="M174.414 135.452H169.643V138.908H174.414V135.452Z" fill="black"/>
<path d="M190.887 103.759H175.342C174.12 103.76 172.943 104.217 172.04 105.04C171.136 105.863 170.573 106.993 170.458 108.21L169.148 122.254C169.003 123.802 168.305 125.246 167.183 126.321C166.061 127.397 164.589 128.033 163.036 128.113L148.036 128.866C147.158 128.91 146.329 129.29 145.723 129.928C145.117 130.565 144.778 131.411 144.778 132.291V132.606C144.778 133.36 145.078 134.083 145.611 134.616C146.144 135.149 146.867 135.448 147.62 135.448H193.311L195.771 109.148C195.838 108.467 195.761 107.779 195.545 107.129C195.33 106.479 194.981 105.882 194.521 105.374C194.061 104.867 193.501 104.462 192.875 104.185C192.249 103.907 191.572 103.763 190.887 103.763V103.759Z" fill="#A1A606"/>
<path opacity="0.3" d="M190.887 103.759H175.342C174.12 103.76 172.943 104.217 172.04 105.04C171.136 105.863 170.573 106.993 170.458 108.21L169.148 122.254C169.003 123.802 168.305 125.246 167.183 126.321C166.061 127.397 164.589 128.033 163.036 128.113L148.036 128.866C147.158 128.91 146.329 129.29 145.723 129.928C145.117 130.565 144.778 131.411 144.778 132.291V132.606C144.778 133.36 145.078 134.083 145.611 134.616C146.144 135.149 146.867 135.448 147.62 135.448H193.311L195.771 109.148C195.838 108.467 195.761 107.779 195.545 107.129C195.33 106.479 194.981 105.882 194.521 105.374C194.061 104.867 193.501 104.462 192.875 104.185C192.249 103.907 191.572 103.763 190.887 103.763V103.759Z" fill="white"/>
<path d="M155.207 119.582H157.347V130.782C157.347 131.056 157.238 131.318 157.044 131.511C156.851 131.704 156.589 131.813 156.315 131.813H156.238C155.965 131.813 155.702 131.704 155.509 131.511C155.316 131.318 155.207 131.055 155.207 130.782V119.582Z" fill="#263238"/>
<path opacity="0.2" d="M155.207 119.582H157.347V130.782C157.347 131.056 157.238 131.318 157.044 131.511C156.851 131.704 156.589 131.813 156.315 131.813H156.238C155.965 131.813 155.702 131.704 155.509 131.511C155.316 131.318 155.207 131.055 155.207 130.782V119.582Z" fill="white"/>
<path d="M165.527 116.369H160.767V120.315H165.538C165.805 120.327 166.071 120.285 166.321 120.191C166.571 120.097 166.799 119.954 166.992 119.77C167.185 119.585 167.338 119.364 167.443 119.118C167.548 118.873 167.602 118.609 167.602 118.342C167.602 118.075 167.548 117.811 167.443 117.566C167.338 117.32 167.185 117.099 166.992 116.914C166.799 116.73 166.571 116.587 166.321 116.493C166.071 116.399 165.805 116.357 165.538 116.369H165.527Z" fill="#A1A606"/>
<path opacity="0.5" d="M165.527 116.369H160.767V120.315H165.538C165.805 120.327 166.071 120.285 166.321 120.191C166.571 120.097 166.799 119.954 166.992 119.77C167.185 119.585 167.338 119.364 167.443 119.118C167.548 118.873 167.602 118.609 167.602 118.342C167.602 118.075 167.548 117.811 167.443 117.566C167.338 117.32 167.185 117.099 166.992 116.914C166.799 116.73 166.571 116.587 166.321 116.493C166.071 116.399 165.805 116.357 165.538 116.369H165.527Z" fill="white"/>
<path d="M163.552 116.369H147.021C145.93 116.369 145.046 117.253 145.046 118.344V118.345C145.046 119.436 145.93 120.32 147.021 120.32H163.552C164.643 120.32 165.527 119.436 165.527 118.345V118.344C165.527 117.253 164.643 116.369 163.552 116.369Z" fill="#A1A606"/>
<path opacity="0.3" d="M163.552 116.369H147.021C145.93 116.369 145.046 117.253 145.046 118.344V118.345C145.046 119.436 145.93 120.32 147.021 120.32H163.552C164.643 120.32 165.527 119.436 165.527 118.345V118.344C165.527 117.253 164.643 116.369 163.552 116.369Z" fill="white"/>
<path d="M194.383 135.451H171.53L174.078 108.235C174.193 107.018 174.756 105.888 175.659 105.065C176.563 104.242 177.74 103.785 178.962 103.784H194.507C195.19 103.785 195.865 103.928 196.489 104.204C197.113 104.48 197.673 104.884 198.133 105.388C198.592 105.893 198.942 106.488 199.158 107.136C199.375 107.783 199.454 108.468 199.391 109.148L197.168 132.948C197.095 133.635 196.77 134.271 196.256 134.734C195.742 135.196 195.075 135.451 194.383 135.451V135.451Z" fill="#A1A606"/>
<path opacity="0.5" d="M194.383 135.451H171.53L174.078 108.235C174.193 107.018 174.756 105.888 175.659 105.065C176.563 104.242 177.74 103.785 178.962 103.784H194.507C195.19 103.785 195.865 103.928 196.489 104.204C197.113 104.48 197.673 104.884 198.133 105.388C198.592 105.893 198.942 106.488 199.158 107.136C199.375 107.783 199.454 108.468 199.391 109.148L197.168 132.948C197.095 133.635 196.77 134.271 196.256 134.734C195.742 135.196 195.075 135.451 194.383 135.451V135.451Z" fill="white"/>
<path d="M140.998 170.683H118.774C118.331 170.684 117.891 170.597 117.482 170.428C117.072 170.259 116.699 170.01 116.386 169.697C116.072 169.384 115.823 169.012 115.653 168.602C115.483 168.192 115.396 167.753 115.396 167.31V116.21C115.396 115.767 115.483 115.328 115.653 114.918C115.823 114.509 116.072 114.136 116.386 113.823C116.699 113.51 117.072 113.262 117.482 113.092C117.891 112.923 118.331 112.836 118.774 112.837H140.998C141.237 112.837 141.466 112.932 141.634 113.101C141.803 113.269 141.898 113.498 141.898 113.737C141.898 113.976 141.803 114.205 141.634 114.373C141.466 114.542 141.237 114.637 140.998 114.637H118.774C118.569 114.634 118.365 114.671 118.174 114.747C117.983 114.823 117.81 114.937 117.663 115.081C117.517 115.225 117.401 115.397 117.321 115.586C117.242 115.775 117.201 115.979 117.201 116.184V167.284C117.201 167.489 117.242 167.693 117.321 167.882C117.401 168.072 117.517 168.243 117.663 168.387C117.81 168.531 117.983 168.645 118.174 168.721C118.365 168.797 118.569 168.834 118.774 168.831H140.998C141.237 168.831 141.466 168.926 141.634 169.095C141.803 169.263 141.898 169.492 141.898 169.731V169.731C141.904 169.853 141.885 169.975 141.843 170.089C141.8 170.203 141.735 170.308 141.65 170.396C141.566 170.484 141.465 170.555 141.353 170.603C141.241 170.651 141.12 170.675 140.998 170.675V170.683Z" fill="#263238"/>
<g opacity="0.5">
<path d="M140.998 170.683H118.774C118.331 170.684 117.891 170.597 117.482 170.428C117.072 170.259 116.699 170.01 116.386 169.697C116.072 169.384 115.823 169.012 115.653 168.602C115.483 168.192 115.396 167.753 115.396 167.31V116.21C115.396 115.767 115.483 115.328 115.653 114.918C115.823 114.509 116.072 114.136 116.386 113.823C116.699 113.51 117.072 113.262 117.482 113.092C117.891 112.923 118.331 112.836 118.774 112.837H140.998C141.237 112.837 141.466 112.932 141.634 113.101C141.803 113.269 141.898 113.498 141.898 113.737C141.898 113.976 141.803 114.205 141.634 114.373C141.466 114.542 141.237 114.637 140.998 114.637H118.774C118.569 114.634 118.365 114.671 118.174 114.747C117.983 114.823 117.81 114.937 117.663 115.081C117.517 115.225 117.401 115.397 117.321 115.586C117.242 115.775 117.201 115.979 117.201 116.184V167.284C117.201 167.489 117.242 167.693 117.321 167.882C117.401 168.072 117.517 168.243 117.663 168.387C117.81 168.531 117.983 168.645 118.174 168.721C118.365 168.797 118.569 168.834 118.774 168.831H140.998C141.237 168.831 141.466 168.926 141.634 169.095C141.803 169.263 141.898 169.492 141.898 169.731V169.731C141.904 169.853 141.885 169.975 141.843 170.089C141.8 170.203 141.735 170.308 141.65 170.396C141.566 170.484 141.465 170.555 141.353 170.603C141.241 170.651 141.12 170.675 140.998 170.675V170.683Z" fill="white"/>
</g>
<path d="M126.309 85.95L124.762 84.918C124.723 84.8929 124.69 84.8583 124.668 84.8173C124.645 84.7763 124.633 84.7303 124.633 84.6835C124.633 84.6368 124.645 84.5908 124.668 84.5498C124.69 84.5088 124.723 84.4741 124.762 84.449L126.309 83.417C126.366 83.3797 126.435 83.3663 126.502 83.3798C126.568 83.3933 126.627 83.4325 126.665 83.489V83.489C126.701 83.5455 126.713 83.6136 126.7 83.6791C126.686 83.7445 126.648 83.8022 126.593 83.84L125.309 84.691L126.593 85.542C126.648 85.5798 126.686 85.6375 126.7 85.703C126.713 85.7685 126.701 85.8366 126.665 85.893C126.624 85.9461 126.564 85.9815 126.498 85.9921C126.432 86.0027 126.364 85.9877 126.309 85.95Z" fill="white"/>
<path d="M129.733 85.877C129.703 85.8205 129.695 85.7543 129.711 85.6921C129.727 85.6299 129.767 85.5762 129.821 85.542L131.105 84.691L129.821 83.825C129.766 83.7873 129.728 83.7292 129.715 83.6634C129.703 83.5976 129.717 83.5295 129.754 83.474V83.474C129.773 83.4462 129.796 83.4223 129.824 83.4036C129.851 83.3849 129.882 83.3719 129.915 83.3652C129.947 83.3585 129.981 83.3583 130.014 83.3646C130.046 83.371 130.077 83.3837 130.105 83.402L131.652 84.434C131.692 84.4591 131.724 84.4938 131.747 84.5348C131.769 84.5758 131.781 84.6218 131.781 84.6685C131.781 84.7153 131.769 84.7613 131.747 84.8023C131.724 84.8433 131.692 84.8779 131.652 84.903L130.105 85.935C130.078 85.9566 130.046 85.9724 130.012 85.9812C129.978 85.9901 129.942 85.9919 129.907 85.9866C129.873 85.9812 129.839 85.9688 129.81 85.9502C129.78 85.9315 129.754 85.907 129.734 85.878L129.733 85.877Z" fill="white"/>
<path d="M127.613 86.573C127.581 86.563 127.551 86.5468 127.526 86.5252C127.5 86.5037 127.479 86.4773 127.464 86.4475C127.448 86.4177 127.439 86.3852 127.436 86.3518C127.434 86.3184 127.438 86.2849 127.448 86.253L128.516 82.88C128.525 82.8483 128.541 82.8187 128.562 82.7931C128.583 82.7675 128.609 82.7464 128.639 82.731C128.668 82.7156 128.7 82.7063 128.733 82.7035C128.766 82.7008 128.8 82.7047 128.831 82.715V82.715C128.863 82.7245 128.892 82.7402 128.918 82.7613C128.944 82.7823 128.965 82.8083 128.98 82.8377C128.995 82.867 129.005 82.8992 129.008 82.9322C129.01 82.9653 129.006 82.9985 128.996 83.03L127.934 86.408C127.924 86.44 127.908 86.4697 127.886 86.4953C127.865 86.5209 127.838 86.542 127.809 86.5574C127.779 86.5727 127.746 86.582 127.713 86.5847C127.679 86.5874 127.646 86.5834 127.614 86.573H127.613Z" fill="white"/>
<path d="M136.371 89.156H124.885C124.85 89.156 124.816 89.1491 124.783 89.1355C124.751 89.122 124.722 89.1022 124.697 89.0772C124.673 89.0523 124.654 89.0227 124.641 88.9902C124.628 88.9577 124.621 88.923 124.622 88.888V88.888C124.621 88.8531 124.628 88.8183 124.641 88.7859C124.654 88.7534 124.673 88.7238 124.697 88.6988C124.722 88.6739 124.751 88.654 124.783 88.6405C124.816 88.627 124.85 88.62 124.885 88.62H136.371C136.442 88.62 136.51 88.6483 136.561 88.6985C136.611 88.7488 136.639 88.817 136.639 88.888V88.888C136.639 88.9591 136.611 89.0273 136.561 89.0775C136.51 89.1278 136.442 89.156 136.371 89.156Z" fill="white"/>
<path d="M149.564 89.153H138.073C138.002 89.153 137.934 89.1248 137.884 89.0745C137.833 89.0243 137.805 88.9561 137.805 88.885V88.885C137.81 88.8175 137.841 88.7543 137.89 88.7083C137.94 88.6623 138.005 88.6368 138.073 88.637H149.554C149.625 88.637 149.693 88.6653 149.744 88.7155C149.794 88.7658 149.822 88.834 149.822 88.905V88.905C149.817 88.9709 149.788 89.0326 149.741 89.0784C149.693 89.1242 149.63 89.1507 149.564 89.153V89.153Z" fill="white"/>
<path d="M131.451 91.514H124.885C124.85 91.514 124.816 91.5071 124.783 91.4935C124.751 91.48 124.722 91.4602 124.697 91.4352C124.673 91.4103 124.654 91.3807 124.641 91.3482C124.628 91.3157 124.621 91.281 124.622 91.246V91.246C124.622 91.1763 124.65 91.1094 124.699 91.0601C124.748 91.0107 124.815 90.983 124.885 90.983H131.451C131.521 90.983 131.589 91.0106 131.639 91.0598C131.689 91.1089 131.718 91.1758 131.719 91.246C131.719 91.3171 131.691 91.3853 131.641 91.4355C131.59 91.4858 131.522 91.514 131.451 91.514Z" fill="white"/>
<path d="M143.912 91.514H133.158C133.123 91.514 133.088 91.5071 133.056 91.4935C133.024 91.48 132.995 91.4602 132.97 91.4352C132.946 91.4103 132.927 91.3807 132.914 91.3482C132.901 91.3157 132.894 91.281 132.895 91.246V91.246C132.895 91.1763 132.923 91.1094 132.972 91.0601C133.021 91.0107 133.088 90.983 133.158 90.983H143.912C143.982 90.983 144.049 91.0107 144.098 91.0601C144.147 91.1094 144.175 91.1763 144.175 91.246C144.176 91.281 144.169 91.3157 144.157 91.3482C144.144 91.3807 144.124 91.4103 144.1 91.4352C144.075 91.4602 144.046 91.48 144.014 91.4935C143.982 91.5071 143.947 91.514 143.912 91.514V91.514Z" fill="white"/>
<path d="M142.379 93.882H124.885C124.815 93.8807 124.748 93.8519 124.699 93.8018C124.65 93.7517 124.622 93.6843 124.622 93.614V93.614C124.621 93.5791 124.628 93.5443 124.641 93.5118C124.654 93.4794 124.673 93.4498 124.697 93.4248C124.722 93.3999 124.751 93.38 124.783 93.3665C124.816 93.353 124.85 93.346 124.885 93.346H142.379C142.45 93.346 142.518 93.3743 142.569 93.4245C142.619 93.4748 142.647 93.543 142.647 93.614V93.614C142.647 93.6851 142.619 93.7533 142.569 93.8035C142.518 93.8538 142.45 93.882 142.379 93.882V93.882Z" fill="white"/>
<path d="M147.744 93.882H144.092C144.021 93.882 143.953 93.8538 143.903 93.8035C143.852 93.7533 143.824 93.6851 143.824 93.614C143.824 93.543 143.852 93.4748 143.903 93.4245C143.953 93.3743 144.021 93.346 144.092 93.346H147.744C147.815 93.346 147.883 93.3743 147.934 93.4245C147.984 93.4748 148.012 93.543 148.012 93.614V93.614C148.012 93.6851 147.984 93.7533 147.934 93.8035C147.883 93.8538 147.815 93.882 147.744 93.882V93.882Z" fill="white"/>
<path d="M133.055 96.244H124.885C124.85 96.244 124.816 96.2371 124.783 96.2236C124.751 96.21 124.722 96.1902 124.697 96.1652C124.673 96.1403 124.654 96.1107 124.641 96.0782C124.628 96.0457 124.621 96.011 124.622 95.976V95.976C124.621 95.9411 124.628 95.9063 124.641 95.8739C124.654 95.8414 124.673 95.8118 124.697 95.7868C124.722 95.7619 124.751 95.7421 124.783 95.7285C124.816 95.715 124.85 95.708 124.885 95.708H133.055C133.126 95.708 133.194 95.7363 133.245 95.7865C133.295 95.8368 133.323 95.905 133.323 95.976C133.323 96.0471 133.295 96.1153 133.245 96.1655C133.194 96.2158 133.126 96.244 133.055 96.244Z" fill="white"/>
<path d="M144.929 96.244H134.767C134.696 96.244 134.628 96.2158 134.578 96.1655C134.527 96.1153 134.499 96.0471 134.499 95.976V95.976C134.499 95.905 134.527 95.8368 134.578 95.7865C134.628 95.7363 134.696 95.708 134.767 95.708H144.929C145 95.708 145.068 95.7363 145.119 95.7865C145.169 95.8368 145.197 95.905 145.197 95.976V95.976C145.197 96.0471 145.169 96.1153 145.119 96.1655C145.068 96.2158 145 96.244 144.929 96.244V96.244Z" fill="white"/>
<path d="M136.371 98.606H124.885C124.85 98.606 124.816 98.5991 124.783 98.5855C124.751 98.572 124.722 98.5522 124.697 98.5272C124.673 98.5023 124.654 98.4727 124.641 98.4402C124.628 98.4077 124.621 98.373 124.622 98.338V98.338C124.622 98.2682 124.65 98.2014 124.699 98.1521C124.748 98.1027 124.815 98.075 124.885 98.075H136.371C136.406 98.0743 136.441 98.0807 136.473 98.0936C136.506 98.1065 136.535 98.1258 136.56 98.1503C136.585 98.1747 136.605 98.204 136.619 98.2362C136.632 98.2684 136.639 98.303 136.639 98.338V98.338C136.639 98.4091 136.611 98.4773 136.561 98.5275C136.51 98.5778 136.442 98.606 136.371 98.606V98.606Z" fill="white"/>
<path d="M146.186 98.606H138.073C138.002 98.606 137.934 98.5778 137.884 98.5275C137.833 98.4773 137.805 98.4091 137.805 98.338V98.338C137.805 98.303 137.812 98.2684 137.826 98.2362C137.839 98.204 137.859 98.1747 137.884 98.1503C137.909 98.1258 137.938 98.1065 137.971 98.0936C138.003 98.0807 138.038 98.0743 138.073 98.075H146.173C146.243 98.075 146.31 98.1027 146.359 98.1521C146.408 98.2014 146.436 98.2682 146.436 98.338V98.338C146.438 98.4064 146.412 98.4727 146.366 98.5227C146.319 98.5728 146.255 98.6026 146.186 98.606Z" fill="white"/>
<path d="M46.5107 52.441C46.7217 54.87 46.1957 59.27 44.3647 60.693C47.5058 61.7582 50.3207 63.612 52.5397 66.077C54.5457 63.158 52.2668 61.492 52.2668 61.492C49.6878 60.574 49.9618 58.619 50.6268 56.819L46.5107 52.441Z" fill="#B97964"/>
<path d="M56.2781 50.348C56.2471 50.648 56.3911 50.915 56.5931 50.936C56.7951 50.957 56.9751 50.719 57.0061 50.42C57.0371 50.121 56.8931 49.853 56.6911 49.832C56.4891 49.811 56.3101 50.043 56.2781 50.348Z" fill="#263238"/>
<path d="M56.6089 49.836L57.3569 49.692C57.3569 49.692 56.9289 50.244 56.6089 49.836Z" fill="#263238"/>
<path d="M56.3768 50.672C56.5874 51.3975 56.8945 52.0913 57.2898 52.735C57.1224 52.8312 56.9361 52.8899 56.7437 52.9072C56.5514 52.9245 56.3577 52.8998 56.1758 52.835L56.3768 50.672Z" fill="#A24E3F"/>
<path d="M57.1401 48.743C57.1879 48.7355 57.2316 48.7119 57.2641 48.676C57.296 48.6416 57.3137 48.5965 57.3137 48.5495C57.3137 48.5026 57.296 48.4574 57.2641 48.423C57.0518 48.2297 56.7963 48.09 56.519 48.0156C56.2417 47.9411 55.9507 47.9341 55.6701 47.995C55.6305 48.0223 55.6026 48.0635 55.5921 48.1104C55.5815 48.1573 55.589 48.2064 55.6131 48.248C55.6289 48.2747 55.6517 48.2965 55.679 48.3111C55.7064 48.3258 55.7372 48.3326 55.7681 48.331C55.991 48.2885 56.2208 48.2986 56.4392 48.3604C56.6576 48.4222 56.8585 48.534 57.0261 48.687C57.0563 48.7185 57.0967 48.7383 57.1401 48.743V48.743Z" fill="#263238"/>
<path d="M46.2679 48.408C46.1489 52.178 46.0199 53.782 47.7019 55.886C50.2339 59.048 54.8189 58.356 56.0469 54.686C57.1469 51.38 57.1609 45.748 53.6899 43.922C52.9179 43.5149 52.0538 43.3143 51.1814 43.3397C50.3089 43.3652 49.4579 43.6158 48.711 44.0672C47.964 44.5187 47.3466 45.1557 46.9185 45.9163C46.4904 46.6769 46.2663 47.5352 46.2679 48.408V48.408Z" fill="#B97964"/>
<path d="M46.4341 55.53C42.7261 54.896 43.7881 52.559 43.7881 52.559C40.1361 51.821 42.9581 50.037 42.9581 50.037C39.9201 48.727 42.9581 47.551 42.9581 47.551C40.0281 45.122 44.2061 44.281 44.2061 44.281C43.1741 40.49 46.7851 42.048 46.7851 42.048C48.7451 38.788 50.4371 41.898 50.4371 41.898C53.8721 37.256 54.7071 41.171 54.7071 41.171C58.2191 40.248 56.8731 43.941 56.8731 43.941C59.7611 44.715 57.4921 46.179 57.4921 46.179C58.6061 47.587 54.5781 47.829 54.5781 47.829C54.5781 47.829 56.4971 50.924 54.5781 51.775L49.6991 55.514C49.6991 55.514 47.4451 54.597 46.4341 55.53Z" fill="#263238"/>
<path d="M50.0801 52.487C50.0801 52.487 52.6591 46.298 50.6421 41.017L52.3421 40.434C52.3421 40.434 54.5671 48.114 50.0801 52.487Z" fill="#A1A606"/>
<path d="M52.6569 51.807C53.0799 52.694 53.2449 53.081 53.8569 53.354C54.0446 53.4637 54.2607 53.5152 54.4778 53.5022C54.6948 53.4891 54.9031 53.412 55.0764 53.2806C55.2496 53.1492 55.38 52.9693 55.4511 52.7639C55.5222 52.5584 55.5308 52.3364 55.4759 52.126C55.3159 51.239 54.6349 49.934 53.6909 49.908C53.4699 49.9091 53.2533 49.9695 53.0637 50.083C52.8741 50.1964 52.7185 50.3588 52.6131 50.5529C52.5078 50.7471 52.4565 50.9661 52.4647 51.1869C52.4729 51.4077 52.5403 51.6222 52.6599 51.808L52.6569 51.807Z" fill="#B97964"/>
<path d="M49.9869 64.69C49.9869 64.69 53.4789 67.269 54.8969 68.3L64.9969 63.534C64.9823 62.974 65.1367 62.4226 65.4399 61.9516C65.7431 61.4806 66.1811 61.1117 66.6969 60.893L67.4189 60.593L68.9399 59.912C69.2235 59.7854 69.5355 59.736 69.8444 59.7686C70.1532 59.8013 70.448 59.9149 70.6989 60.098V60.098C70.9936 60.3128 71.2147 60.6135 71.3319 60.9588C71.4492 61.3041 71.4568 61.6772 71.3539 62.027C71.1415 62.752 70.7446 63.4096 70.2022 63.9354C69.6597 64.4612 68.9901 64.8373 68.2589 65.027L66.7839 65.414C66.7839 65.414 58.1239 71.974 55.0299 72.129C51.9359 72.284 47.4019 69.246 47.4019 69.246L49.9869 64.69Z" fill="#B97964"/>
<path d="M41.5897 60.342C44.2557 60.342 47.2377 62.003 51.9047 65.042C51.2345 67.2357 49.9878 69.2094 48.2947 70.757C48.2947 70.757 45.7157 70.066 42.2947 66.842C38.1657 62.941 39.9547 60.347 41.5897 60.342Z" fill="#263238"/>
<path d="M92.2371 68.069H66.9671C66.7544 68.0725 66.5435 68.0308 66.3482 67.9465C66.1529 67.8623 65.9778 67.7375 65.8345 67.5804C65.6911 67.4234 65.5828 67.2376 65.5167 67.0355C65.4506 66.8333 65.4282 66.6195 65.4511 66.408L67.3511 44.653C67.3963 44.2032 67.6051 43.7855 67.9378 43.4794C68.2705 43.1732 68.704 42.9998 69.1561 42.992H94.4281C94.6403 42.9892 94.8507 43.0315 95.0453 43.1161C95.24 43.2006 95.4145 43.3255 95.5573 43.4825C95.7001 43.6395 95.808 43.825 95.8738 44.0268C95.9396 44.2286 95.9619 44.442 95.9391 44.653L94.0391 66.408C93.9939 66.8574 93.7855 67.2746 93.4535 67.5807C93.1214 67.8868 92.6886 68.0605 92.2371 68.069V68.069Z" fill="#A1A606"/>
<path opacity="0.4" d="M92.2371 68.069H66.9671C66.7544 68.0725 66.5435 68.0308 66.3482 67.9465C66.1529 67.8623 65.9778 67.7375 65.8345 67.5804C65.6911 67.4234 65.5828 67.2376 65.5167 67.0355C65.4506 66.8333 65.4282 66.6195 65.4511 66.408L67.3511 44.653C67.3963 44.2032 67.6051 43.7855 67.9378 43.4794C68.2705 43.1732 68.704 42.9998 69.1561 42.992H94.4281C94.6403 42.9892 94.8507 43.0315 95.0453 43.1161C95.24 43.2006 95.4145 43.3255 95.5573 43.4825C95.7001 43.6395 95.808 43.825 95.8738 44.0268C95.9396 44.2286 95.9619 44.442 95.9391 44.653L94.0391 66.408C93.9939 66.8574 93.7855 67.2746 93.4535 67.5807C93.1214 67.8868 92.6886 68.0605 92.2371 68.069V68.069Z" fill="white"/>
<path opacity="0.7" d="M92.3299 67.037C92.5006 67.0333 92.664 66.9673 92.7894 66.8514C92.9148 66.7356 92.9936 66.5779 93.0109 66.408L94.9109 44.653C94.9197 44.5731 94.9114 44.4922 94.8865 44.4157C94.8617 44.3393 94.8209 44.269 94.7668 44.2095C94.7127 44.15 94.6465 44.1027 94.5728 44.0707C94.499 44.0387 94.4193 44.0228 94.3389 44.024H69.0699C68.8983 44.0266 68.7337 44.092 68.6072 44.208C68.4807 44.324 68.4013 44.4823 68.3839 44.653L66.4839 66.408C66.4751 66.4879 66.4834 66.5688 66.5082 66.6453C66.5331 66.7217 66.5739 66.7921 66.628 66.8515C66.6821 66.911 66.7482 66.9583 66.822 66.9903C66.8957 67.0223 66.9755 67.0382 67.0559 67.037H92.3299Z" fill="white"/>
<path d="M74.7691 54.246L66.5171 66.191V66.408C66.5083 66.4879 66.5166 66.5688 66.5414 66.6453C66.5663 66.7218 66.6071 66.7921 66.6612 66.8516C66.7153 66.911 66.7814 66.9584 66.8552 66.9903C66.929 67.0223 67.0087 67.0382 67.0891 67.037H81.4061L74.7691 54.246Z" fill="#A1A606"/>
<path opacity="0.3" d="M74.7691 54.246L66.5171 66.191V66.408C66.5083 66.4879 66.5166 66.5688 66.5414 66.6453C66.5663 66.7218 66.6071 66.7921 66.6612 66.8516C66.7153 66.911 66.7814 66.9584 66.8552 66.9903C66.929 67.0223 67.0087 67.0382 67.0891 67.037H81.4061L74.7691 54.246Z" fill="white"/>
<path d="M93.0828 65.577L86.1668 52.441L75.9238 67.041H92.3298C92.5005 67.0373 92.6639 66.9713 92.7894 66.8554C92.9148 66.7396 92.9936 66.5819 93.0108 66.412L93.0828 65.577Z" fill="#A1A606"/>
<path d="M83.4957 50.12C83.4326 50.7487 83.1409 51.3322 82.676 51.7601C82.2111 52.1879 81.6054 52.4302 80.9737 52.441C80.6763 52.4465 80.3812 52.3885 80.108 52.271C79.8348 52.1535 79.5898 51.9792 79.3892 51.7596C79.1886 51.54 79.0371 51.2802 78.9448 50.9975C78.8525 50.7148 78.8214 50.4157 78.8537 50.12C78.9156 49.4905 79.2068 48.9057 79.6718 48.4768C80.1368 48.048 80.7432 47.805 81.3757 47.794C81.6735 47.7885 81.9691 47.8465 82.2427 47.9643C82.5163 48.0821 82.7616 48.2569 82.9623 48.4771C83.1629 48.6972 83.3143 48.9577 83.4063 49.241C83.4983 49.5243 83.5287 49.824 83.4957 50.12V50.12Z" fill="#A1A606"/>
<path opacity="0.4" d="M83.4957 50.12C83.4326 50.7487 83.1409 51.3322 82.676 51.7601C82.2111 52.1879 81.6054 52.4302 80.9737 52.441C80.6763 52.4465 80.3812 52.3885 80.108 52.271C79.8348 52.1535 79.5898 51.9792 79.3892 51.7596C79.1886 51.54 79.0371 51.2802 78.9448 50.9975C78.8525 50.7148 78.8214 50.4157 78.8537 50.12C78.9156 49.4905 79.2068 48.9057 79.6718 48.4768C80.1368 48.048 80.7432 47.805 81.3757 47.794C81.6735 47.7885 81.9691 47.8465 82.2427 47.9643C82.5163 48.0821 82.7616 48.2569 82.9623 48.4771C83.1629 48.6972 83.3143 48.9577 83.4063 49.241C83.4983 49.5243 83.5287 49.824 83.4957 50.12V50.12Z" fill="white"/>
<path d="M20.4288 155.876L17.8608 163.489L21.7958 165.098L24.8748 158.073L20.4288 155.876Z" fill="#B97964"/>
<path d="M23.2088 164.906C23.1885 164.894 23.172 164.876 23.1611 164.855C23.1501 164.834 23.1452 164.811 23.1468 164.787C23.1496 164.764 23.1597 164.743 23.1755 164.726C23.1913 164.709 23.2121 164.698 23.2348 164.694C23.3178 164.694 25.1738 164.261 25.8648 164.694C25.9955 164.774 26.0898 164.902 26.1278 165.05C26.1566 165.132 26.1592 165.222 26.1352 165.306C26.1112 165.39 26.0618 165.464 25.9938 165.519C25.5223 165.675 25.0097 165.651 24.5548 165.452C24.0913 165.309 23.641 165.126 23.2088 164.906V164.906ZM23.6008 164.87C24.4108 165.231 25.5558 165.577 25.8548 165.35C25.8958 165.319 25.9478 165.267 25.9068 165.108C25.8988 165.061 25.8797 165.017 25.8509 164.979C25.8222 164.941 25.7848 164.911 25.7418 164.891C25.6797 164.852 25.6124 164.822 25.5418 164.803C24.8963 164.703 24.2376 164.726 23.6008 164.871V164.87Z" fill="#A1A606"/>
<path d="M23.1528 164.881C23.1429 164.864 23.1377 164.844 23.1377 164.825C23.1377 164.805 23.1429 164.785 23.1528 164.768C23.3881 164.131 23.8244 163.588 24.3958 163.221C24.4996 163.178 24.6109 163.155 24.7233 163.155C24.8358 163.155 24.9471 163.178 25.0508 163.221C25.3348 163.34 25.3808 163.521 25.3508 163.644C25.2888 164.186 23.8968 164.83 23.2878 164.902C23.2807 164.906 23.2728 164.908 23.2648 164.908C23.2568 164.908 23.249 164.906 23.2418 164.902C23.2258 164.907 23.2089 164.907 23.1927 164.903C23.1764 164.9 23.1614 164.892 23.1488 164.881H23.1528ZM24.9008 163.421C24.7675 163.372 24.6212 163.372 24.4878 163.421C24.0288 163.706 23.6685 164.125 23.4558 164.621C24.1208 164.461 25.0698 163.914 25.1368 163.59C25.1368 163.559 25.1368 163.477 24.9618 163.404H24.8998L24.9008 163.421Z" fill="#A1A606"/>
<path d="M22.9409 164.128L17.9999 162.581C17.9094 162.553 17.8121 162.557 17.724 162.592C17.6359 162.626 17.5622 162.69 17.5149 162.772L15.3799 166.516C15.3338 166.595 15.3037 166.682 15.2914 166.773C15.2792 166.863 15.2849 166.955 15.3085 167.043C15.332 167.132 15.3728 167.214 15.4285 167.287C15.4842 167.359 15.5537 167.42 15.6329 167.465C15.675 167.491 15.72 167.512 15.7669 167.527C17.5569 168.043 19.1669 168.435 21.3889 169.127C24.0089 169.927 23.2459 170.04 26.3089 171.035C28.1549 171.635 29.1459 169.627 28.3719 169.281C24.9109 167.734 24.8719 166.517 23.8849 164.799C23.6608 164.47 23.3258 164.232 22.9409 164.129V164.128Z" fill="#263238"/>
<path opacity="0.2" d="M19.1958 159.528L23.3218 161.612L24.8738 158.074L20.4278 155.874L19.1958 159.528Z" fill="#263238"/>
<path d="M37.8719 85.465C37.8719 85.465 32.3279 89.699 33.5139 102.965C33.753 104.26 33.9252 105.567 34.0299 106.88C33.9084 108.119 33.7208 109.35 33.4679 110.568C33.0239 113.621 32.2099 125.009 31.3479 126.489C30.4859 127.969 30.1359 127.706 27.7379 131.789C25.1589 136.183 21.8069 143.889 19.2129 156.948C20.946 158.171 22.9256 159 25.0129 159.377C25.0129 159.377 39.1719 137.035 42.1889 128.715C44.8889 121.273 48.0999 97.522 48.0999 97.522L48.3579 87.207L37.8719 85.465Z" fill="#A1A606"/>
<path opacity="0.1" d="M43.9369 102.965H39.9239C39.9239 102.965 38.6039 115.591 42.9669 126.122C43.4209 124.43 43.8799 122.403 44.3289 120.211L46.0669 109.091C45.8189 107.214 45.6289 105.78 45.5979 105.691C45.5099 105.394 43.9369 102.965 43.9369 102.965Z" fill="black"/>
<path d="M43.2769 158.94L43.3029 167.032L47.8669 166.732L48.5669 158.944L43.2769 158.94Z" fill="#B97964"/>
<path d="M48.3932 166.588C48.3706 166.584 48.3496 166.574 48.3332 166.558C48.3167 166.542 48.3054 166.522 48.301 166.499C48.2965 166.477 48.299 166.454 48.3082 166.433C48.3173 166.412 48.3327 166.394 48.3522 166.382C48.4242 166.341 50.0392 165.351 50.8382 165.526C50.9873 165.559 51.1182 165.648 51.2042 165.774C51.2576 165.843 51.2886 165.927 51.2933 166.015C51.2979 166.102 51.2759 166.189 51.2302 166.264C50.8334 166.561 50.3428 166.706 49.8482 166.671C49.3617 166.687 48.8747 166.66 48.3932 166.588V166.588ZM48.7542 166.428C49.6362 166.505 50.8172 166.454 51.0392 166.139C51.0702 166.098 51.0962 166.031 51.0082 165.891C50.9843 165.85 50.9514 165.816 50.9121 165.79C50.8727 165.764 50.8279 165.747 50.7812 165.741C50.7112 165.731 50.6401 165.731 50.5702 165.741C49.9262 165.849 49.3096 166.082 48.7552 166.427L48.7542 166.428Z" fill="#A1A606"/>
<path d="M48.3319 166.589C48.315 166.578 48.301 166.563 48.2911 166.546C48.2812 166.529 48.2756 166.509 48.2749 166.489C48.2969 165.815 48.5314 165.165 48.9449 164.632C49.0279 164.556 49.1256 164.497 49.2321 164.46C49.3385 164.422 49.4514 164.407 49.5639 164.415C49.8729 164.415 49.9769 164.59 49.9919 164.715C50.1109 165.231 49.0119 166.309 48.4449 166.582C48.43 166.587 48.4138 166.587 48.3989 166.582C48.3778 166.591 48.3542 166.593 48.3319 166.587V166.589ZM49.4979 164.629C49.3559 164.632 49.2199 164.687 49.1159 164.784C48.7756 165.204 48.5737 165.719 48.5379 166.259C49.1099 165.893 49.8269 165.059 49.7859 164.743C49.7859 164.712 49.7599 164.63 49.5589 164.619H49.4969L49.4979 164.629Z" fill="#A1A606"/>
<path d="M47.8882 165.944L42.7301 166.13C42.6361 166.134 42.5462 166.17 42.475 166.232C42.4039 166.294 42.3556 166.377 42.3382 166.47L41.5542 170.71C41.5369 170.799 41.5373 170.891 41.5554 170.98C41.5736 171.069 41.6091 171.153 41.6599 171.228C41.7106 171.304 41.7758 171.368 41.8515 171.418C41.9272 171.468 42.012 171.503 42.1012 171.52C42.151 171.525 42.2013 171.525 42.2511 171.52C44.1131 171.42 45.7632 171.257 48.0842 171.18C50.8232 171.08 50.1472 171.433 53.3602 171.366C55.3042 171.32 55.5781 169.102 54.7531 169.024C50.9721 168.684 50.5391 167.559 49.0381 166.265C48.7077 166.02 48.2979 165.905 47.8882 165.945V165.944Z" fill="#263238"/>
<path opacity="0.2" d="M43.2919 163.13L48.2019 163.03L48.5679 158.945H43.2769L43.2919 163.13Z" fill="#263238"/>
<path d="M40.9608 83.995C40.9608 83.995 35.4268 91.324 39.5268 105.657L44.1688 126.592C44.1688 126.592 39.7688 136.113 42.1058 161.23C44.3754 161.549 46.6819 161.496 48.9348 161.075C48.9348 161.075 54.0928 134.55 54.8708 125.591C55.7318 115.719 55.2168 85.965 55.2168 85.965L40.9608 83.995Z" fill="#A1A606"/>
<path d="M44.3041 60.24C44.3041 60.24 43.4481 56.578 48.9461 58.177C54.4441 59.776 53.9801 62.906 53.9801 62.906L44.3041 60.24Z" fill="#263238"/>
<path opacity="0.4" d="M44.3041 60.24C44.3041 60.24 43.4481 56.578 48.9461 58.177C54.4441 59.776 53.9801 62.906 53.9801 62.906L44.3041 60.24Z" fill="black"/>
<path d="M57.938 69.4C57.7702 71.1699 57.4244 72.9185 56.906 74.619C56.669 75.604 56.452 76.63 56.306 77.672C55.527 83.345 55.274 89.323 55.274 89.323C52.2389 89.9851 49.1 90.0149 46.0529 89.4107C43.0058 88.8065 40.1158 87.5811 37.563 85.811C37.563 85.811 39.724 83.98 39.28 71.298C39.08 65.583 37.016 58.791 46.459 59.859C54.433 60.759 57.115 63.237 57.759 67.111V67.261L57.805 67.622C57.8843 68.2116 57.9287 68.8053 57.938 69.4V69.4Z" fill="#263238"/>
<path opacity="0.4" d="M57.9398 69.399C57.772 71.1689 57.4263 72.9174 56.9078 74.618C55.2027 72.2976 53.7552 69.7986 52.5908 67.165L54.3698 64.545L57.5058 66.005C57.6141 66.3661 57.7002 66.7335 57.7638 67.105C57.7638 67.151 57.7638 67.205 57.7638 67.255L57.8098 67.616C57.8883 68.2073 57.9317 68.8027 57.9398 69.399V69.399Z" fill="black"/>
<path d="M61.2249 67.16C61.2249 67.16 64.3199 70.213 65.5419 71.441L76.2419 68.233C76.3126 67.6802 76.5467 67.161 76.9143 66.742C77.2818 66.323 77.766 66.0232 78.3049 65.881L79.0579 65.681L80.6669 65.237C80.9666 65.1559 81.2823 65.1547 81.5827 65.2335C81.883 65.3123 82.1575 65.4683 82.3789 65.686V65.686C82.638 65.9415 82.8117 66.2708 82.8764 66.6288C82.941 66.9868 82.8933 67.3561 82.7399 67.686V67.686C82.4215 68.3715 81.9312 68.9631 81.3167 69.4032C80.7023 69.8434 79.9844 70.1172 79.2329 70.198L77.7169 70.358C77.7169 70.358 68.1699 75.572 65.0959 75.283C62.0219 74.994 57.9839 71.296 57.9839 71.296L61.2249 67.16Z" fill="#B97964"/>
<path d="M53.5408 61.606C56.1818 61.993 58.8788 64.092 63.0668 67.795C62.0747 69.8662 60.5448 71.633 58.6368 72.911C58.6368 72.911 56.1968 71.843 53.2888 68.145C49.7708 63.669 51.9418 61.369 53.5408 61.606Z" fill="#263238"/>
</svg>
