<svg width="200" height="200" viewBox="0 0 200 200" fill="none" xmlns="http://www.w3.org/2000/svg">
<path d="M60.1259 86.578H27.9009V111.435H60.1259V86.578Z" fill="#A53DFF"/>
<path opacity="0.3" d="M60.1259 86.578H27.9009V111.435H60.1259V86.578Z" fill="black"/>
<path d="M52.0528 111.259C52.0248 111.259 51.9998 105.719 51.9998 98.886C51.9998 92.053 52.0248 86.513 52.0528 86.513C52.0808 86.513 52.1058 92.053 52.1058 98.886C52.1058 105.719 52.0798 111.259 52.0528 111.259Z" fill="#263238"/>
<path d="M57.3958 105.778H54.9238V108.571H57.3958V105.778Z" fill="#F5F5F5"/>
<path d="M41.3897 86.643H37.7307V91.948H41.3897V86.643Z" fill="#263238"/>
<path d="M41.3897 106.056H37.7307V111.361H41.3897V106.056Z" fill="#263238"/>
<path d="M59.8477 86.579H58.5947L55.1707 86.594H32.5807L29.1597 86.575L32.5807 86.56H55.1707L58.5947 86.575H59.7637L59.8477 86.579Z" fill="#263238"/>
<path d="M86.9538 86.547H54.7288V111.404H86.9538V86.547Z" fill="#A53DFF"/>
<path d="M78.8806 111.228C78.8526 111.228 78.8276 105.688 78.8276 98.855C78.8276 92.022 78.8526 86.482 78.8806 86.482C78.9086 86.482 78.9337 92.019 78.9337 98.855C78.9337 105.691 78.8986 111.228 78.8806 111.228Z" fill="#263238"/>
<path d="M84.223 105.747H81.751V108.54H84.223V105.747Z" fill="#F5F5F5"/>
<path opacity="0.5" d="M68.2178 86.612H64.5588V91.917H68.2178V86.612Z" fill="white"/>
<path opacity="0.5" d="M68.2178 106.025H64.5588V111.33H68.2178V106.025Z" fill="white"/>
<path d="M86.6729 86.547H85.4199L81.9989 86.562H59.4089L55.9849 86.547L59.4089 86.528L70.7089 86.513L82.0019 86.528L85.4229 86.547H86.6759H86.6729Z" fill="#263238"/>
<path d="M88.7628 61.69H56.5378V86.547H88.7628V61.69Z" fill="#A53DFF"/>
<path d="M80.6907 86.371C80.6597 86.371 80.6377 80.831 80.6377 73.998C80.6377 67.165 80.6597 61.625 80.6907 61.625C80.7217 61.625 80.7437 67.162 80.7437 73.998C80.7437 80.834 80.7177 86.371 80.6907 86.371Z" fill="#263238"/>
<path d="M86.0325 80.89H83.5605V83.683H86.0325V80.89Z" fill="#F5F5F5"/>
<path d="M70.0277 61.755H66.3687V67.06H70.0277V61.755Z" fill="#263238"/>
<path d="M70.0277 81.168H66.3687V86.473H70.0277V81.168Z" fill="#263238"/>
<path d="M88.4877 61.678C88.4613 61.6826 88.4342 61.6826 88.4078 61.678H83.8147L72.5217 61.693L61.2217 61.678H56.6217C56.5953 61.6826 56.5682 61.6826 56.5417 61.678H57.7948L61.2188 61.659H83.8088L87.2298 61.678H88.4827H88.4877Z" fill="#263238"/>
<path d="M85.3178 139.111V136.2H25.7758C25.5645 136.2 25.3618 136.284 25.2119 136.433C25.062 136.582 24.9772 136.784 24.9758 136.995V138.316C24.9772 138.527 25.062 138.729 25.2119 138.878C25.3618 139.027 25.5645 139.111 25.7758 139.111H27.4338V140.435C27.4338 140.643 27.351 140.843 27.2036 140.991C27.0562 141.138 26.8563 141.221 26.6478 141.221H25.7628C25.5549 141.221 25.3554 141.303 25.2081 141.45C25.0608 141.597 24.9776 141.796 24.9768 142.004V143.34C24.9776 143.548 25.0608 143.747 25.2081 143.894C25.3554 144.041 25.5549 144.123 25.7628 144.123H85.3178V141.212H71.4388V139.102L85.3178 139.111ZM41.7028 139.111H45.2688V141.221H41.7058L41.7028 139.111ZM39.3238 141.221H35.7578V139.111H39.3278L39.3238 141.221ZM47.6568 139.111H51.2268V141.221H47.6568V139.111ZM53.6048 139.111H57.1718V141.221H53.5978L53.6048 139.111ZM59.5498 139.111H63.1228V141.221H59.5438L59.5498 139.111ZM29.8178 139.111H33.3848V141.221H29.8118L29.8178 139.111ZM69.0648 141.221H65.4888V139.111H69.0588L69.0648 141.221Z" fill="#455A64"/>
<path d="M133.313 88.963C133.411 88.8633 133.488 88.745 133.539 88.6151C133.591 88.4851 133.616 88.3462 133.613 88.2065C133.61 88.0667 133.579 87.929 133.523 87.8013C133.466 87.6736 133.384 87.5586 133.282 87.463L123.238 77.97C123.037 77.7816 122.772 77.6768 122.497 77.6768C122.222 77.6768 121.957 77.7816 121.756 77.97V77.97C121.65 78.0681 121.565 78.1864 121.506 78.3178C121.447 78.4491 121.414 78.591 121.411 78.7351C121.407 78.8792 121.432 79.0225 121.484 79.1568C121.537 79.2911 121.616 79.4135 121.716 79.517L125.722 83.73L123.637 85.738L122.551 84.875L114.976 93.552L110.927 89.658L106.046 104.014L107.014 123.501H118.242L117.456 100.342L124.988 89.615L125.047 87.063L127.212 84.845L131.88 89.015C132.082 89.1952 132.347 89.2903 132.618 89.2804C132.888 89.2705 133.145 89.1565 133.334 88.962L133.313 88.963Z" fill="#263238"/>
<path d="M103.026 127.11C102.983 127.11 102.946 109.33 102.946 87.402C102.946 65.474 102.983 47.688 103.026 47.688C103.069 47.688 103.106 65.465 103.106 87.402C103.106 109.339 103.06 127.11 103.026 127.11Z" fill="#263238"/>
<path d="M128.159 122.104L134.989 103.127L132.422 102.088V98.423L151.096 98.135C151.536 98.1264 151.958 97.9582 152.283 97.6616C152.609 97.3651 152.815 96.9605 152.865 96.523L155.609 72.139C155.67 71.5937 155.93 71.0901 156.339 70.7243C156.748 70.3585 157.278 70.1562 157.827 70.156V70.156C158.128 70.1557 158.425 70.2163 158.702 70.3342C158.979 70.452 159.229 70.6246 159.437 70.8417C159.646 71.0587 159.808 71.3156 159.914 71.597C160.021 71.8784 160.069 72.1784 160.057 72.479L159.011 97.602L168.761 97.655L169.092 102.236L140.257 103.365L132.737 121.829L128.159 122.104Z" fill="#455A64"/>
<path d="M132.456 121.64L108.18 121.832V123.45L118.236 123.32L134.253 123.196L173.086 117.715L168.684 100.962H142.391C141.936 100.955 141.487 101.06 141.082 101.266C140.676 101.471 140.327 101.773 140.065 102.144L132.456 121.64Z" fill="#263238"/>
<path d="M120.821 51.581L103.19 107.857L103.314 123.512H108.903V107.956L123.36 51.733L162.533 51.513L170.025 110.077H174.445L165.329 51.924C165.186 51.1633 164.781 50.4765 164.185 49.9823C163.59 49.488 162.84 49.2174 162.066 49.217H124.001C123.287 49.2167 122.592 49.4465 122.019 49.8724C121.447 50.2982 121.026 50.8974 120.821 51.581V51.581Z" fill="#455A64"/>
<path d="M100.008 141.591V126.558L103.299 123.511L134.231 123.111L139.799 118.582C140.836 117.74 142.112 117.246 143.446 117.171L149.404 116.834C149.404 116.834 152.077 114.994 154.663 113.169C157.937 110.849 161.85 109.602 165.863 109.599H183.009C183.632 109.599 184.229 109.846 184.669 110.287C185.109 110.727 185.357 111.324 185.357 111.947V141.591H100.008Z" fill="#A53DFF"/>
<path d="M185.353 136.747H99.7036V141.69H185.353V136.747Z" fill="#263238"/>
<path d="M104.137 141.536C104.106 143.631 104.697 145.687 105.835 147.446C106.973 149.205 108.607 150.586 110.531 151.416C112.454 152.246 114.581 152.487 116.641 152.108C118.701 151.73 120.603 150.749 122.106 149.289C123.608 147.83 124.645 145.957 125.083 143.909C125.522 141.861 125.343 139.728 124.569 137.781C123.796 135.835 122.463 134.161 120.738 132.972C119.013 131.783 116.974 131.132 114.88 131.102C112.072 131.061 109.362 132.138 107.348 134.094C105.333 136.051 104.178 138.728 104.137 141.536V141.536Z" fill="#263238"/>
<path d="M104.143 141.511V141.536C104.122 142.927 104.376 144.308 104.89 145.6C105.403 146.893 106.166 148.072 107.135 149.069C108.104 150.067 109.26 150.864 110.537 151.415C111.814 151.966 113.188 152.26 114.578 152.28C115.969 152.301 117.35 152.047 118.643 151.534C119.935 151.02 121.114 150.257 122.112 149.288C123.109 148.319 123.907 147.163 124.457 145.886C125.008 144.609 125.302 143.236 125.323 141.845C125.323 141.845 125.323 141.826 125.323 141.817L104.143 141.511Z" fill="#263238"/>
<path d="M107.293 141.582C107.27 143.299 107.844 144.97 108.916 146.312C109.988 147.653 111.492 148.582 113.171 148.939C114.851 149.296 116.602 149.061 118.127 148.272C119.652 147.483 120.857 146.189 121.535 144.612C122.214 143.035 122.325 141.271 121.849 139.621C121.374 137.971 120.341 136.537 118.927 135.563C117.513 134.589 115.804 134.136 114.093 134.28C112.382 134.424 110.774 135.156 109.543 136.353C108.842 137.034 108.283 137.846 107.897 138.743C107.51 139.641 107.305 140.605 107.293 141.582V141.582Z" fill="#FAFAFA"/>
<path d="M114.833 134.254C113.856 134.239 112.886 134.416 111.978 134.776C111.07 135.136 110.242 135.672 109.542 136.353C108.841 137.034 108.282 137.846 107.896 138.743C107.51 139.641 107.305 140.605 107.292 141.582L122.161 141.795C122.176 140.818 121.999 139.848 121.639 138.94C121.279 138.032 120.743 137.204 120.062 136.504C119.381 135.803 118.569 135.244 117.672 134.858C116.774 134.472 115.81 134.266 114.833 134.254V134.254Z" fill="#E0E0E0"/>
<path d="M110.196 141.625C110.184 142.521 110.439 143.4 110.928 144.151C111.416 144.902 112.116 145.491 112.939 145.844C113.763 146.197 114.672 146.298 115.553 146.134C116.433 145.97 117.246 145.549 117.887 144.924C118.528 144.298 118.969 143.496 119.155 142.62C119.341 141.744 119.262 140.832 118.93 140C118.597 139.168 118.025 138.454 117.286 137.947C116.548 137.44 115.675 137.164 114.78 137.153C114.185 137.146 113.595 137.255 113.042 137.476C112.49 137.697 111.987 138.025 111.561 138.44C111.135 138.855 110.796 139.35 110.561 139.897C110.327 140.444 110.203 141.031 110.196 141.626V141.625Z" fill="#263238"/>
<path d="M155.961 141.536C155.93 143.631 156.521 145.687 157.659 147.446C158.797 149.205 160.431 150.586 162.354 151.416C164.278 152.246 166.404 152.487 168.465 152.108C170.525 151.73 172.427 150.749 173.929 149.289C175.432 147.83 176.468 145.957 176.907 143.909C177.345 141.861 177.167 139.728 176.393 137.781C175.62 135.835 174.286 134.161 172.562 132.972C170.837 131.783 168.798 131.132 166.704 131.102C163.895 131.061 161.186 132.138 159.172 134.094C157.157 136.051 156.002 138.728 155.961 141.536V141.536Z" fill="#263238"/>
<path d="M155.964 141.511V141.536C155.944 142.927 156.198 144.308 156.711 145.6C157.224 146.893 157.987 148.072 158.957 149.069C159.926 150.067 161.082 150.864 162.359 151.415C163.636 151.966 165.009 152.26 166.4 152.28C167.79 152.301 169.171 152.047 170.464 151.534C171.756 151.02 172.935 150.257 173.933 149.288C174.931 148.319 175.728 147.163 176.279 145.886C176.83 144.609 177.124 143.236 177.144 141.845C177.144 141.845 177.144 141.826 177.144 141.817L155.964 141.511Z" fill="#263238"/>
<path d="M159.117 141.582C159.095 143.299 159.668 144.97 160.74 146.312C161.812 147.653 163.316 148.582 164.995 148.939C166.675 149.296 168.426 149.061 169.951 148.272C171.477 147.483 172.681 146.189 173.36 144.612C174.038 143.035 174.149 141.271 173.674 139.621C173.198 137.971 172.165 136.537 170.751 135.563C169.337 134.589 167.629 134.136 165.918 134.28C164.207 134.424 162.598 135.156 161.367 136.353C160.666 137.034 160.107 137.846 159.721 138.743C159.335 139.641 159.129 140.605 159.117 141.582V141.582Z" fill="#FAFAFA"/>
<path d="M166.657 134.254C165.68 134.239 164.71 134.416 163.802 134.776C162.894 135.136 162.066 135.672 161.365 136.353C160.665 137.034 160.105 137.846 159.719 138.743C159.333 139.641 159.128 140.605 159.116 141.582L173.985 141.795C174 140.818 173.823 139.848 173.463 138.94C173.102 138.032 172.567 137.204 171.886 136.504C171.205 135.803 170.393 135.244 169.495 134.858C168.598 134.472 167.633 134.266 166.657 134.254V134.254Z" fill="#E0E0E0"/>
<path d="M162.024 141.626C162.011 142.673 162.362 143.693 163.016 144.51C163.67 145.328 164.588 145.894 165.613 146.111C166.637 146.328 167.705 146.183 168.635 145.701C169.565 145.219 170.299 144.43 170.712 143.468C171.125 142.505 171.192 141.429 170.901 140.423C170.61 139.417 169.979 138.543 169.116 137.95C168.253 137.356 167.211 137.081 166.167 137.17C165.124 137.259 164.143 137.706 163.393 138.437C162.966 138.852 162.626 139.348 162.391 139.895C162.156 140.442 162.031 141.031 162.024 141.626Z" fill="#263238"/>
<path d="M180.333 134.153C180.313 134.13 180.295 134.105 180.28 134.079L180.144 133.856L179.927 133.491C179.832 133.324 179.729 133.162 179.618 133.005C178.938 131.983 178.136 131.048 177.23 130.221C176.958 129.946 176.63 129.708 176.302 129.432C175.974 129.156 175.602 128.922 175.235 128.659C174.849 128.387 174.441 128.147 174.016 127.941C173.803 127.83 173.586 127.709 173.363 127.601L172.663 127.292C171.675 126.876 170.647 126.565 169.595 126.364C166.25 125.7 162.779 126.251 159.805 127.917L159.143 128.288C158.93 128.418 158.729 128.56 158.524 128.688C158.106 128.942 157.748 129.251 157.379 129.52C157.029 129.786 156.698 130.077 156.389 130.389C156.09 130.665 155.807 130.957 155.541 131.264C154.716 132.174 154.007 133.181 153.428 134.264C153.331 134.43 153.244 134.601 153.168 134.777C153.097 134.925 153.035 135.052 152.986 135.161L152.872 135.396C152.86 135.423 152.845 135.449 152.829 135.473C152.834 135.444 152.843 135.416 152.857 135.39L152.957 135.149L153.124 134.759C153.197 134.58 153.281 134.405 153.375 134.236C153.937 133.135 154.639 132.11 155.463 131.188C155.707 130.879 156.014 130.606 156.307 130.297C156.6 129.988 156.953 129.715 157.3 129.412C157.659 129.1 158.043 128.818 158.448 128.568C158.648 128.435 158.856 128.293 159.067 128.16L159.732 127.78C160.683 127.264 161.685 126.85 162.723 126.543C166.024 125.548 169.572 125.771 172.723 127.171L173.423 127.48C173.649 127.588 173.865 127.712 174.082 127.826C174.524 128.043 174.911 128.321 175.319 128.556C175.696 128.789 176.054 129.053 176.389 129.345C176.713 129.594 177.022 129.861 177.317 130.145C178.222 130.986 179.016 131.939 179.68 132.982C179.792 133.141 179.895 133.306 179.989 133.477L180.189 133.851C180.242 133.951 180.282 134.021 180.313 134.083C180.344 134.145 180.336 134.149 180.333 134.153Z" fill="#263238"/>
<path d="M128.555 136.101C128.537 136.075 128.522 136.047 128.512 136.018C128.487 135.953 128.453 135.87 128.412 135.764L128.245 135.353C128.171 135.192 128.087 135.007 127.994 134.799C127.455 133.63 126.784 132.527 125.994 131.511C124.84 129.988 123.369 128.735 121.682 127.839C120.671 127.346 119.6 126.989 118.496 126.778C117.312 126.534 116.104 126.424 114.896 126.45C113.688 126.467 112.486 126.622 111.314 126.911C110.223 127.184 109.171 127.595 108.184 128.133C106.497 129.03 104.988 130.229 103.733 131.669C102.898 132.645 102.172 133.71 101.568 134.843C101.351 135.243 101.188 135.561 101.085 135.771C101.036 135.871 100.992 135.954 100.961 136.015C100.949 136.044 100.933 136.071 100.915 136.095C100.92 136.065 100.931 136.035 100.946 136.008L101.057 135.757C101.15 135.534 101.304 135.216 101.512 134.807C102.097 133.654 102.813 132.573 103.646 131.584C104.9 130.121 106.414 128.903 108.113 127.993C109.11 127.449 110.172 127.033 111.274 126.756C112.458 126.463 113.672 126.307 114.893 126.289C116.113 126.268 117.333 126.384 118.528 126.635C119.643 126.85 120.724 127.214 121.744 127.715C123.445 128.627 124.923 129.903 126.075 131.452C126.862 132.48 127.523 133.598 128.045 134.783L128.28 135.343C128.339 135.507 128.391 135.652 128.432 135.761C128.473 135.87 128.5 135.953 128.522 136.021C128.536 136.046 128.547 136.073 128.555 136.101V136.101Z" fill="#263238"/>
<path d="M99.9859 136.2H53.0369V141.691H99.9859V136.2Z" fill="#263238"/>
<path d="M98.714 138.532C98.714 138.802 98.6338 139.067 98.4836 139.291C98.3334 139.516 98.1199 139.691 97.8701 139.795C97.6203 139.898 97.3455 139.925 97.0803 139.873C96.8151 139.82 96.5715 139.69 96.3804 139.499C96.1892 139.307 96.059 139.064 96.0062 138.799C95.9535 138.534 95.9806 138.259 96.084 138.009C96.1875 137.759 96.3627 137.546 96.5875 137.395C96.8123 137.245 97.0766 137.165 97.347 137.165C97.5265 137.165 97.7043 137.2 97.8701 137.269C98.036 137.338 98.1867 137.438 98.3136 137.565C98.4405 137.692 98.5412 137.843 98.6099 138.009C98.6786 138.175 98.714 138.352 98.714 138.532V138.532Z" fill="#455A64"/>
<path d="M99.3697 48.785H95.4507V126.636H99.3697V48.785Z" fill="#455A64"/>
<path d="M155.105 131.071C155.105 131.114 148.498 131.151 140.35 131.151C132.202 131.151 125.595 131.114 125.595 131.071C125.595 131.028 132.195 130.991 140.35 130.991C148.505 130.991 155.105 131.028 155.105 131.071Z" fill="#263238"/>
<path d="M149.091 129.905C149.045 129.905 149.011 127.031 149.011 123.487C149.011 119.943 149.045 117.072 149.091 117.072C149.137 117.072 149.171 119.943 149.171 123.487C149.171 127.031 149.135 129.905 149.091 129.905Z" fill="#263238"/>
<path d="M103.03 47H95.0308V50.57H103.03V47Z" fill="#263238"/>
<path d="M99.9859 125.992H94.8359V136.268H99.9859V125.992Z" fill="#263238"/>
<path d="M88.0268 111.414H55.8018V136.271H88.0268V111.414Z" fill="#A53DFF"/>
<path opacity="0.3" d="M88.0268 111.414H55.8018V136.271H88.0268V111.414Z" fill="black"/>
<path d="M79.9539 136.095C79.9259 136.095 79.9009 130.555 79.9009 123.722C79.9009 116.889 79.9259 111.349 79.9539 111.349C79.9819 111.349 80.0069 116.889 80.0069 123.722C80.0069 130.555 79.9809 136.095 79.9539 136.095Z" fill="#263238"/>
<path d="M85.2967 130.614H82.8247V133.407H85.2967V130.614Z" fill="#F5F5F5"/>
<path d="M69.2908 111.479H65.6318V116.784H69.2908V111.479Z" fill="#263238"/>
<path d="M69.2908 130.892H65.6318V136.197H69.2908V130.892Z" fill="#263238"/>
<path d="M87.7437 111.414H86.4907L83.0667 111.429L71.7827 111.478H60.4827L57.0617 111.463H55.8137C55.8403 111.46 55.8671 111.46 55.8937 111.463H57.0657L60.4867 111.448L71.7867 111.433L83.0797 111.448L86.5037 111.463H87.6757C87.6967 111.444 87.7194 111.428 87.7437 111.414Z" fill="#263238"/>
<path d="M54.2238 111.414H21.9988V136.271H54.2238V111.414Z" fill="#A53DFF"/>
<path d="M46.1548 136.095C46.1238 136.095 46.1018 130.555 46.1018 123.722C46.1018 116.889 46.1238 111.349 46.1548 111.349C46.1858 111.349 46.2038 116.889 46.2038 123.722C46.2038 130.555 46.1818 136.095 46.1548 136.095Z" fill="#263238"/>
<path d="M51.4967 130.614H49.0247V133.407H51.4967V130.614Z" fill="#F5F5F5"/>
<path opacity="0.5" d="M35.4908 111.479H31.8318V116.784H35.4908V111.479Z" fill="white"/>
<path opacity="0.5" d="M35.4908 130.892H31.8318V136.197H35.4908V130.892Z" fill="white"/>
<path d="M53.9459 111.414H52.6929L49.2719 111.429H26.6819L23.2579 111.414H22.0049C22.0328 111.411 22.0609 111.411 22.0889 111.414H23.2579L26.6819 111.399L37.9819 111.384L49.2749 111.399L52.6959 111.414H53.8649C53.8918 111.411 53.9189 111.411 53.9459 111.414V111.414Z" fill="#263238"/>
<path d="M186.705 118.169C187.55 118.394 188.3 118.885 188.845 119.57C189.39 120.254 189.701 121.095 189.733 121.969C189.697 122.826 189.382 123.647 188.835 124.308C188.288 124.968 187.54 125.431 186.705 125.625" fill="#A53DFF"/>
<g opacity="0.6">
<path d="M186.705 118.169C187.55 118.394 188.3 118.885 188.845 119.57C189.39 120.254 189.701 121.095 189.733 121.969C189.697 122.826 189.382 123.647 188.835 124.308C188.288 124.968 187.54 125.431 186.705 125.625" fill="white"/>
</g>
<path d="M186.773 117.21H185.353V126.617H186.773V117.21Z" fill="#A53DFF"/>
<path opacity="0.3" d="M186.773 117.21H185.353V126.617H186.773V117.21Z" fill="black"/>
<path d="M119.219 79.514C119.048 79.3815 118.93 79.1921 118.888 78.9802C118.845 78.7683 118.88 78.5481 118.987 78.36C119.225 77.945 119.504 77.46 119.63 77.253C119.785 77.0114 119.926 76.7613 120.054 76.504C120.093 76.3501 120.174 76.2104 120.289 76.1009C120.404 75.9914 120.548 75.9166 120.704 75.885C121.081 75.8364 121.464 75.8479 121.839 75.919L125.709 76.754L127.509 77.645L125.755 79.192L124.781 78.883C124.208 79.1482 123.579 79.2651 122.95 79.223C122.278 79.0426 121.585 78.9492 120.89 78.945L120.343 79.022L120.603 79.239C121.078 79.2047 121.554 79.3019 121.979 79.52C122.046 79.5657 122.098 79.6315 122.127 79.7081C122.156 79.7847 122.16 79.8684 122.139 79.9475C122.118 80.0265 122.072 80.097 122.009 80.1491C121.946 80.2012 121.868 80.2323 121.787 80.238L120.516 80.322C120.171 80.1604 119.84 79.9722 119.526 79.759C119.427 79.6721 119.324 79.5906 119.217 79.515L119.219 79.514Z" fill="#FFBE9D"/>
<path d="M120.348 79.037C120.285 79.0798 120.215 79.1093 120.141 79.124C119.938 79.1832 119.724 79.1832 119.522 79.124C119.376 79.0762 119.248 78.9869 119.154 78.867C119.099 78.7943 119.061 78.7112 119.041 78.6229C119.02 78.5346 119.019 78.443 119.036 78.354C119.059 78.2518 119.115 78.1603 119.197 78.094C119.277 78.0351 119.367 77.9902 119.463 77.961C119.648 77.8996 119.837 77.8512 120.029 77.816C120.392 77.7459 120.759 77.6985 121.129 77.674C121.299 77.674 121.46 77.655 121.615 77.655H121.825C121.889 77.6459 121.953 77.6336 122.017 77.618C122.279 77.5335 122.546 77.4624 122.817 77.405C122.576 77.5471 122.316 77.6513 122.044 77.714C121.978 77.7357 121.911 77.7521 121.844 77.763C121.802 77.768 121.761 77.768 121.72 77.763H121.615C121.47 77.763 121.306 77.782 121.142 77.797C120.777 77.8293 120.415 77.8801 120.056 77.949C119.872 77.983 119.69 78.0284 119.512 78.085C119.333 78.138 119.203 78.218 119.178 78.363C119.15 78.5017 119.179 78.6455 119.258 78.763C119.338 78.8662 119.444 78.9454 119.567 78.992C119.751 79.0567 119.948 79.0749 120.142 79.045C120.265 79.043 120.348 79.022 120.348 79.037Z" fill="#EB996E"/>
<path d="M120.828 77.02C120.871 77.02 120.946 77.212 120.868 77.456C120.79 77.7 120.617 77.83 120.59 77.796C120.563 77.762 120.655 77.614 120.717 77.409C120.779 77.204 120.781 77.026 120.828 77.02Z" fill="#EB996E"/>
<path d="M121.434 77.264C121.477 77.264 121.49 77.419 121.381 77.573C121.272 77.727 121.127 77.74 121.112 77.697C121.097 77.654 121.177 77.579 121.254 77.474C121.331 77.369 121.388 77.258 121.434 77.264Z" fill="#EB996E"/>
<path d="M136.669 76.401C137.201 76.178 133.613 79.869 133.613 79.869L126.981 77.394L124.639 78.832L131.769 83.852C132.501 84.3689 133.395 84.6062 134.288 84.5211C135.18 84.436 136.013 84.034 136.635 83.388L140.845 78.522L136.669 76.401Z" fill="#FFBE9D"/>
<path d="M140.556 61.616C139.628 61.437 139.056 61.152 139.028 60.796C138.979 60.06 141.314 59.305 144.246 59.104C147.178 58.903 149.591 59.342 149.646 60.075C149.668 60.431 149.139 60.79 148.254 61.09" fill="#A53DFF"/>
<g opacity="0.4">
<path d="M141.073 61.554C140.253 61.399 139.718 61.146 139.718 60.83C139.718 59.948 141.744 59.506 144.342 59.33C146.94 59.154 149.084 59.54 149.127 60.193C149.149 60.502 148.678 60.812 147.89 61.093" fill="black"/>
</g>
<path d="M139.733 60.4C139.733 60.4 140.28 57.229 140.333 57.072C140.649 56.5307 141.075 56.0623 141.584 55.6974C142.093 55.3325 142.674 55.0795 143.287 54.955L145.044 54.834C145.044 54.834 147.593 55.468 148.088 56.047C148.583 56.626 148.979 59.558 148.979 59.558L143.979 58.822L140.685 59.864L139.733 60.4Z" fill="#A53DFF"/>
<path d="M143.84 54.563L143.085 54.612C142.909 54.8456 142.822 55.134 142.838 55.426C142.838 55.974 142.971 59.726 142.971 59.726L145.171 59.479L144.791 54.851L145.549 54.969L145.509 54.706L145.296 54.486L143.84 54.563Z" fill="#A53DFF"/>
<path d="M148.429 71.845L143.047 71.963C142.979 71.397 143.028 67.855 143.028 67.855C142.459 67.8035 141.927 67.5549 141.523 67.1521C141.119 66.7494 140.869 66.218 140.816 65.65C140.652 63.624 140.689 59.55 140.689 59.55L140.711 59.371C141.787 58.7323 143.014 58.3937 144.265 58.3904C145.516 58.387 146.745 58.7191 147.825 59.352L148.134 59.562L148.429 71.845Z" fill="#FFBE9D"/>
<path d="M143.028 67.864C143.965 67.7974 144.863 67.4635 145.617 66.902C145.395 67.3919 145.024 67.7995 144.557 68.0666C144.091 68.3337 143.551 68.4469 143.017 68.39L143.028 67.864Z" fill="#EB996E"/>
<path d="M148.042 61.677C148.076 61.677 149.405 61.177 149.455 62.562C149.475 62.7355 149.451 62.9112 149.385 63.073C149.32 63.2348 149.215 63.3776 149.08 63.4884C148.945 63.5992 148.784 63.6744 148.612 63.7071C148.441 63.7399 148.264 63.7292 148.097 63.676C148.094 63.639 148.042 61.677 148.042 61.677Z" fill="#FFBE9D"/>
<path d="M148.497 63.135C148.517 63.1489 148.539 63.1603 148.562 63.169C148.59 63.1812 148.621 63.1876 148.653 63.1876C148.684 63.1876 148.715 63.1812 148.744 63.169C148.831 63.1086 148.901 63.0261 148.946 62.9298C148.991 62.8335 149.01 62.7269 149.001 62.621C149 62.502 148.973 62.3847 148.921 62.278C148.906 62.2352 148.881 62.1965 148.848 62.1654C148.815 62.1342 148.775 62.1114 148.732 62.099C148.704 62.0931 148.675 62.0969 148.65 62.1099C148.624 62.1228 148.604 62.144 148.593 62.17C148.574 62.21 148.593 62.238 148.577 62.241C148.561 62.244 148.546 62.219 148.555 62.161C148.562 62.1262 148.581 62.0947 148.608 62.071C148.645 62.041 148.693 62.0266 148.741 62.031C148.798 62.0401 148.852 62.0639 148.898 62.1002C148.943 62.1365 148.979 62.1839 149.001 62.238C149.066 62.3503 149.105 62.4762 149.115 62.606C149.128 62.7309 149.104 62.857 149.044 62.9675C148.984 63.0781 148.892 63.1679 148.781 63.225C148.744 63.2377 148.705 63.2418 148.666 63.237C148.627 63.2321 148.59 63.2184 148.558 63.197C148.497 63.169 148.497 63.138 148.497 63.135Z" fill="#EB996E"/>
<path d="M141.361 62.055C141.369 62.1309 141.405 62.201 141.463 62.2518C141.52 62.3026 141.593 62.3305 141.67 62.33C141.744 62.33 141.816 62.3004 141.869 62.2477C141.921 62.195 141.951 62.1235 141.951 62.049C141.942 61.9731 141.906 61.9029 141.849 61.8522C141.792 61.8014 141.718 61.7735 141.642 61.774C141.567 61.774 141.496 61.8036 141.443 61.8563C141.39 61.909 141.361 61.9805 141.361 62.055V62.055Z" fill="#263238"/>
<path d="M141.267 61.77C141.304 61.804 141.514 61.628 141.827 61.606C142.14 61.584 142.378 61.727 142.409 61.686C142.44 61.645 142.381 61.602 142.279 61.538C142.137 61.4546 141.974 61.416 141.809 61.427C141.647 61.4375 141.493 61.4991 141.367 61.603C141.276 61.677 141.249 61.755 141.267 61.77Z" fill="#263238"/>
<path d="M144.432 61.941C144.434 61.9794 144.443 62.017 144.46 62.0517C144.477 62.0864 144.5 62.1174 144.529 62.143C144.558 62.1685 144.591 62.1882 144.627 62.2007C144.664 62.2132 144.702 62.2184 144.741 62.216C144.777 62.216 144.814 62.2087 144.848 62.1946C144.882 62.1804 144.912 62.1597 144.938 62.1335C144.964 62.1074 144.985 62.0764 144.998 62.0423C145.012 62.0082 145.019 61.9718 145.019 61.935C145.017 61.8966 145.007 61.8589 144.99 61.8243C144.974 61.7896 144.95 61.7586 144.922 61.733C144.893 61.7075 144.859 61.6878 144.823 61.6753C144.787 61.6628 144.748 61.6576 144.71 61.66C144.673 61.66 144.637 61.6673 144.603 61.6814C144.569 61.6956 144.538 61.7163 144.512 61.7425C144.486 61.7686 144.466 61.7996 144.452 61.8337C144.438 61.8678 144.431 61.9042 144.432 61.941Z" fill="#263238"/>
<path d="M144.337 61.619C144.374 61.656 144.581 61.48 144.894 61.458C145.207 61.436 145.445 61.579 145.476 61.538C145.507 61.497 145.451 61.454 145.346 61.386C145.205 61.3022 145.042 61.2645 144.879 61.278C144.716 61.2871 144.561 61.3488 144.437 61.454C144.346 61.536 144.318 61.604 144.337 61.619Z" fill="#263238"/>
<path d="M143.363 64.007C143.194 63.969 143.022 63.9502 142.85 63.951C142.77 63.951 142.692 63.951 142.677 63.883C142.664 63.8017 142.677 63.7186 142.714 63.645L142.909 63.026C143.09 62.4971 143.231 61.9552 143.33 61.405C143.103 61.9172 142.919 62.4469 142.779 62.989C142.714 63.206 142.652 63.413 142.593 63.608C142.552 63.706 142.545 63.8148 142.574 63.917C142.587 63.9438 142.607 63.9672 142.631 63.9854C142.655 64.0036 142.683 64.0161 142.713 64.022C142.758 64.0278 142.803 64.0278 142.849 64.022C143.02 64.0399 143.193 64.0349 143.363 64.007Z" fill="#263238"/>
<path d="M144.293 64.152C144.24 64.152 144.265 64.489 143.984 64.752C143.703 65.015 143.365 64.999 143.365 65.061C143.365 65.123 143.449 65.12 143.603 65.114C143.8 65.1024 143.987 65.0224 144.132 64.888C144.27 64.757 144.353 64.5782 144.364 64.388C144.355 64.239 144.315 64.152 144.293 64.152Z" fill="#263238"/>
<path d="M144.166 60.403C144.203 60.487 144.509 60.425 144.877 60.446C145.245 60.467 145.548 60.546 145.592 60.465C145.636 60.384 145.555 60.351 145.431 60.276C145.266 60.1845 145.081 60.1338 144.893 60.128C144.704 60.1177 144.515 60.1519 144.342 60.228C144.219 60.295 144.166 60.366 144.166 60.403Z" fill="#263238"/>
<path d="M141.321 60.861C141.383 60.926 141.59 60.839 141.85 60.818C142.11 60.797 142.329 60.833 142.376 60.756C142.423 60.679 142.354 60.651 142.255 60.589C142.121 60.5176 141.969 60.4874 141.818 60.5024C141.667 60.5173 141.524 60.5767 141.407 60.673C141.321 60.75 141.296 60.827 141.321 60.861Z" fill="#263238"/>
<path d="M148.188 60.364C148.172 60.93 148.228 61.496 148.213 62.064C148.194 62.2779 148.14 62.4872 148.052 62.683C148.022 62.7963 147.958 62.8976 147.868 62.9725C147.778 63.0475 147.667 63.0923 147.55 63.1008C147.433 63.1093 147.317 63.081 147.217 63.0199C147.117 62.9587 147.039 62.8679 146.994 62.76C146.883 62.5365 146.824 62.2912 146.821 62.042C146.818 61.7926 146.777 61.5452 146.697 61.309C146.565 61.0639 146.407 60.8336 146.227 60.622C146.138 60.5145 146.075 60.3878 146.043 60.2519C146.012 60.116 146.012 59.9747 146.045 59.839C146.793 59.8161 147.534 59.9968 148.189 60.362" fill="#263238"/>
<path d="M140.69 60.614L140.656 59.479L143.904 58.266L148.126 59.194L148.206 60.413C145.766 59.5213 143.078 59.5932 140.69 60.614V60.614Z" fill="#455A64"/>
<path d="M140.847 59.225L140.711 59.373L139.57 60.205C141.064 59.7042 142.616 59.3924 144.188 59.277C145.914 59.2378 147.64 59.3999 149.329 59.76L147.696 58.922C147.431 58.6744 147.119 58.4825 146.778 58.3576C146.437 58.2327 146.075 58.1774 145.713 58.195L142.731 58.337C142.374 58.3539 142.024 58.4411 141.7 58.5935C141.377 58.7458 141.087 58.9604 140.847 59.225Z" fill="#A53DFF"/>
<path d="M142.929 58.235C142.983 57.7079 142.998 57.1773 142.972 56.648C142.985 56.1177 142.958 55.5872 142.892 55.061C142.833 55.5879 142.819 56.1187 142.849 56.648C142.834 57.1783 142.86 57.7089 142.929 58.235V58.235Z" fill="#263238"/>
<path d="M145.54 54.972C145.357 54.9045 145.165 54.8628 144.971 54.848C144.91 54.8525 144.854 54.8795 144.813 54.9235C144.771 54.9676 144.748 55.0256 144.748 55.086L144.767 55.42C144.789 55.658 144.807 55.912 144.829 56.175C144.872 56.713 144.922 57.199 144.962 57.548C144.971 57.7396 145.002 57.9296 145.055 58.114C145.077 57.924 145.077 57.732 145.055 57.542C145.036 57.189 145.002 56.704 144.955 56.169C144.93 55.903 144.909 55.649 144.887 55.411C144.887 55.3 144.862 55.191 144.853 55.086C144.852 55.0492 144.865 55.0135 144.889 54.9856C144.913 54.9576 144.946 54.9393 144.983 54.934C145.167 54.9617 145.353 54.9744 145.54 54.972Z" fill="#263238"/>
<path d="M139.493 60.196C139.493 60.196 139.629 60.128 139.88 60.02C140.004 59.964 140.155 59.902 140.329 59.807C140.53 59.7035 140.702 59.5504 140.829 59.362C140.974 59.145 140.984 58.862 141.138 58.641C141.292 58.42 141.614 58.39 141.93 58.36C142.567 58.289 143.269 58.236 144.009 58.205C144.749 58.174 145.457 58.168 146.097 58.174C146.391 58.1499 146.684 58.2264 146.929 58.391C147.028 58.4856 147.118 58.589 147.198 58.7L147.325 58.852L147.39 58.923C147.416 58.9473 147.447 58.9672 147.48 58.982C147.938 59.164 148.312 59.291 148.569 59.375C148.699 59.4288 148.833 59.4742 148.969 59.511C148.937 59.4888 148.904 59.47 148.869 59.455C148.804 59.424 148.708 59.381 148.581 59.328C148.334 59.22 147.962 59.09 147.517 58.901C147.493 58.8904 147.472 58.877 147.452 58.861L147.393 58.79L147.272 58.638C147.187 58.5277 147.094 58.4243 146.994 58.329C146.733 58.1412 146.414 58.0512 146.094 58.075C145.451 58.075 144.742 58.075 144 58.097C143.258 58.119 142.549 58.184 141.909 58.261C141.75 58.2733 141.593 58.2981 141.439 58.335C141.29 58.3729 141.16 58.4618 141.071 58.586C140.892 58.84 140.892 59.127 140.762 59.319C140.648 59.4989 140.49 59.6469 140.304 59.749C140.14 59.849 139.995 59.919 139.868 59.981C139.741 60.043 139.655 60.095 139.593 60.133C139.557 60.1492 139.523 60.1704 139.493 60.196V60.196Z" fill="#263238"/>
<path d="M139.95 60.342C139.979 60.3294 140.007 60.3129 140.033 60.293C140.086 60.256 140.166 60.206 140.271 60.148C140.577 59.9959 140.897 59.8746 141.227 59.786C142.32 59.4986 143.449 59.3673 144.58 59.396C145.245 59.396 145.88 59.396 146.436 59.421C146.943 59.4519 147.449 59.514 147.949 59.607C148.14 59.6396 148.33 59.682 148.518 59.734C148.66 59.7597 148.794 59.8168 148.911 59.901C148.957 59.938 148.994 59.9851 149.019 60.0386C149.044 60.0922 149.057 60.1508 149.056 60.21C149.073 60.1798 149.08 60.1445 149.075 60.11C149.064 60.0114 149.018 59.9202 148.945 59.853C148.827 59.7556 148.688 59.6871 148.54 59.653C148.351 59.5944 148.159 59.546 147.965 59.508C147.463 59.41 146.955 59.3389 146.446 59.295C145.868 59.252 145.23 59.264 144.568 59.261C143.426 59.2303 142.287 59.3753 141.19 59.691C140.855 59.7856 140.534 59.9216 140.234 60.096C140.153 60.1436 140.076 60.1985 140.005 60.26C139.984 60.2857 139.966 60.3132 139.95 60.342V60.342Z" fill="#263238"/>
<path d="M143.409 54.687C143.512 54.6949 143.615 54.6949 143.718 54.687L144.467 54.659C144.758 54.659 145.027 54.613 145.212 54.631C145.262 54.6328 145.312 54.6457 145.356 54.6687C145.401 54.6917 145.441 54.7242 145.472 54.764C145.467 54.7356 145.452 54.7102 145.429 54.693C145.37 54.6374 145.296 54.6023 145.216 54.593C144.965 54.5735 144.714 54.5735 144.464 54.593L143.715 54.636C143.611 54.6414 143.508 54.6585 143.409 54.687Z" fill="#FAFAFA"/>
<path d="M143.279 58.359C143.331 58.3643 143.384 58.3643 143.437 58.359H145.274L146.05 58.378C146.257 58.3767 146.464 58.393 146.669 58.427C146.807 58.4556 146.932 58.5307 147.022 58.64C147.052 58.6812 147.077 58.7259 147.096 58.773C147.09 58.7202 147.069 58.67 147.037 58.628C146.949 58.5093 146.822 58.4259 146.678 58.393C146.474 58.3535 146.267 58.3327 146.059 58.331C145.821 58.331 145.559 58.312 145.283 58.309C144.729 58.309 144.231 58.309 143.869 58.324L143.442 58.346C143.387 58.3455 143.333 58.3499 143.279 58.359Z" fill="#FAFAFA"/>
<path d="M144.909 57.808C144.913 57.7711 144.913 57.7339 144.909 57.697C144.902 57.5931 144.887 57.4899 144.866 57.388C144.832 57.131 144.789 56.769 144.748 56.383C144.707 55.997 144.686 55.634 144.671 55.378C144.671 55.2747 144.664 55.1715 144.652 55.069C144.657 55.0322 144.657 54.9948 144.652 54.958C144.647 54.9949 144.647 55.0321 144.652 55.069V55.378C144.652 55.638 144.677 55.997 144.714 56.389C144.751 56.781 144.804 57.138 144.847 57.389C144.869 57.519 144.89 57.621 144.906 57.698C144.901 57.7346 144.902 57.7717 144.909 57.808Z" fill="#FAFAFA"/>
<path d="M147.481 59.039C147.513 59.057 147.547 59.0714 147.581 59.082L147.853 59.182L148.753 59.491C148.92 59.5441 149.083 59.6072 149.242 59.68C149.37 59.7386 149.472 59.8407 149.53 59.968C149.568 60.0544 149.578 60.1507 149.558 60.243C149.536 60.305 149.512 60.336 149.518 60.343C149.545 60.3178 149.565 60.2871 149.577 60.253C149.613 60.1581 149.613 60.0538 149.577 59.959C149.515 59.8218 149.406 59.712 149.268 59.65C149.109 59.5718 148.943 59.5066 148.773 59.455L147.865 59.146L147.589 59.059C147.554 59.0479 147.518 59.0412 147.481 59.039Z" fill="#FAFAFA"/>
<path d="M124.62 114.318L124.901 119.341C124.901 119.341 119.89 121.311 119.853 122.241L129.609 122.049L129.491 114.208L124.62 114.318Z" fill="#A53DFF"/>
<g opacity="0.4">
<path d="M124.62 114.318L124.901 119.341C124.901 119.341 119.89 121.311 119.853 122.241L129.609 122.049L129.491 114.208L124.62 114.318Z" fill="black"/>
</g>
<path d="M127.908 118.859C128.002 118.886 128.083 118.946 128.136 119.029C128.188 119.112 128.208 119.211 128.193 119.308C128.17 119.403 128.111 119.486 128.029 119.539C127.947 119.592 127.847 119.612 127.751 119.593C127.649 119.567 127.56 119.504 127.503 119.415C127.446 119.327 127.424 119.221 127.442 119.117C127.476 119.021 127.547 118.941 127.638 118.895C127.73 118.849 127.836 118.84 127.934 118.87" fill="#E0E0E0"/>
<path d="M129.61 122.052L129.567 121.263L120.228 121.742C120.228 121.742 119.798 121.942 119.854 122.242L129.61 122.052Z" fill="#E0E0E0"/>
<path d="M124.743 119.296C124.743 119.342 124.981 119.358 125.219 119.506C125.457 119.654 125.587 119.852 125.63 119.834C125.673 119.816 125.596 119.54 125.305 119.367C125.014 119.194 124.734 119.253 124.743 119.296Z" fill="#263238"/>
<path d="M123.726 119.737C123.726 119.783 123.926 119.861 124.091 120.046C124.256 120.231 124.307 120.457 124.354 120.454C124.401 120.451 124.428 120.179 124.218 119.937C124.008 119.695 123.726 119.688 123.726 119.737Z" fill="#263238"/>
<path d="M123.169 120.975C123.212 120.975 123.274 120.743 123.147 120.486C123.02 120.229 122.794 120.127 122.776 120.177C122.758 120.227 122.897 120.353 122.999 120.567C123.101 120.781 123.13 120.969 123.169 120.975Z" fill="#263238"/>
<path d="M124.806 118.141C124.828 118.184 125.044 118.116 125.313 118.141C125.582 118.166 125.796 118.234 125.813 118.194C125.83 118.154 125.634 117.987 125.313 117.974C124.992 117.961 124.781 118.104 124.806 118.141Z" fill="#263238"/>
<g opacity="0.3">
<path d="M124.679 115.315L124.725 116.209L129.52 116.07L129.511 115.263L124.679 115.315Z" fill="black"/>
</g>
<path d="M124.769 117.131C124.929 117.173 125.097 117.173 125.258 117.131C125.432 117.094 125.602 117.038 125.765 116.964C125.86 116.918 125.953 116.866 126.043 116.809C126.096 116.776 126.144 116.736 126.188 116.691C126.217 116.656 126.234 116.612 126.237 116.566C126.24 116.521 126.228 116.475 126.203 116.437C126.178 116.404 126.147 116.378 126.11 116.359C126.074 116.341 126.033 116.332 125.993 116.332C125.931 116.331 125.869 116.34 125.811 116.36C125.704 116.386 125.6 116.423 125.502 116.471C125.338 116.55 125.188 116.655 125.057 116.78C124.837 116.993 124.763 117.173 124.779 117.18C124.795 117.187 124.909 117.044 125.135 116.871C125.267 116.768 125.413 116.683 125.568 116.617C125.658 116.579 125.751 116.548 125.846 116.524C125.946 116.493 126.035 116.493 126.063 116.524C126.091 116.555 126.063 116.549 126.063 116.58C126.031 116.613 125.996 116.643 125.958 116.667C125.875 116.723 125.789 116.773 125.701 116.819C125.551 116.897 125.395 116.962 125.234 117.011C125.075 117.038 124.92 117.078 124.769 117.131V117.131Z" fill="#263238"/>
<path d="M124.829 117.195C124.919 117.054 124.961 116.888 124.95 116.722C124.954 116.541 124.928 116.36 124.873 116.187C124.841 116.08 124.797 115.976 124.743 115.878C124.717 115.815 124.674 115.76 124.62 115.719C124.566 115.677 124.502 115.65 124.434 115.64C124.391 115.642 124.35 115.656 124.314 115.681C124.279 115.705 124.251 115.739 124.234 115.779C124.212 115.836 124.196 115.897 124.188 115.958C124.173 116.067 124.173 116.177 124.188 116.286C124.22 116.468 124.296 116.64 124.408 116.786C124.603 117.037 124.808 117.095 124.808 117.074C124.696 116.965 124.592 116.847 124.499 116.721C124.412 116.582 124.356 116.426 124.335 116.263C124.322 116.17 124.322 116.075 124.335 115.982C124.335 115.877 124.384 115.793 124.425 115.803C124.5 115.833 124.562 115.889 124.598 115.961C124.65 116.044 124.693 116.132 124.725 116.224C124.784 116.38 124.819 116.544 124.83 116.71C124.851 117.009 124.802 117.189 124.829 117.195Z" fill="#263238"/>
<path d="M150.972 92.985C150.972 92.985 149.905 98.454 148.136 98.531C145.971 98.624 130.242 98.84 130.242 98.84L131.176 116.351L124.315 116.187L121.586 98.933C121.281 97.3846 121.54 95.7782 122.316 94.404L122.372 94.304C122.958 93.3398 123.782 92.5424 124.765 91.9883C125.748 91.4343 126.857 91.1422 127.986 91.14L141.049 90.94L150.972 92.985Z" fill="#263238"/>
<path d="M127.29 114.318L127.568 119.341C127.568 119.341 122.557 121.311 122.52 122.241L132.276 122.049L132.158 114.208L127.29 114.318Z" fill="#A53DFF"/>
<path d="M130.571 118.859C130.665 118.886 130.746 118.946 130.799 119.029C130.851 119.112 130.871 119.211 130.856 119.308C130.834 119.404 130.775 119.487 130.693 119.54C130.61 119.594 130.51 119.612 130.414 119.593C130.312 119.567 130.223 119.504 130.166 119.415C130.109 119.327 130.087 119.221 130.105 119.117C130.139 119.021 130.21 118.941 130.301 118.895C130.393 118.849 130.499 118.84 130.597 118.87" fill="#E0E0E0"/>
<path d="M132.276 122.052L132.233 121.263L122.894 121.742C122.894 121.742 122.464 121.942 122.52 122.242L132.276 122.052Z" fill="#E0E0E0"/>
<path d="M127.41 119.296C127.41 119.342 127.651 119.358 127.886 119.506C128.121 119.654 128.254 119.852 128.297 119.834C128.34 119.816 128.263 119.54 127.972 119.367C127.681 119.194 127.398 119.253 127.41 119.296Z" fill="#263238"/>
<path d="M126.396 119.737C126.396 119.783 126.596 119.861 126.758 120.046C126.92 120.231 126.975 120.457 127.021 120.454C127.067 120.451 127.095 120.179 126.885 119.937C126.675 119.695 126.396 119.688 126.396 119.737Z" fill="#263238"/>
<path d="M125.836 120.975C125.882 120.975 125.941 120.743 125.814 120.486C125.687 120.229 125.461 120.127 125.443 120.177C125.425 120.227 125.563 120.353 125.665 120.567C125.767 120.781 125.79 120.969 125.836 120.975Z" fill="#263238"/>
<path d="M127.462 118.141C127.484 118.184 127.7 118.116 127.969 118.141C128.238 118.166 128.452 118.234 128.469 118.194C128.486 118.154 128.29 117.987 127.969 117.974C127.878 117.961 127.784 117.969 127.696 117.998C127.608 118.027 127.528 118.076 127.462 118.141V118.141Z" fill="#263238"/>
<g opacity="0.3">
<path d="M127.345 115.315L127.394 116.209L132.185 116.07L132.176 115.263L127.345 115.315Z" fill="black"/>
</g>
<path d="M127.435 117.131C127.595 117.173 127.763 117.173 127.924 117.131C128.098 117.094 128.268 117.038 128.431 116.964C128.526 116.918 128.619 116.867 128.709 116.809C128.762 116.776 128.81 116.736 128.854 116.691C128.883 116.656 128.9 116.612 128.903 116.566C128.906 116.521 128.894 116.475 128.869 116.437C128.844 116.404 128.813 116.378 128.776 116.359C128.74 116.341 128.699 116.332 128.659 116.332C128.597 116.331 128.535 116.34 128.477 116.36C128.37 116.386 128.266 116.423 128.168 116.471C128.005 116.549 127.855 116.654 127.726 116.78C127.503 116.993 127.417 117.173 127.445 117.18C127.473 117.187 127.575 117.044 127.801 116.871C127.933 116.768 128.079 116.683 128.234 116.617C128.324 116.579 128.417 116.548 128.512 116.524C128.612 116.493 128.701 116.493 128.729 116.524C128.757 116.555 128.729 116.549 128.729 116.58C128.697 116.613 128.662 116.643 128.624 116.667C128.541 116.723 128.455 116.773 128.367 116.819C128.217 116.897 128.061 116.962 127.9 117.011C127.742 117.038 127.586 117.078 127.435 117.131V117.131Z" fill="#263238"/>
<path d="M127.496 117.195C127.586 117.054 127.628 116.888 127.617 116.722C127.623 116.541 127.597 116.36 127.54 116.187C127.508 116.08 127.464 115.976 127.41 115.878C127.384 115.815 127.341 115.76 127.287 115.719C127.233 115.677 127.169 115.65 127.101 115.64C127.058 115.642 127.017 115.656 126.981 115.681C126.946 115.705 126.918 115.739 126.901 115.779C126.879 115.836 126.863 115.897 126.855 115.958C126.84 116.067 126.84 116.177 126.855 116.286C126.887 116.468 126.962 116.64 127.075 116.786C127.27 117.037 127.475 117.095 127.475 117.074C127.363 116.965 127.259 116.847 127.166 116.721C127.079 116.582 127.023 116.426 127.002 116.263C126.989 116.17 126.989 116.075 127.002 115.982C127.017 115.877 127.055 115.793 127.092 115.803C127.167 115.834 127.228 115.89 127.265 115.961C127.317 116.044 127.36 116.132 127.392 116.224C127.451 116.38 127.486 116.544 127.497 116.71C127.518 117.009 127.462 117.189 127.496 117.195Z" fill="#263238"/>
<path d="M152.692 92.985C152.692 92.985 151.628 98.454 149.855 98.531C147.69 98.624 131.961 98.84 131.961 98.84L132.917 116.351L126.056 116.187L123.31 98.933C123.005 97.3846 123.264 95.7782 124.04 94.404L124.096 94.304C124.682 93.3394 125.507 92.5418 126.491 91.9877C127.474 91.4337 128.584 91.1417 129.713 91.14L142.773 90.94L152.692 92.985Z" fill="#263238"/>
<path d="M139.31 71.028L141.382 84.792L139.982 90.978L152.708 94.724C153.859 93.078 153.902 87.854 153.862 84.157C153.791 77.643 154.079 77.327 153.797 75.041C153.515 72.755 153.036 71.289 151.83 70.568L148.358 68.792C147.41 69.4154 146.335 69.8183 145.212 69.971C144.42 70.0022 143.642 69.7572 143.012 69.278C143.016 69.268 140.145 70.134 139.31 71.028Z" fill="#A53DFF"/>
<path d="M139.309 71.029L135.068 76.875L140.843 80.265L140.401 78.14L139.309 71.029Z" fill="#A53DFF"/>
<path d="M129.204 91.222C129.179 91.2271 129.154 91.2271 129.13 91.222L128.917 91.237C128.799 91.2447 128.682 91.2591 128.567 91.28C128.409 91.299 128.253 91.3281 128.1 91.367C127.115 91.6077 126.205 92.0887 125.452 92.767C124.934 93.2333 124.489 93.7743 124.131 94.372C123.721 95.0571 123.467 95.8238 123.386 96.618C123.312 97.5005 123.346 98.3886 123.486 99.263C123.613 100.191 123.795 101.119 123.891 102.106C124.111 104.055 124.404 105.906 124.68 107.584C124.956 109.262 125.221 110.77 125.435 112.044C125.649 113.318 125.815 114.344 125.918 115.057C125.964 115.403 126.001 115.676 126.029 115.88C126.032 115.951 126.041 116.023 126.054 116.093C126.056 116.118 126.056 116.142 126.054 116.167C126.044 116.144 126.037 116.12 126.035 116.096C126.027 116.024 126.012 115.953 125.992 115.883L125.853 115.066C125.723 114.342 125.544 113.321 125.321 112.066C125.098 110.811 124.829 109.282 124.532 107.612C124.235 105.942 123.947 104.083 123.732 102.125C123.632 101.151 123.457 100.21 123.332 99.288C123.19 98.4012 123.16 97.5002 123.242 96.606C123.326 95.7912 123.592 95.0056 124.018 94.306C124.386 93.6984 124.845 93.1507 125.379 92.682C126.15 91.9992 127.083 91.5243 128.089 91.302C128.455 91.2252 128.83 91.1983 129.204 91.222Z" fill="#455A64"/>
<path d="M134.078 86.977C134.078 86.977 138.987 88.561 142.804 89.943C143.453 90.1783 144.149 90.2495 144.831 90.1502C145.513 90.0509 146.16 89.7842 146.714 89.374V89.374C147.424 88.8504 147.949 88.1151 148.214 87.274L150.828 79.04L146.463 77.512L143.546 84.912L132.689 83.491" fill="#FFBE9D"/>
<path d="M127.585 85.279L127.545 84.889C127.572 84.6014 127.692 84.3302 127.885 84.116C127.99 83.999 128.116 83.9024 128.256 83.831L129.54 83.16C129.731 83.0626 129.948 83.0276 130.159 83.06L132.791 83.509L135.813 83.909L135.194 87.355L133.794 86.891C133.298 87.1785 132.732 87.3261 132.158 87.318C132.158 87.318 131.58 87.705 131.341 87.418C131.341 87.418 130.824 87.863 130.63 87.836C130.436 87.809 130.052 87.582 130.067 87.449L130.082 87.27C129.983 87.3241 129.871 87.3502 129.759 87.3452C129.646 87.3403 129.536 87.3046 129.442 87.242C129.309 87.1389 129.207 87.0003 129.148 86.842C128.907 86.817 128.679 86.7189 128.495 86.561C128.374 86.3827 128.293 86.1799 128.257 85.967C128.257 85.967 127.681 85.681 127.585 85.279Z" fill="#FFBE9D"/>
<path d="M129.529 84.033C129.548 84.033 129.578 84.175 129.514 84.392C129.419 84.6663 129.26 84.9143 129.05 85.116C128.818 85.354 128.601 85.549 128.468 85.71C128.335 85.871 128.268 85.982 128.242 85.973C128.216 85.964 128.242 85.828 128.378 85.642C128.542 85.4125 128.728 85.1992 128.932 85.005C129.126 84.8147 129.286 84.5941 129.408 84.352C129.491 84.163 129.501 84.033 129.529 84.033Z" fill="#EB996E"/>
<path d="M130.031 85.409C129.883 85.9605 129.563 86.4508 129.119 86.809C129.232 86.5525 129.378 86.3113 129.552 86.091C129.802 85.712 129.987 85.391 130.031 85.409Z" fill="#EB996E"/>
<path d="M130.702 86.318C130.739 86.343 130.631 86.565 130.458 86.818C130.285 87.071 130.118 87.257 130.081 87.229C130.044 87.201 130.155 86.978 130.325 86.729C130.495 86.48 130.665 86.293 130.702 86.318Z" fill="#EB996E"/>
<path d="M130.577 85.957C130.577 85.976 130.509 85.979 130.429 85.929C130.377 85.894 130.333 85.8484 130.299 85.7952C130.265 85.742 130.243 85.6823 130.234 85.62C130.224 85.559 130.226 85.4965 130.243 85.4367C130.259 85.3769 130.288 85.3214 130.327 85.274C130.386 85.203 130.445 85.184 130.46 85.2C130.409 85.3268 130.386 85.4633 130.392 85.6C130.425 85.802 130.595 85.916 130.577 85.957Z" fill="#EB996E"/>
<path d="M131.311 86.882C131.311 86.901 131.255 86.904 131.187 86.882C131.143 86.8561 131.106 86.8216 131.076 86.7807C131.046 86.7398 131.025 86.6933 131.014 86.644C130.995 86.5901 130.992 86.5316 131.007 86.4764C131.022 86.4211 131.054 86.3718 131.098 86.335C131.178 86.279 131.24 86.316 131.234 86.335C131.199 86.3671 131.175 86.4086 131.164 86.4542C131.153 86.4999 131.156 86.5478 131.172 86.592C131.205 86.749 131.329 86.842 131.311 86.882Z" fill="#EB996E"/>
<path d="M130.15 84.973C130.15 84.992 130.082 85.007 129.989 84.973C129.928 84.9428 129.875 84.8972 129.836 84.8406C129.797 84.784 129.773 84.7184 129.767 84.6499C129.761 84.5815 129.772 84.5126 129.8 84.4499C129.828 84.3872 129.872 84.3328 129.927 84.292C130.011 84.233 130.079 84.239 130.082 84.258C129.986 84.36 129.93 84.4944 129.927 84.635C129.946 84.855 130.163 84.935 130.15 84.973Z" fill="#EB996E"/>
<path d="M150.851 71.682C150.34 71.5051 149.788 71.4824 149.265 71.6167C148.741 71.7509 148.269 72.0362 147.906 72.437C147.253 73.222 146.788 74.1453 146.545 75.137C146.236 76.096 145.499 77.943 145.199 78.867L150.86 81.289C151.342 79.9837 151.792 78.667 152.209 77.339C152.675 76.26 152.77 75.0571 152.481 73.918" fill="#A53DFF"/>
<path d="M152.478 73.917C152.503 73.9596 152.523 74.0053 152.537 74.053C152.586 74.1862 152.622 74.3239 152.645 74.464C152.733 74.9897 152.72 75.5275 152.605 76.048C152.432 76.8404 152.203 77.6196 151.921 78.38C151.612 79.265 151.302 80.251 150.934 81.312L150.906 81.389L150.826 81.355L146.842 79.655L145.165 78.937L145.097 78.906L145.119 78.844C145.577 77.495 146.087 76.261 146.471 75.132C146.639 74.5846 146.846 74.0499 147.09 73.532C147.308 73.07 147.608 72.651 147.975 72.295C148.535 71.7669 149.277 71.4744 150.047 71.478C150.257 71.4844 150.466 71.5218 150.666 71.589C150.733 71.6126 150.798 71.6417 150.861 71.676C150.6 71.5897 150.328 71.5419 150.054 71.534C149.306 71.549 148.591 71.8462 148.054 72.366C147.705 72.7133 147.42 73.1195 147.213 73.566C146.978 74.0815 146.78 74.6128 146.619 75.156C146.245 76.304 145.734 77.544 145.286 78.883L145.24 78.79L146.92 79.508L150.898 81.215L150.79 81.258C151.155 80.197 151.495 79.216 151.802 78.335C152.09 77.581 152.329 76.809 152.517 76.024C152.636 75.5175 152.666 74.9938 152.604 74.477C152.54 74.109 152.466 73.92 152.478 73.917Z" fill="#263238"/>
<path d="M145.228 87.742C145.209 87.742 145.166 87.433 144.974 86.867C144.856 86.5331 144.699 86.2142 144.507 85.917C144.261 85.5265 143.923 85.2027 143.523 84.974H143.538L137.41 84.174L133.698 83.674L132.086 83.451L130.686 83.225L130.067 83.125C129.895 83.0952 129.718 83.1271 129.567 83.215L128.772 83.599L128.272 83.837C128.215 83.8685 128.153 83.8924 128.09 83.908C128.143 83.8703 128.199 83.8369 128.257 83.808L128.749 83.545L129.532 83.137C129.7 83.0364 129.898 82.9971 130.092 83.026L130.711 83.113L132.111 83.313L133.726 83.523L137.438 84.009L143.556 84.847H143.575C143.994 85.0885 144.344 85.4326 144.593 85.847C144.783 86.1538 144.934 86.4834 145.042 86.828C145.11 87.0438 145.164 87.264 145.203 87.487C145.221 87.5708 145.229 87.6563 145.228 87.742V87.742Z" fill="#EB996E"/>
<path d="M141.383 84.564C141.34 84.4188 141.312 84.2697 141.299 84.119C141.246 83.81 141.181 83.395 141.104 82.903C140.928 81.848 140.696 80.444 140.439 78.882C140.182 77.32 139.947 75.925 139.774 74.861C139.697 74.369 139.635 73.961 139.585 73.642C139.553 73.4934 139.536 73.3419 139.536 73.19C139.586 73.3325 139.623 73.4795 139.647 73.629L139.885 74.842C140.08 75.866 140.337 77.279 140.6 78.863C140.863 80.447 141.079 81.854 141.219 82.884C141.29 83.401 141.337 83.812 141.364 84.121C141.384 84.2677 141.391 84.4161 141.383 84.564V84.564Z" fill="#263238"/>
<path d="M200 152.278C200 152.324 155.228 152.358 100.014 152.358C44.7997 152.358 0.0217285 152.325 0.0217285 152.278C0.0217285 152.231 44.7837 152.198 100.022 152.198C155.26 152.198 200 152.235 200 152.278Z" fill="#263238"/>
<path d="M6.01587 141.965C5.89962 142.094 5.75767 142.196 5.59921 142.267C5.44074 142.337 5.26927 142.374 5.09588 142.374C4.92248 142.374 4.75101 142.337 4.59255 142.267C4.43408 142.196 4.29213 142.094 4.17587 141.965C3.79263 141.498 3.5379 140.939 3.43688 140.344C2.98748 139.043 2.86118 137.653 3.06888 136.292C3.14593 135.887 3.33429 135.511 3.61287 135.206C3.75339 135.056 3.93082 134.946 4.12739 134.886C4.32396 134.826 4.53277 134.82 4.73287 134.866C4.95567 134.964 5.15527 135.107 5.3185 135.288C5.48173 135.468 5.6049 135.681 5.67988 135.912C6.26209 137.217 6.54827 138.634 6.51787 140.063C6.54313 140.732 6.3691 141.393 6.01787 141.963" fill="#A53DFF"/>
<g opacity="0.2">
<path d="M6.01587 141.965C5.89962 142.094 5.75767 142.196 5.59921 142.267C5.44074 142.337 5.26927 142.374 5.09588 142.374C4.92248 142.374 4.75101 142.337 4.59255 142.267C4.43408 142.196 4.29213 142.094 4.17587 141.965C3.79263 141.498 3.5379 140.939 3.43688 140.344C2.98748 139.043 2.86118 137.653 3.06888 136.292C3.14593 135.887 3.33429 135.511 3.61287 135.206C3.75339 135.056 3.93082 134.946 4.12739 134.886C4.32396 134.826 4.53277 134.82 4.73287 134.866C4.95567 134.964 5.15527 135.107 5.3185 135.288C5.48173 135.468 5.6049 135.681 5.67988 135.912C6.26209 137.217 6.54827 138.634 6.51787 140.063C6.54313 140.732 6.3691 141.393 6.01787 141.963" fill="black"/>
</g>
<path d="M4.12883 145.377C3.3375 144.981 2.44018 144.847 1.56783 144.997C1.09195 145.028 0.63953 145.215 0.280829 145.529C0.110532 145.694 0.0106404 145.918 0.00206606 146.155C-0.00650823 146.392 0.076902 146.623 0.234831 146.8C0.466469 146.963 0.74711 147.042 1.02983 147.023C1.70536 146.913 2.3983 147.031 2.99983 147.357C3.30883 147.601 3.49983 147.994 3.86883 148.118C4.05259 148.167 4.24719 148.154 4.42302 148.082C4.59884 148.009 4.74626 147.882 4.84283 147.718C5.02795 147.383 5.07768 146.989 4.98183 146.618C4.94452 146.36 4.84817 146.113 4.70024 145.898C4.55231 145.683 4.35678 145.504 4.12883 145.377Z" fill="#A53DFF"/>
<path d="M7.30277 142.98C7.06456 142.652 6.91036 142.272 6.85369 141.871C6.79703 141.47 6.83963 141.061 6.97777 140.68C7.25791 139.92 7.74237 139.252 8.37777 138.75C9.10643 138.138 9.947 137.674 10.8528 137.383C11.2038 137.252 11.5792 137.199 11.9528 137.228C12.1386 137.243 12.3178 137.304 12.4747 137.405C12.6316 137.506 12.7614 137.643 12.8528 137.806C12.9332 138.069 12.947 138.348 12.8931 138.618C12.8392 138.888 12.7192 139.141 12.5438 139.353C12.0537 140.19 11.4983 140.988 10.8828 141.738C10.4278 142.377 9.8077 142.881 9.08877 143.195C8.78727 143.35 8.44394 143.403 8.10964 143.348C7.77535 143.292 7.46787 143.13 7.23277 142.886" fill="#A53DFF"/>
<path d="M5.77179 152.278C5.74872 152.177 5.73731 152.073 5.73779 151.969C5.71879 151.74 5.70079 151.456 5.67579 151.118C5.64502 150.703 5.59228 150.29 5.51779 149.881C5.42063 149.378 5.28319 148.883 5.10679 148.402C4.93446 147.919 4.69367 147.464 4.39179 147.05C4.14627 146.715 3.8293 146.438 3.46379 146.24C3.21598 146.108 2.94861 146.016 2.67179 145.968C2.56706 145.963 2.46332 145.945 2.36279 145.915C2.46552 145.904 2.56907 145.904 2.67179 145.915C2.95921 145.944 3.23903 146.025 3.4978 146.153C3.88342 146.349 4.21902 146.63 4.47879 146.976C4.79233 147.396 5.04141 147.86 5.21779 148.353C5.40031 148.834 5.54018 149.33 5.63579 149.835C5.705 150.253 5.74941 150.674 5.7688 151.097C5.7688 151.459 5.78779 151.75 5.78779 151.951C5.79338 152.06 5.78802 152.17 5.77179 152.278V152.278Z" fill="#263238"/>
<path d="M5.73182 151.622C5.72513 151.574 5.72513 151.525 5.73182 151.477V151.066C5.73182 150.71 5.75682 150.191 5.75382 149.553C5.75382 148.272 5.69482 146.506 5.53382 144.561C5.37282 142.616 5.13382 140.849 4.91482 139.612C4.86182 139.303 4.80982 139.012 4.75682 138.764C4.70382 138.516 4.66682 138.3 4.62682 138.124C4.58682 137.948 4.56182 137.815 4.53982 137.724C4.52763 137.678 4.52027 137.63 4.51782 137.582C4.53654 137.626 4.55192 137.672 4.56382 137.718C4.58882 137.808 4.62882 137.953 4.67182 138.118C4.71482 138.283 4.77182 138.505 4.82682 138.752C4.88182 138.999 4.94482 139.284 5.00282 139.6C5.31175 141.237 5.53273 142.889 5.66482 144.549C5.82582 146.498 5.87482 148.261 5.85082 149.549C5.85082 150.189 5.81382 150.709 5.78582 151.065C5.78186 151.203 5.77051 151.34 5.75182 151.476C5.74843 151.525 5.74174 151.574 5.73182 151.622V151.622Z" fill="#263238"/>
<path d="M5.81486 148.21C5.80195 148.066 5.80195 147.921 5.81486 147.777C5.83986 147.502 5.88586 147.103 5.97886 146.617C6.22433 145.346 6.62324 144.11 7.16686 142.936C7.6897 141.748 8.42317 140.663 9.33186 139.736C9.48929 139.579 9.65628 139.431 9.83186 139.294C9.90886 139.232 9.97686 139.17 10.0449 139.121L10.2399 138.994C10.3567 138.911 10.4798 138.838 10.6079 138.774C10.1817 139.091 9.77564 139.434 9.39186 139.801C8.50933 140.734 7.79179 141.81 7.26986 142.984C6.97502 143.625 6.72182 144.284 6.51186 144.957C6.33346 145.506 6.1836 146.063 6.06286 146.627C5.96286 147.11 5.89886 147.505 5.86286 147.778C5.85671 147.923 5.84067 148.067 5.81486 148.21Z" fill="#263238"/>
</svg>
