<svg width="200" height="200" viewBox="0 0 200 200" fill="none" xmlns="http://www.w3.org/2000/svg">
<g style="mix-blend-mode:multiply">
<path d="M99.7491 181.266C153.644 181.266 197.335 178.715 197.335 175.569C197.335 172.423 153.644 169.872 99.7491 169.872C45.8538 169.872 2.16309 172.423 2.16309 175.569C2.16309 178.715 45.8538 181.266 99.7491 181.266Z" fill="#F5F5F5"/>
</g>
<path d="M135.402 145.417H131.376V174.996H135.402V145.417Z" fill="#C67F41"/>
<path d="M138.377 163.591L138.035 161.739H128.747L128.405 163.591C128.27 164.295 127.895 164.931 127.345 165.39C126.794 165.848 126.102 166.102 125.385 166.108V166.108V171.956H141.43V166.113C140.706 166.117 140.003 165.867 139.445 165.406C138.887 164.945 138.508 164.303 138.375 163.591H138.377Z" fill="#C67F41"/>
<path opacity="0.5" d="M138.377 163.591L138.035 161.739H128.747L128.405 163.591C128.27 164.295 127.895 164.931 127.345 165.39C126.794 165.848 126.102 166.102 125.385 166.108V166.108V171.956H141.43V166.113C140.706 166.117 140.003 165.867 139.445 165.406C138.887 164.945 138.508 164.303 138.375 163.591H138.377Z" fill="white"/>
<path d="M153.028 173.486H113.77L117.852 167.446C118.146 167.012 118.542 166.656 119.005 166.41C119.469 166.165 119.986 166.037 120.51 166.037H146.304C146.828 166.037 147.345 166.165 147.808 166.411C148.271 166.656 148.667 167.012 148.961 167.446L153.028 173.486Z" fill="#C67F41"/>
<path opacity="0.3" d="M153.028 173.486H113.77L117.852 167.446C118.146 167.012 118.542 166.656 119.005 166.41C119.469 166.165 119.986 166.037 120.51 166.037H146.304C146.828 166.037 147.345 166.165 147.808 166.411C148.271 166.656 148.667 167.012 148.961 167.446L153.028 173.486Z" fill="white"/>
<path d="M105.008 171.76H161.776C162.259 171.76 162.722 171.952 163.064 172.294C163.406 172.635 163.598 173.099 163.598 173.582V175.243H103.198V173.582C103.198 173.101 103.388 172.64 103.726 172.299C104.065 171.958 104.524 171.764 105.005 171.76H105.008Z" fill="#C67F41"/>
<path opacity="0.5" d="M105.008 171.76H161.776C162.259 171.76 162.722 171.952 163.064 172.294C163.406 172.635 163.598 173.099 163.598 173.582V175.243H103.198V173.582C103.198 173.101 103.388 172.64 103.726 172.299C104.065 171.958 104.524 171.764 105.005 171.76H105.008Z" fill="white"/>
<path d="M132.554 147.404C120.363 147.412 108.403 144.086 97.9668 137.786L100.041 134.338C107.163 138.623 115.059 141.462 123.279 142.695C131.498 143.928 139.88 143.53 147.946 141.524C156.011 139.517 163.603 135.942 170.287 131.002C176.971 126.062 182.616 119.853 186.901 112.731C191.185 105.609 194.025 97.7128 195.258 89.4933C196.491 81.2737 196.093 72.8918 194.087 64.8261C192.08 56.7604 188.505 49.1689 183.564 42.485C178.624 35.8011 172.416 30.1557 165.294 25.8711L167.373 22.4231C179.994 30.01 189.778 41.527 195.225 55.2081C200.672 68.8893 201.482 83.9795 197.53 98.165C193.578 112.35 185.082 124.848 173.346 133.742C161.609 142.636 147.279 147.435 132.554 147.403V147.404Z" fill="#C67F41"/>
<g opacity="0.3">
<path d="M132.554 147.404C120.363 147.412 108.403 144.086 97.9668 137.786L100.041 134.338C107.163 138.623 115.059 141.462 123.279 142.695C131.498 143.928 139.88 143.53 147.946 141.524C156.011 139.517 163.603 135.942 170.287 131.002C176.971 126.062 182.616 119.853 186.901 112.731C191.185 105.609 194.025 97.7128 195.258 89.4933C196.491 81.2737 196.093 72.8918 194.087 64.8261C192.08 56.7604 188.505 49.1689 183.564 42.485C178.624 35.8011 172.416 30.1557 165.294 25.8711L167.373 22.4231C179.994 30.01 189.778 41.527 195.225 55.2081C200.672 68.8893 201.482 83.9795 197.53 98.165C193.578 112.35 185.082 124.848 173.346 133.742C161.609 142.636 147.279 147.435 132.554 147.403V147.404Z" fill="white"/>
</g>
<path d="M168.147 19.6839L95.8931 139.744L97.1868 140.523L169.44 20.4626L168.147 19.6839Z" fill="#C67F41"/>
<path d="M170.559 21.1351C170.348 21.4856 170.037 21.7654 169.666 21.9392C169.296 22.1131 168.882 22.1731 168.477 22.1116C168.073 22.0502 167.695 21.8701 167.393 21.5942C167.091 21.3182 166.877 20.9588 166.779 20.5614C166.681 20.164 166.703 19.7464 166.842 19.3615C166.982 18.9767 167.232 18.6418 167.562 18.3993C167.892 18.1568 168.286 18.0175 168.695 17.9992C169.104 17.9808 169.509 18.0841 169.859 18.2961C170.328 18.58 170.665 19.0385 170.797 19.5708C170.928 20.1031 170.842 20.6657 170.559 21.1351V21.1351Z" fill="#C67F41"/>
<path d="M98.3189 141.224C98.1074 141.575 97.7967 141.854 97.4262 142.028C97.0556 142.202 96.6418 142.262 96.2371 142.201C95.8324 142.139 95.455 141.959 95.1527 141.683C94.8503 141.407 94.6367 141.048 94.5387 140.65C94.4407 140.253 94.4628 139.835 94.6022 139.451C94.7415 139.066 94.992 138.731 95.3217 138.488C95.6515 138.246 96.0458 138.107 96.4547 138.088C96.8636 138.07 97.2688 138.173 97.6189 138.385C98.088 138.669 98.4251 139.127 98.5564 139.66C98.6876 140.192 98.6022 140.755 98.3189 141.224Z" fill="#C67F41"/>
<g opacity="0.3">
<path d="M170.559 21.1351C170.348 21.4856 170.037 21.7654 169.666 21.9392C169.296 22.1131 168.882 22.1731 168.477 22.1116C168.073 22.0502 167.695 21.8701 167.393 21.5942C167.091 21.3182 166.877 20.9588 166.779 20.5614C166.681 20.164 166.703 19.7464 166.842 19.3615C166.982 18.9767 167.232 18.6418 167.562 18.3993C167.892 18.1568 168.286 18.0175 168.695 17.9992C169.104 17.9808 169.509 18.0841 169.859 18.2961C170.328 18.58 170.665 19.0385 170.797 19.5708C170.928 20.1031 170.842 20.6657 170.559 21.1351V21.1351Z" fill="white"/>
</g>
<g opacity="0.3">
<path d="M98.3189 141.223C98.1074 141.574 97.7967 141.853 97.4262 142.027C97.0556 142.201 96.6418 142.261 96.2371 142.2C95.8324 142.138 95.455 141.958 95.1527 141.682C94.8503 141.406 94.6367 141.047 94.5387 140.649C94.4407 140.252 94.4628 139.834 94.6022 139.45C94.7415 139.065 94.992 138.73 95.3217 138.487C95.6515 138.245 96.0458 138.106 96.4547 138.087C96.8636 138.069 97.2688 138.172 97.6189 138.384C98.088 138.668 98.4251 139.126 98.5564 139.659C98.6876 140.191 98.6022 140.754 98.3189 141.223Z" fill="white"/>
</g>
<path d="M78.0412 52.2501C78.9577 50.455 79.9657 48.708 81.0612 47.0161C89.2898 34.2088 101.986 24.9182 116.683 20.9501C131.38 16.982 147.027 18.6198 160.583 25.5451C160.915 25.7161 161.247 25.8871 161.59 26.0451C168.197 29.565 174.101 34.2679 179.009 39.9201V39.9201C186.321 48.3532 191.196 58.6199 193.11 69.6163C195.023 80.6126 193.903 91.9226 189.87 102.33C189.11 104.282 188.251 106.193 187.298 108.058C179.878 122.526 167.019 133.457 151.545 138.45C136.071 143.443 119.247 142.09 104.771 134.687C90.2939 127.284 79.3478 114.437 74.3369 98.9686C69.3259 83.5003 70.6601 66.6754 78.0462 52.1901L78.0412 52.2501Z" fill="#C67F41"/>
<path opacity="0.4" d="M95.718 111.338C94.646 110.905 93.534 111.922 92.794 112.848L89.462 116.975C90.881 118.827 89.538 121.032 87.856 122.129C79.2318 112.907 73.6602 101.251 71.9002 88.7484C70.1403 76.2456 72.2776 63.5042 78.021 52.2601C78.9375 50.465 79.9455 48.718 81.041 47.0261H81.222C83.069 47.0961 83.577 48.9741 84.327 50.2721C84.493 50.5641 86.927 53.8451 87.201 53.4281C86.316 54.7814 85.6376 56.2589 85.188 57.8121C85.144 57.927 85.144 58.0542 85.188 58.1691C85.324 58.4261 85.688 58.2601 85.923 58.0531C86.423 57.5531 86.874 56.9101 87.433 56.4171C87.6942 56.1549 88.01 55.9535 88.358 55.8274C88.7059 55.7012 89.0774 55.6533 89.446 55.6871C90.176 55.8181 90.746 56.4071 91.459 56.6581C91.8972 56.7846 92.3582 56.8113 92.8081 56.7364C93.258 56.6615 93.6854 56.4868 94.059 56.2251C94.7721 55.7108 95.4152 55.1057 95.972 54.4251C95.851 56.5341 98.348 56.4941 98.772 58.4511C98.913 59.0851 99.019 59.9611 99.672 60.0161C100.325 60.0711 100.794 59.2361 101.372 59.4521C101.78 59.6031 101.84 60.1671 101.699 60.5741C101.499 60.9562 101.353 61.3645 101.266 61.7871C101.265 61.9375 101.293 62.0866 101.351 62.2256C101.408 62.3647 101.493 62.4907 101.6 62.5963C101.707 62.7019 101.834 62.7849 101.974 62.8404C102.114 62.8958 102.264 62.9226 102.414 62.9191C102.945 62.7875 103.439 62.5361 103.858 62.1841C104.331 61.9071 105.058 61.8571 105.302 62.3451C105.354 62.462 105.38 62.5891 105.377 62.7171C105.377 63.6431 104.491 64.3021 103.646 64.6851C102.751 64.9433 101.957 65.4704 101.371 66.1951C101.42 66.2832 101.485 66.3607 101.564 66.4232C101.643 66.4857 101.734 66.5318 101.831 66.559C101.928 66.5862 102.029 66.5938 102.129 66.5815C102.229 66.5691 102.326 66.537 102.413 66.4871C102.521 66.3956 102.643 66.3227 102.775 66.2711C103.075 66.2061 103.275 66.5331 103.449 66.7991C103.813 67.4309 104.297 67.9846 104.875 68.4286C105.454 68.8725 106.114 69.1979 106.818 69.3861L109.687 64.5541C110.07 64.7351 110.306 64.8311 110.648 64.5191C111.262 66.3761 111.725 68.2741 112.525 70.0801C112.645 70.2872 112.698 70.5266 112.676 70.7651C112.621 71.0021 112.419 71.1831 112.319 71.4091C111.987 72.1541 112.858 72.8481 113.592 73.2091C113.743 73.4361 113.441 73.7091 113.169 73.7091C112.902 73.6685 112.634 73.6452 112.364 73.6391C112.172 73.7049 112.004 73.825 111.88 73.9849C111.756 74.1447 111.681 74.3373 111.664 74.5391C111.561 75.2374 111.736 75.9483 112.151 76.5193C112.566 77.0903 113.188 77.4761 113.884 77.5941C114.052 77.6311 114.228 77.6118 114.384 77.5391C114.711 77.3631 114.721 76.9151 114.857 76.5731C115.396 75.2191 116.624 76.2411 117.082 76.9251C117.332 77.4651 117.471 78.0497 117.492 78.6444C117.513 79.2391 117.415 79.8319 117.203 80.3881C116.841 81.5561 113.957 89.0651 116.836 89.3171C117.108 89.3211 117.374 89.2341 117.591 89.0701C118.27 88.6021 118.648 87.8171 119.252 87.2581C119.856 86.6991 120.963 86.4881 121.416 87.1721C121.597 87.4491 121.622 87.8011 121.783 88.0881C122.226 88.8881 123.474 88.8531 124.043 89.5981C124.249 89.9644 124.426 90.3466 124.571 90.7411C124.771 91.1131 125.22 91.4361 125.578 91.2411C125.936 91.0461 125.978 90.3651 126.378 90.0981C126.778 89.8311 127.385 90.2391 127.425 90.7371C127.412 90.9854 127.327 91.2246 127.181 91.4256C127.034 91.6266 126.832 91.7807 126.6 91.8691C126.351 91.9418 126.122 92.0708 125.931 92.2461C125.631 92.6031 125.845 93.1371 126.062 93.5461C126.404 94.2001 126.752 94.8551 127.099 95.5091C126.962 95.6723 126.78 95.7917 126.576 95.8525C126.372 95.9133 126.155 95.9128 125.951 95.8511C125.538 95.7601 125.151 95.5591 124.733 95.4891C122.72 95.1671 121.381 97.7341 119.378 96.0531C119.486 95.8948 119.555 95.7136 119.581 95.5238C119.606 95.3341 119.587 95.141 119.525 94.9598C119.463 94.7786 119.36 94.6144 119.224 94.4801C119.087 94.3458 118.921 94.2451 118.739 94.1861C117.803 93.9601 116.65 94.8651 115.951 94.1861C115.704 93.9591 115.619 93.5971 115.362 93.3761C114.662 92.7761 113.631 93.7941 113.132 94.2011C111.486 95.5501 112.538 96.3601 111.682 97.8851C111.294 98.5851 110.459 98.8921 109.966 99.5411C109.473 100.19 109.392 100.9 108.959 101.499C107.796 103.155 106.005 100.85 105.068 100.105C105.108 101.405 103.629 102.194 102.35 102.415C100.377 102.752 100.669 102.787 99.688 104.242C99.5684 104.442 99.3962 104.605 99.1901 104.713C98.9841 104.821 98.7523 104.871 98.52 104.856C97.72 104.745 97.408 103.734 96.733 103.296C96.406 103.085 96.003 103.009 95.696 102.796C94.881 102.182 95.142 100.929 94.921 99.9371C94.8193 99.5028 94.615 99.0992 94.3251 98.7603C94.0352 98.4213 93.6682 98.1569 93.255 97.9891C92.9517 98.4119 92.7078 98.8742 92.53 99.3631L93.537 101.063C93.8727 101.544 94.0947 102.095 94.186 102.674C94.1651 103.001 94.1958 103.328 94.277 103.645C94.519 104.245 95.284 104.365 95.893 104.626C97.332 105.26 99.154 107.314 100.272 108.451C101.46 109.669 101.435 110.942 102.517 112.085C102.557 112.141 102.584 112.205 102.597 112.272C102.61 112.34 102.608 112.409 102.591 112.476C102.574 112.542 102.543 112.605 102.5 112.658C102.457 112.711 102.403 112.755 102.341 112.785C102.081 112.891 101.791 112.891 101.531 112.785C100.915 112.585 100.383 112.185 100.021 111.648C100.489 112.348 97.741 112.936 97.353 112.836C96.719 112.665 96.175 111.829 95.612 111.507C94.212 110.687 93.226 110.541 93.357 112.594C93.407 113.379 93.432 114.361 92.738 114.728C92.5726 114.564 92.3553 114.462 92.1231 114.44C91.891 114.418 91.6584 114.477 91.465 114.607C91.0833 114.876 90.8005 115.262 90.66 115.707C90.5226 115.992 90.4873 116.315 90.56 116.623C90.6371 116.772 90.6978 116.929 90.741 117.091C90.796 117.635 90.016 117.786 89.478 117.725" fill="#C67F41"/>
<path opacity="0.4" d="M175.793 73.7811C175.521 73.2121 174.746 73.1521 174.117 73.2171C173.488 73.2821 172.758 73.3631 172.33 72.9001L173.337 70.9371C173.412 70.8209 173.441 70.6806 173.418 70.5441C173.387 70.481 173.344 70.425 173.29 70.3799C173.236 70.3347 173.173 70.3014 173.106 70.2821L171.823 69.6881C171.274 69.8881 172.004 70.8611 171.607 71.2881C171.431 71.4741 171.134 71.4391 170.872 71.4441C168.678 71.4741 168.772 73.9611 169.005 75.4051C169.282 77.0811 168.366 78.6971 167.495 80.1561C167.178 80.6561 166.8 81.2381 166.207 81.3741C165.606 81.3951 165.008 81.2905 164.45 81.0671C163.443 80.8611 162.386 81.3241 161.345 81.2991C157.686 81.2181 157.389 77.1061 159.614 75.1441C160.767 74.1371 160.852 74.4801 161.275 72.9751C161.456 72.3461 161.99 71.7751 161.602 71.0831C161.499 70.9131 161.355 70.772 161.182 70.6731C161.01 70.5742 160.815 70.5208 160.616 70.5178C160.418 70.5148 160.221 70.5623 160.046 70.656C159.871 70.7496 159.722 70.8863 159.614 71.0531C159.093 71.6905 158.737 72.4459 158.577 73.2531C157.753 72.5712 156.819 72.0352 155.814 71.6681C155.715 71.8858 155.562 72.0744 155.37 72.2156C155.177 72.3569 154.951 72.4459 154.713 72.4743C154.476 72.5027 154.236 72.4693 154.015 72.3775C153.794 72.2857 153.601 72.1385 153.454 71.9501C153.696 71.5371 153.887 70.8931 153.454 70.6771C153.326 70.6213 153.184 70.6023 153.046 70.6221C152.462 70.6521 151.883 70.7981 151.3 70.7731C150.4 70.7331 148.406 69.4951 147.576 70.3001C147.43 70.4411 147.334 70.6271 147.176 70.7631C147.001 70.8924 146.786 70.9548 146.569 70.939C146.352 70.9232 146.147 70.8303 145.993 70.6771C145.846 70.5161 145.744 70.319 145.698 70.106C145.652 69.8929 145.664 69.6714 145.731 69.4641C145.847 69.1995 145.95 68.9292 146.038 68.6541C146.375 67.1441 144.488 67.4861 144.065 66.8171C143.87 65.6698 143.833 64.5014 143.954 63.3441C143.482 63.5834 142.962 63.7106 142.432 63.7159C141.903 63.7211 141.38 63.6041 140.904 63.3741C139.897 62.7801 139.867 61.7131 140.159 60.5741C140.451 59.4351 141.12 58.0881 141.291 57.1871C141.382 56.6871 141.538 56.1401 142.001 55.9741C142.58 55.7631 143.289 56.3261 143.801 55.9741C143.954 55.8527 144.084 55.7043 144.184 55.5361C144.55 55.103 145.071 54.8305 145.635 54.7768C146.2 54.7232 146.763 54.8927 147.204 55.2491C147.632 55.2041 147.878 54.7491 148.095 54.3781C148.312 54.0071 148.724 53.6131 149.102 53.7841C149.48 53.9551 149.459 54.6651 149.223 55.1031C148.978 55.5486 148.676 55.9599 148.323 56.3261C148.021 56.5588 147.801 56.8812 147.694 57.2471C147.683 57.5358 147.758 57.8212 147.91 58.0671C148.179 58.7094 148.642 59.2514 149.234 59.6171C149.536 59.7861 149.89 59.8386 150.228 59.765C150.567 59.6913 150.866 59.4964 151.071 59.2171C151.141 59.0421 151.229 58.8746 151.333 58.7171C151.645 58.3601 152.244 58.4911 152.633 58.7621C152.976 59.0931 153.373 59.3635 153.806 59.5621C154.264 59.6931 154.888 59.3301 154.752 58.8781C155.411 58.9691 156.262 59.2861 156.191 59.9501C156.149 60.1593 156.068 60.3589 155.954 60.5391C155.365 61.7171 155.954 64.1631 157.57 63.4531C158.642 62.9901 158.28 60.9361 159.79 60.8911C160.515 60.8911 161.129 61.5401 161.854 61.5001C162.131 61.3841 161.98 60.9561 161.754 60.7501C161.395 60.4325 160.961 60.2124 160.493 60.111C160.025 60.0096 159.539 60.0303 159.081 60.1711C159.081 59.3151 160.133 58.5811 159.811 57.7951C159.489 57.0091 158.1 57.0101 157.989 56.1741C157.98 55.9322 158.035 55.6923 158.15 55.4791C158.623 54.3791 159.957 52.6151 158.558 51.6641C158.377 51.566 158.209 51.4461 158.058 51.3071C157.645 50.8391 158.028 50.1241 158.405 49.6311C159.089 49.6811 159.472 50.4061 159.865 50.9751C160.258 51.5441 161.088 52.0321 161.571 51.5441C161.918 51.1971 161.863 50.5071 162.316 50.3111C162.527 50.2201 162.784 50.2811 162.98 50.1651C163.458 49.8881 163.035 49.1581 163.171 48.6051C163.352 47.8701 164.449 47.9051 165.099 48.3051C165.749 48.7051 166.382 49.3121 167.112 49.2051C167.349 49.1651 167.57 49.0541 167.802 48.9941C168.549 48.9013 169.304 49.0787 169.931 49.4941C170.993 49.9941 170.852 44.4611 170.963 44.1741C171.824 42.0741 174.436 42.0741 176.278 41.4111C177.227 41.0253 178.129 40.5321 178.966 39.9411C185.91 48.0176 190.652 57.7498 192.732 68.196C194.813 78.6422 194.161 89.4485 190.841 99.5691C190.562 100.497 190.217 101.403 189.809 102.282C188.747 101.275 187.292 99.3531 185.642 99.4481C183.542 99.5791 183.468 102.558 181.253 102.297C180.8 102.055 181.323 101.371 181.253 100.863C181.167 100.589 181.016 100.339 180.815 100.133C180.644 99.9021 180.553 99.5441 180.77 99.3531C180.533 98.8531 179.763 98.9451 179.225 99.1011C178.577 99.3234 177.881 99.3635 177.212 99.2171C175.858 98.8401 175.199 97.3801 174.399 96.2221C173.712 95.2862 172.941 94.4159 172.094 93.6221C172.552 93.8991 173.136 93.3651 173.181 92.8321C173.148 92.2974 173.038 91.7702 172.854 91.2671C172.663 90.3671 173.438 89.8481 173.354 88.9571C173.254 87.8571 172.529 86.7371 172.954 85.7161C173.454 84.4731 175.169 84.3971 176.502 84.5331C176.613 82.8871 175.495 81.1461 176.265 79.6811C176.603 79.1427 177.057 78.6868 177.594 78.3471L180.709 76.0271C181.179 75.7564 181.536 75.326 181.716 74.8141C181.736 74.4997 181.691 74.1846 181.584 73.8885C181.476 73.5923 181.309 73.3215 181.092 73.0931L179.892 71.4321C179.747 71.1888 179.531 70.9956 179.273 70.8781C178.976 70.8164 178.667 70.8685 178.407 71.0241C176.916 71.7276 175.746 72.968 175.13 74.4971C173.354 73.2111 171.745 71.71 170.339 70.0281C169.961 71.2411 168.864 72.2281 168.668 73.4451" fill="#C67F41"/>
<path opacity="0.4" d="M126.072 59.4421C125.714 59.4778 125.369 59.5925 125.061 59.7779C124.753 59.9633 124.489 60.2147 124.29 60.5141C124.105 60.9145 123.945 61.3264 123.812 61.7471C123.74 61.9567 123.612 62.1426 123.442 62.2845C123.271 62.4264 123.065 62.519 122.846 62.5521C122.282 62.5521 121.91 61.9881 121.653 61.4851C121.39 61.1029 121.283 60.6347 121.353 60.1761C121.497 59.8741 121.656 59.58 121.831 59.2951C121.973 58.6431 121.886 57.9622 121.584 57.3671C121.384 56.7331 121.378 55.8871 121.956 55.5671C122.339 55.3561 122.837 55.4671 123.229 55.2751C124.185 54.8121 123.729 53.2161 124.548 52.7581C125.555 52.2251 126.682 53.3581 127.226 54.1671C127.698 55.0472 128.005 56.0059 128.132 56.9961C128.724 59.6891 128.326 59.1151 126.072 59.4421Z" fill="#C67F41"/>
<path opacity="0.4" d="M120.579 20.0391C133.791 16.8781 148.613 19.4251 160.587 25.5451C160.919 25.7161 161.251 25.8871 161.594 26.0451C162.243 28.6371 161.332 32.4321 157.885 31.4451C157.709 31.7821 157.86 31.9451 157.885 32.3311C157.93 32.9001 157.2 33.2021 156.637 33.1511C154.775 32.9901 152.937 31.9831 152.107 34.1581C151.1 36.7851 153.114 35.8191 153.919 37.3841C154.006 37.6232 154.065 37.8715 154.095 38.1241C154.316 39.0351 155.278 39.5241 156.133 39.9061C156.151 39.7598 156.2 39.6189 156.276 39.4922C156.351 39.3656 156.452 39.2561 156.572 39.1705C156.692 39.0849 156.829 39.0251 156.973 38.9949C157.118 38.9647 157.267 38.9648 157.411 38.9951C157.616 39.0861 157.836 39.1374 158.06 39.1461C158.538 39.0761 158.56 38.3461 158.271 37.9781C157.982 37.6101 157.471 37.4391 157.118 37.1021C156.765 36.7651 156.65 36.0951 157.078 35.8691C157.27 35.7986 157.48 35.7986 157.672 35.8691C158.082 35.9812 158.459 36.1915 158.769 36.4818C159.079 36.772 159.315 37.1336 159.454 37.5351C159.626 37.3712 159.848 37.27 160.085 37.2478C160.321 37.2256 160.558 37.2837 160.758 37.4128C160.957 37.5419 161.107 37.7343 161.184 37.9592C161.26 38.184 161.259 38.4281 161.18 38.6521C160.948 39.3011 160.108 39.9101 160.501 40.4741C160.292 40.287 160.034 40.162 159.758 40.113C159.481 40.0641 159.197 40.0932 158.936 40.1971C156.898 41.0271 155.77 45.0391 152.755 42.7141C152.313 42.2931 151.845 41.8996 151.355 41.5361C151.104 41.3587 150.801 41.269 150.494 41.2808C150.187 41.2925 149.892 41.4051 149.655 41.6011C149.484 40.2271 147.581 39.5071 147.546 38.1231C147.545 37.7956 147.653 37.4772 147.854 37.2183C148.054 36.9595 148.336 36.775 148.653 36.6941C148.762 36.6807 148.867 36.6428 148.96 36.5831C149.126 36.4371 149.06 36.1651 149.136 35.9591C149.262 35.5971 149.765 35.5211 149.987 35.2091C150.294 34.7711 149.906 34.2021 149.487 33.8251C149.068 33.4481 148.616 33.0051 148.762 32.4861C148.817 32.3151 148.938 32.1641 148.988 31.9861C149.021 31.804 148.999 31.616 148.925 31.4465C148.85 31.2769 148.727 31.1336 148.57 31.0351C148.252 30.8489 147.899 30.7291 147.533 30.6831C147.221 30.7531 147.133 31.1831 147.216 31.4681C147.344 31.7562 147.448 32.0542 147.528 32.3591C147.528 32.5351 145.651 35.1321 145.902 35.1671C144.709 34.9911 142.53 33.9241 142.183 35.6671C142.057 36.2811 142.083 36.9961 141.614 37.4081C142.424 37.5791 143.24 37.7551 144.045 37.9471C144.1 38.2641 143.652 38.4471 143.335 38.3551C143.045 38.206 142.714 38.1582 142.394 38.2191C142.188 38.3278 142.026 38.5045 141.936 38.7191L140.804 40.6321C140.391 41.3221 139.873 42.0871 139.078 42.1821C138.172 42.2881 137.412 41.4321 137.15 40.5561C137.121 40.3371 137.007 40.1382 136.833 40.0021C136.646 39.9317 136.441 39.9317 136.254 40.0021C135.751 40.1494 135.22 40.1755 134.705 40.0784C134.19 39.9812 133.705 39.7635 133.29 39.4431C132.888 39.1071 132.622 38.6365 132.542 38.119C132.461 37.6015 132.571 37.0723 132.852 36.6301C133.094 36.3081 133.471 35.9611 133.32 35.5881C133.229 35.3671 132.963 35.2111 132.993 34.9741C133.023 34.7371 133.441 34.6671 133.738 34.6171C134.002 34.5682 134.242 34.4312 134.419 34.2283C134.595 34.0254 134.697 33.7687 134.709 33.5001C134.709 33.2231 133.169 31.4001 132.786 31.3861C131.905 31.3611 131.055 33.3041 130.586 33.9861C130.515 34.1275 130.416 34.2534 130.296 34.3564C130.176 34.4595 130.037 34.5375 129.886 34.5861C129.386 34.6671 129.03 34.1281 128.935 33.6401C128.921 33.1445 128.797 32.6582 128.573 32.2161C128.383 32.0034 128.149 31.833 127.889 31.7161C127.654 31.5419 127.386 31.4167 127.102 31.348C126.817 31.2793 126.522 31.2684 126.233 31.3161C125.976 31.3971 125.755 31.5781 125.493 31.6631C125.186 31.7228 124.869 31.696 124.577 31.5858C124.284 31.4756 124.028 31.2864 123.837 31.0391C123.414 30.5811 123.112 30.0321 122.649 29.5951C121.673 28.6951 120.092 28.5881 119.327 27.4761C118.955 26.9761 118.965 26.0421 119.579 25.8451C120.079 25.6791 120.822 26.1271 121.164 25.6941C121.506 25.2611 120.706 24.0181 120.721 23.5101C120.721 23.1101 121.38 22.6951 121.321 21.9101C121.279 21.2521 120.63 20.7281 120.579 20.0391Z" fill="#C67F41"/>
<path opacity="0.4" d="M146.883 132.739C147.754 132.639 148.609 132.769 149.299 131.994C150.235 130.942 149.848 130.086 148.408 129.91C148.278 129.908 148.153 129.864 148.051 129.784C147.764 129.492 148.278 129.105 148.651 128.938C149.067 128.728 149.424 128.416 149.687 128.031C149.951 127.647 150.114 127.202 150.161 126.738C151.498 127.157 152.759 127.787 153.896 128.605C154.832 130.005 152.527 132.35 154.289 132.667C154.943 131.66 155.457 130.533 156.02 129.461L157.6 130.211C157.207 130.025 158.466 128.163 158.707 128.017C159.653 127.443 161.042 128.617 161.727 126.955C162.593 124.855 158.919 122.425 158.204 124.972C156.752 124.749 155.357 124.246 154.097 123.492C153.855 123.885 153.619 124.292 153.382 124.68C153.185 124.694 152.988 124.661 152.806 124.583C152.625 124.505 152.465 124.385 152.34 124.232C152.313 123.552 152.486 122.88 152.839 122.298C153.192 121.716 153.708 121.251 154.323 120.961C154.232 120.05 155.229 119.451 156.074 119.099C155.853 118.651 155.758 118.15 155.802 117.652C155.846 117.153 156.025 116.677 156.322 116.274C156.618 115.871 157.019 115.557 157.481 115.366C157.944 115.175 158.45 115.116 158.944 115.193C159.438 115.27 159.901 115.482 160.283 115.805C160.665 116.127 160.952 116.549 161.11 117.023C161.269 117.497 161.295 118.006 161.184 118.494C161.073 118.982 160.831 119.43 160.483 119.789C161.256 120.311 161.846 121.063 162.168 121.939C162.792 120.903 163.723 120.088 164.831 119.606C165.94 119.124 167.171 119 168.354 119.251C169.532 119.528 170.76 120.182 171.877 119.751C172.377 119.56 172.783 119.167 173.271 118.941C173.852 118.768 174.463 118.718 175.065 118.795C175.667 118.873 176.245 119.075 176.764 119.389C177.505 119.722 178.232 120.083 178.943 120.471C169.55 131.244 156.694 138.403 142.589 140.714C142.196 140.558 141.849 140.303 141.582 139.974C141.418 139.62 141.333 139.234 141.333 138.844C141.333 138.454 141.418 138.068 141.582 137.714C142.473 134.805 143.595 133.295 146.615 132.767L146.883 132.739Z" fill="#C67F41"/>
<path opacity="0.7" d="M95.718 111.338C94.646 110.905 93.534 111.922 92.794 112.848L89.462 116.975C90.881 118.827 89.538 121.032 87.856 122.129C79.2318 112.907 73.6602 101.251 71.9002 88.7484C70.1403 76.2456 72.2776 63.5042 78.021 52.2601C78.9375 50.465 79.9455 48.718 81.041 47.0261H81.222C83.069 47.0961 83.577 48.9741 84.327 50.2721C84.493 50.5641 86.927 53.8451 87.201 53.4281C86.316 54.7814 85.6376 56.2589 85.188 57.8121C85.144 57.927 85.144 58.0542 85.188 58.1691C85.324 58.4261 85.688 58.2601 85.923 58.0531C86.423 57.5531 86.874 56.9101 87.433 56.4171C87.6942 56.1549 88.01 55.9535 88.358 55.8274C88.7059 55.7012 89.0774 55.6533 89.446 55.6871C90.176 55.8181 90.746 56.4071 91.459 56.6581C91.8972 56.7846 92.3582 56.8113 92.8081 56.7364C93.258 56.6615 93.6854 56.4868 94.059 56.2251C94.7721 55.7108 95.4152 55.1057 95.972 54.4251C95.851 56.5341 98.348 56.4941 98.772 58.4511C98.913 59.0851 99.019 59.9611 99.672 60.0161C100.325 60.0711 100.794 59.2361 101.372 59.4521C101.78 59.6031 101.84 60.1671 101.699 60.5741C101.499 60.9562 101.353 61.3645 101.266 61.7871C101.265 61.9375 101.293 62.0866 101.351 62.2256C101.408 62.3647 101.493 62.4907 101.6 62.5963C101.707 62.7019 101.834 62.7849 101.974 62.8404C102.114 62.8958 102.264 62.9226 102.414 62.9191C102.945 62.7875 103.439 62.5361 103.858 62.1841C104.331 61.9071 105.058 61.8571 105.302 62.3451C105.354 62.462 105.38 62.5891 105.377 62.7171C105.377 63.6431 104.491 64.3021 103.646 64.6851C102.751 64.9433 101.957 65.4704 101.371 66.1951C101.42 66.2832 101.485 66.3607 101.564 66.4232C101.643 66.4857 101.734 66.5318 101.831 66.559C101.928 66.5862 102.029 66.5938 102.129 66.5815C102.229 66.5691 102.326 66.537 102.413 66.4871C102.521 66.3956 102.643 66.3227 102.775 66.2711C103.075 66.2061 103.275 66.5331 103.449 66.7991C103.813 67.4309 104.297 67.9846 104.875 68.4286C105.454 68.8725 106.114 69.1979 106.818 69.3861L109.687 64.5541C110.07 64.7351 110.306 64.8311 110.648 64.5191C111.262 66.3761 111.725 68.2741 112.525 70.0801C112.645 70.2872 112.698 70.5266 112.676 70.7651C112.621 71.0021 112.419 71.1831 112.319 71.4091C111.987 72.1541 112.858 72.8481 113.592 73.2091C113.743 73.4361 113.441 73.7091 113.169 73.7091C112.902 73.6685 112.634 73.6452 112.364 73.6391C112.172 73.7049 112.004 73.825 111.88 73.9849C111.756 74.1447 111.681 74.3373 111.664 74.5391C111.561 75.2374 111.736 75.9483 112.151 76.5193C112.566 77.0903 113.188 77.4761 113.884 77.5941C114.052 77.6311 114.228 77.6118 114.384 77.5391C114.711 77.3631 114.721 76.9151 114.857 76.5731C115.396 75.2191 116.624 76.2411 117.082 76.9251C117.332 77.4651 117.471 78.0497 117.492 78.6444C117.513 79.2391 117.415 79.8319 117.203 80.3881C116.841 81.5561 113.957 89.0651 116.836 89.3171C117.108 89.3211 117.374 89.2341 117.591 89.0701C118.27 88.6021 118.648 87.8171 119.252 87.2581C119.856 86.6991 120.963 86.4881 121.416 87.1721C121.597 87.4491 121.622 87.8011 121.783 88.0881C122.226 88.8881 123.474 88.8531 124.043 89.5981C124.249 89.9644 124.426 90.3466 124.571 90.7411C124.771 91.1131 125.22 91.4361 125.578 91.2411C125.936 91.0461 125.978 90.3651 126.378 90.0981C126.778 89.8311 127.385 90.2391 127.425 90.7371C127.412 90.9854 127.327 91.2246 127.181 91.4256C127.034 91.6266 126.832 91.7807 126.6 91.8691C126.351 91.9418 126.122 92.0708 125.931 92.2461C125.631 92.6031 125.845 93.1371 126.062 93.5461C126.404 94.2001 126.752 94.8551 127.099 95.5091C126.962 95.6723 126.78 95.7917 126.576 95.8525C126.372 95.9133 126.155 95.9128 125.951 95.8511C125.538 95.7601 125.151 95.5591 124.733 95.4891C122.72 95.1671 121.381 97.7341 119.378 96.0531C119.486 95.8948 119.555 95.7136 119.581 95.5238C119.606 95.3341 119.587 95.141 119.525 94.9598C119.463 94.7786 119.36 94.6144 119.224 94.4801C119.087 94.3458 118.921 94.2451 118.739 94.1861C117.803 93.9601 116.65 94.8651 115.951 94.1861C115.704 93.9591 115.619 93.5971 115.362 93.3761C114.662 92.7761 113.631 93.7941 113.132 94.2011C111.486 95.5501 112.538 96.3601 111.682 97.8851C111.294 98.5851 110.459 98.8921 109.966 99.5411C109.473 100.19 109.392 100.9 108.959 101.499C107.796 103.155 106.005 100.85 105.068 100.105C105.108 101.405 103.629 102.194 102.35 102.415C100.377 102.752 100.669 102.787 99.688 104.242C99.5684 104.442 99.3962 104.605 99.1901 104.713C98.9841 104.821 98.7523 104.871 98.52 104.856C97.72 104.745 97.408 103.734 96.733 103.296C96.406 103.085 96.003 103.009 95.696 102.796C94.881 102.182 95.142 100.929 94.921 99.9371C94.8193 99.5028 94.615 99.0992 94.3251 98.7603C94.0352 98.4213 93.6682 98.1569 93.255 97.9891C92.9517 98.4119 92.7078 98.8742 92.53 99.3631L93.537 101.063C93.8727 101.544 94.0947 102.095 94.186 102.674C94.1651 103.001 94.1958 103.328 94.277 103.645C94.519 104.245 95.284 104.365 95.893 104.626C97.332 105.26 99.154 107.314 100.272 108.451C101.46 109.669 101.435 110.942 102.517 112.085C102.557 112.141 102.584 112.205 102.597 112.272C102.61 112.34 102.608 112.409 102.591 112.476C102.574 112.542 102.543 112.605 102.5 112.658C102.457 112.711 102.403 112.755 102.341 112.785C102.081 112.891 101.791 112.891 101.531 112.785C100.915 112.585 100.383 112.185 100.021 111.648C100.489 112.348 97.741 112.936 97.353 112.836C96.719 112.665 96.175 111.829 95.612 111.507C94.212 110.687 93.226 110.541 93.357 112.594C93.407 113.379 93.432 114.361 92.738 114.728C92.5726 114.564 92.3553 114.462 92.1231 114.44C91.891 114.418 91.6584 114.477 91.465 114.607C91.0833 114.876 90.8005 115.262 90.66 115.707C90.5226 115.992 90.4873 116.315 90.56 116.623C90.6371 116.772 90.6978 116.929 90.741 117.091C90.796 117.635 90.016 117.786 89.478 117.725" fill="white"/>
<path opacity="0.7" d="M175.793 73.7811C175.521 73.2121 174.746 73.1521 174.117 73.2171C173.488 73.2821 172.758 73.3631 172.33 72.9001L173.337 70.9371C173.412 70.8209 173.441 70.6806 173.418 70.5441C173.387 70.481 173.344 70.425 173.29 70.3799C173.236 70.3347 173.173 70.3014 173.106 70.2821L171.823 69.6881C171.274 69.8881 172.004 70.8611 171.607 71.2881C171.431 71.4741 171.134 71.4391 170.872 71.4441C168.678 71.4741 168.772 73.9611 169.005 75.4051C169.282 77.0811 168.366 78.6971 167.495 80.1561C167.178 80.6561 166.8 81.2381 166.207 81.3741C165.606 81.3951 165.008 81.2905 164.45 81.0671C163.443 80.8611 162.386 81.3241 161.345 81.2991C157.686 81.2181 157.389 77.1061 159.614 75.1441C160.767 74.1371 160.852 74.4801 161.275 72.9751C161.456 72.3461 161.99 71.7751 161.602 71.0831C161.499 70.9131 161.355 70.772 161.182 70.6731C161.01 70.5742 160.815 70.5208 160.616 70.5178C160.418 70.5148 160.221 70.5623 160.046 70.656C159.871 70.7496 159.722 70.8863 159.614 71.0531C159.093 71.6905 158.737 72.4459 158.577 73.2531C157.753 72.5712 156.819 72.0352 155.814 71.6681C155.715 71.8858 155.562 72.0744 155.37 72.2156C155.177 72.3569 154.951 72.4459 154.713 72.4743C154.476 72.5027 154.236 72.4693 154.015 72.3775C153.794 72.2857 153.601 72.1385 153.454 71.9501C153.696 71.5371 153.887 70.8931 153.454 70.6771C153.326 70.6213 153.184 70.6023 153.046 70.6221C152.462 70.6521 151.883 70.7981 151.3 70.7731C150.4 70.7331 148.406 69.4951 147.576 70.3001C147.43 70.4411 147.334 70.6271 147.176 70.7631C147.001 70.8924 146.786 70.9548 146.569 70.939C146.352 70.9232 146.147 70.8303 145.993 70.6771C145.846 70.5161 145.744 70.319 145.698 70.106C145.652 69.8929 145.664 69.6714 145.731 69.4641C145.847 69.1995 145.95 68.9292 146.038 68.6541C146.375 67.1441 144.488 67.4861 144.065 66.8171C143.87 65.6698 143.833 64.5014 143.954 63.3441C143.482 63.5834 142.962 63.7106 142.432 63.7159C141.903 63.7211 141.38 63.6041 140.904 63.3741C139.897 62.7801 139.867 61.7131 140.159 60.5741C140.451 59.4351 141.12 58.0881 141.291 57.1871C141.382 56.6871 141.538 56.1401 142.001 55.9741C142.58 55.7631 143.289 56.3261 143.801 55.9741C143.954 55.8527 144.084 55.7043 144.184 55.5361C144.55 55.103 145.071 54.8305 145.635 54.7768C146.2 54.7232 146.763 54.8927 147.204 55.2491C147.632 55.2041 147.878 54.7491 148.095 54.3781C148.312 54.0071 148.724 53.6131 149.102 53.7841C149.48 53.9551 149.459 54.6651 149.223 55.1031C148.978 55.5486 148.676 55.9599 148.323 56.3261C148.021 56.5588 147.801 56.8812 147.694 57.2471C147.683 57.5358 147.758 57.8212 147.91 58.0671C148.179 58.7094 148.642 59.2514 149.234 59.6171C149.536 59.7861 149.89 59.8386 150.228 59.765C150.567 59.6913 150.866 59.4964 151.071 59.2171C151.141 59.0421 151.229 58.8746 151.333 58.7171C151.645 58.3601 152.244 58.4911 152.633 58.7621C152.976 59.0931 153.373 59.3635 153.806 59.5621C154.264 59.6931 154.888 59.3301 154.752 58.8781C155.411 58.9691 156.262 59.2861 156.191 59.9501C156.149 60.1593 156.068 60.3589 155.954 60.5391C155.365 61.7171 155.954 64.1631 157.57 63.4531C158.642 62.9901 158.28 60.9361 159.79 60.8911C160.515 60.8911 161.129 61.5401 161.854 61.5001C162.131 61.3841 161.98 60.9561 161.754 60.7501C161.395 60.4325 160.961 60.2124 160.493 60.111C160.025 60.0096 159.539 60.0303 159.081 60.1711C159.081 59.3151 160.133 58.5811 159.811 57.7951C159.489 57.0091 158.1 57.0101 157.989 56.1741C157.98 55.9322 158.035 55.6923 158.15 55.4791C158.623 54.3791 159.957 52.6151 158.558 51.6641C158.377 51.566 158.209 51.4461 158.058 51.3071C157.645 50.8391 158.028 50.1241 158.405 49.6311C159.089 49.6811 159.472 50.4061 159.865 50.9751C160.258 51.5441 161.088 52.0321 161.571 51.5441C161.918 51.1971 161.863 50.5071 162.316 50.3111C162.527 50.2201 162.784 50.2811 162.98 50.1651C163.458 49.8881 163.035 49.1581 163.171 48.6051C163.352 47.8701 164.449 47.9051 165.099 48.3051C165.749 48.7051 166.382 49.3121 167.112 49.2051C167.349 49.1651 167.57 49.0541 167.802 48.9941C168.549 48.9013 169.304 49.0787 169.931 49.4941C170.993 49.9941 170.852 44.4611 170.963 44.1741C171.824 42.0741 174.436 42.0741 176.278 41.4111C177.227 41.0253 178.129 40.5321 178.966 39.9411C185.91 48.0176 190.652 57.7498 192.732 68.196C194.813 78.6422 194.161 89.4485 190.841 99.5691C190.562 100.497 190.217 101.403 189.809 102.282C188.747 101.275 187.292 99.3531 185.642 99.4481C183.542 99.5791 183.468 102.558 181.253 102.297C180.8 102.055 181.323 101.371 181.253 100.863C181.167 100.589 181.016 100.339 180.815 100.133C180.644 99.9021 180.553 99.5441 180.77 99.3531C180.533 98.8531 179.763 98.9451 179.225 99.1011C178.577 99.3234 177.881 99.3635 177.212 99.2171C175.858 98.8401 175.199 97.3801 174.399 96.2221C173.712 95.2862 172.941 94.4159 172.094 93.6221C172.552 93.8991 173.136 93.3651 173.181 92.8321C173.148 92.2974 173.038 91.7702 172.854 91.2671C172.663 90.3671 173.438 89.8481 173.354 88.9571C173.254 87.8571 172.529 86.7371 172.954 85.7161C173.454 84.4731 175.169 84.3971 176.502 84.5331C176.613 82.8871 175.495 81.1461 176.265 79.6811C176.603 79.1427 177.057 78.6868 177.594 78.3471L180.709 76.0271C181.179 75.7564 181.536 75.326 181.716 74.8141C181.736 74.4997 181.691 74.1846 181.584 73.8885C181.476 73.5923 181.309 73.3215 181.092 73.0931L179.892 71.4321C179.747 71.1888 179.531 70.9956 179.273 70.8781C178.976 70.8164 178.667 70.8685 178.407 71.0241C176.916 71.7276 175.746 72.968 175.13 74.4971C173.354 73.2111 171.745 71.71 170.339 70.0281C169.961 71.2411 168.864 72.2281 168.668 73.4451" fill="white"/>
<path opacity="0.7" d="M126.072 59.4421C125.714 59.4778 125.369 59.5925 125.061 59.7779C124.753 59.9633 124.489 60.2147 124.29 60.5141C124.105 60.9145 123.945 61.3264 123.812 61.7471C123.74 61.9567 123.612 62.1426 123.442 62.2845C123.271 62.4264 123.065 62.519 122.846 62.5521C122.282 62.5521 121.91 61.9881 121.653 61.4851C121.39 61.1029 121.283 60.6347 121.353 60.1761C121.497 59.8741 121.656 59.58 121.831 59.2951C121.973 58.6431 121.886 57.9622 121.584 57.3671C121.384 56.7331 121.378 55.8871 121.956 55.5671C122.339 55.3561 122.837 55.4671 123.229 55.2751C124.185 54.8121 123.729 53.2161 124.548 52.7581C125.555 52.2251 126.682 53.3581 127.226 54.1671C127.698 55.0472 128.005 56.0059 128.132 56.9961C128.724 59.6891 128.326 59.1151 126.072 59.4421Z" fill="white"/>
<path opacity="0.7" d="M120.579 20.0391C133.791 16.8781 148.613 19.4251 160.587 25.5451C160.919 25.7161 161.251 25.8871 161.594 26.0451C162.243 28.6371 161.332 32.4321 157.885 31.4451C157.709 31.7821 157.86 31.9451 157.885 32.3311C157.93 32.9001 157.2 33.2021 156.637 33.1511C154.775 32.9901 152.937 31.9831 152.107 34.1581C151.1 36.7851 153.114 35.8191 153.919 37.3841C154.006 37.6232 154.065 37.8715 154.095 38.1241C154.316 39.0351 155.278 39.5241 156.133 39.9061C156.151 39.7598 156.2 39.6189 156.276 39.4922C156.351 39.3656 156.452 39.2561 156.572 39.1705C156.692 39.0849 156.829 39.0251 156.973 38.9949C157.118 38.9647 157.267 38.9648 157.411 38.9951C157.616 39.0861 157.836 39.1374 158.06 39.1461C158.538 39.0761 158.56 38.3461 158.271 37.9781C157.982 37.6101 157.471 37.4391 157.118 37.1021C156.765 36.7651 156.65 36.0951 157.078 35.8691C157.27 35.7986 157.48 35.7986 157.672 35.8691C158.082 35.9812 158.459 36.1915 158.769 36.4818C159.079 36.772 159.315 37.1336 159.454 37.5351C159.626 37.3712 159.848 37.27 160.085 37.2478C160.321 37.2256 160.558 37.2837 160.758 37.4128C160.957 37.5419 161.107 37.7343 161.184 37.9592C161.26 38.184 161.259 38.4281 161.18 38.6521C160.948 39.3011 160.108 39.9101 160.501 40.4741C160.292 40.287 160.034 40.162 159.758 40.113C159.481 40.0641 159.197 40.0932 158.936 40.1971C156.898 41.0271 155.77 45.0391 152.755 42.7141C152.313 42.2931 151.845 41.8996 151.355 41.5361C151.104 41.3587 150.801 41.269 150.494 41.2808C150.187 41.2925 149.892 41.4051 149.655 41.6011C149.484 40.2271 147.581 39.5071 147.546 38.1231C147.545 37.7956 147.653 37.4772 147.854 37.2183C148.054 36.9595 148.336 36.775 148.653 36.6941C148.762 36.6807 148.867 36.6428 148.96 36.5831C149.126 36.4371 149.06 36.1651 149.136 35.9591C149.262 35.5971 149.765 35.5211 149.987 35.2091C150.294 34.7711 149.906 34.2021 149.487 33.8251C149.068 33.4481 148.616 33.0051 148.762 32.4861C148.817 32.3151 148.938 32.1641 148.988 31.9861C149.021 31.804 148.999 31.616 148.925 31.4465C148.85 31.2769 148.727 31.1336 148.57 31.0351C148.252 30.8489 147.899 30.7291 147.533 30.6831C147.221 30.7531 147.133 31.1831 147.216 31.4681C147.344 31.7562 147.448 32.0542 147.528 32.3591C147.528 32.5351 145.651 35.1321 145.902 35.1671C144.709 34.9911 142.53 33.9241 142.183 35.6671C142.057 36.2811 142.083 36.9961 141.614 37.4081C142.424 37.5791 143.24 37.7551 144.045 37.9471C144.1 38.2641 143.652 38.4471 143.335 38.3551C143.045 38.206 142.714 38.1582 142.394 38.2191C142.188 38.3278 142.026 38.5045 141.936 38.7191L140.804 40.6321C140.391 41.3221 139.873 42.0871 139.078 42.1821C138.172 42.2881 137.412 41.4321 137.15 40.5561C137.121 40.3371 137.007 40.1382 136.833 40.0021C136.646 39.9317 136.441 39.9317 136.254 40.0021C135.751 40.1494 135.22 40.1755 134.705 40.0784C134.19 39.9812 133.705 39.7635 133.29 39.4431C132.888 39.1071 132.622 38.6365 132.542 38.119C132.461 37.6015 132.571 37.0723 132.852 36.6301C133.094 36.3081 133.471 35.9611 133.32 35.5881C133.229 35.3671 132.963 35.2111 132.993 34.9741C133.023 34.7371 133.441 34.6671 133.738 34.6171C134.002 34.5682 134.242 34.4312 134.419 34.2283C134.595 34.0254 134.697 33.7687 134.709 33.5001C134.709 33.2231 133.169 31.4001 132.786 31.3861C131.905 31.3611 131.055 33.3041 130.586 33.9861C130.515 34.1275 130.416 34.2534 130.296 34.3564C130.176 34.4595 130.037 34.5375 129.886 34.5861C129.386 34.6671 129.03 34.1281 128.935 33.6401C128.921 33.1445 128.797 32.6582 128.573 32.2161C128.383 32.0034 128.149 31.833 127.889 31.7161C127.654 31.5419 127.386 31.4167 127.102 31.348C126.817 31.2793 126.522 31.2684 126.233 31.3161C125.976 31.3971 125.755 31.5781 125.493 31.6631C125.186 31.7228 124.869 31.696 124.577 31.5858C124.284 31.4756 124.028 31.2864 123.837 31.0391C123.414 30.5811 123.112 30.0321 122.649 29.5951C121.673 28.6951 120.092 28.5881 119.327 27.4761C118.955 26.9761 118.965 26.0421 119.579 25.8451C120.079 25.6791 120.822 26.1271 121.164 25.6941C121.506 25.2611 120.706 24.0181 120.721 23.5101C120.721 23.1101 121.38 22.6951 121.321 21.9101C121.279 21.2521 120.63 20.7281 120.579 20.0391Z" fill="white"/>
<path opacity="0.7" d="M146.883 132.739C147.754 132.639 148.609 132.769 149.299 131.994C150.235 130.942 149.848 130.086 148.408 129.91C148.278 129.908 148.153 129.864 148.051 129.784C147.764 129.492 148.278 129.105 148.651 128.938C149.067 128.728 149.424 128.416 149.687 128.031C149.951 127.647 150.114 127.202 150.161 126.738C151.498 127.157 152.759 127.787 153.896 128.605C154.832 130.005 152.527 132.35 154.289 132.667C154.943 131.66 155.457 130.533 156.02 129.461L157.6 130.211C157.207 130.025 158.466 128.163 158.707 128.017C159.653 127.443 161.042 128.617 161.727 126.955C162.593 124.855 158.919 122.425 158.204 124.972C156.752 124.749 155.357 124.246 154.097 123.492C153.855 123.885 153.619 124.292 153.382 124.68C153.185 124.694 152.988 124.661 152.806 124.583C152.625 124.505 152.465 124.385 152.34 124.232C152.313 123.552 152.486 122.88 152.839 122.298C153.192 121.716 153.708 121.251 154.323 120.961C154.232 120.05 155.229 119.451 156.074 119.099C155.853 118.651 155.758 118.15 155.802 117.652C155.846 117.153 156.025 116.677 156.322 116.274C156.618 115.871 157.019 115.557 157.481 115.366C157.944 115.175 158.45 115.116 158.944 115.193C159.438 115.27 159.901 115.482 160.283 115.805C160.665 116.127 160.952 116.549 161.11 117.023C161.269 117.497 161.295 118.006 161.184 118.494C161.073 118.982 160.831 119.43 160.483 119.789C161.256 120.311 161.846 121.063 162.168 121.939C162.792 120.903 163.723 120.088 164.831 119.606C165.94 119.124 167.171 119 168.354 119.251C169.532 119.528 170.76 120.182 171.877 119.751C172.377 119.56 172.783 119.167 173.271 118.941C173.852 118.768 174.463 118.718 175.065 118.795C175.667 118.873 176.245 119.075 176.764 119.389C177.505 119.722 178.232 120.083 178.943 120.471C169.55 131.244 156.694 138.403 142.589 140.714C142.196 140.558 141.849 140.303 141.582 139.974C141.418 139.62 141.333 139.234 141.333 138.844C141.333 138.454 141.418 138.068 141.582 137.714C142.473 134.805 143.595 133.295 146.615 132.767L146.883 132.739Z" fill="white"/>
<path d="M135.634 34.9871L138.302 37.7151L141.02 35.0271C141.379 34.6767 141.665 34.259 141.862 33.7978C142.06 33.3367 142.164 32.8411 142.17 32.3395C142.175 31.838 142.082 31.3402 141.895 30.8748C141.708 30.4094 141.431 29.9854 141.08 29.6271V29.6271C140.73 29.2676 140.312 28.9807 139.851 28.783C139.39 28.5853 138.894 28.4807 138.392 28.4751C137.891 28.4696 137.393 28.5632 136.927 28.7505C136.462 28.9379 136.038 29.2154 135.68 29.5671V29.5671C135.319 29.9184 135.032 30.3376 134.834 30.8006C134.636 31.2636 134.532 31.7612 134.527 32.2647C134.522 32.7682 134.617 33.2676 134.807 33.7341C134.996 34.2007 135.276 34.6252 135.63 34.9831L135.634 34.9871ZM137.255 33.4021C137.038 33.1855 136.89 32.9093 136.83 32.6085C136.769 32.3077 136.8 31.9959 136.917 31.7124C137.034 31.4289 137.233 31.1866 137.488 31.0161C137.743 30.8456 138.043 30.7546 138.349 30.7546C138.656 30.7546 138.956 30.8456 139.211 31.0161C139.466 31.1866 139.665 31.4289 139.782 31.7124C139.899 31.9959 139.929 32.3077 139.869 32.6085C139.809 32.9093 139.661 33.1855 139.444 33.4021C139.153 33.6921 138.76 33.8551 138.349 33.8551C137.938 33.8551 137.545 33.6921 137.254 33.4021H137.255Z" fill="#C67F41"/>
<path opacity="0.2" d="M135.695 29.5921C136.056 29.2386 136.483 28.9605 136.952 28.7739C137.421 28.5872 137.923 28.4959 138.428 28.5051L138.403 30.7701C138.196 30.7653 137.989 30.8015 137.796 30.8766C137.602 30.9518 137.426 31.0644 137.276 31.2081C137.056 31.4247 136.906 31.7017 136.845 32.0039C136.783 32.3062 136.812 32.6199 136.929 32.9053C137.046 33.1906 137.246 33.4347 137.502 33.6065C137.758 33.7784 138.06 33.8701 138.368 33.8701L138.328 37.6901V37.7151L135.66 34.9871C135.307 34.6305 135.028 34.2078 134.839 33.7432C134.65 33.2787 134.554 32.7814 134.558 32.2798C134.561 31.7783 134.663 31.2823 134.858 30.8202C135.053 30.3582 135.338 29.9391 135.695 29.5871V29.5921Z" fill="black"/>
<path d="M86.3861 112.332L89.0541 115.06L91.7821 112.392C92.141 112.042 92.4274 111.624 92.6247 111.163C92.822 110.702 92.9264 110.206 92.932 109.705C92.9376 109.203 92.8442 108.705 92.6571 108.24C92.4701 107.774 92.1932 107.35 91.8421 106.992V106.992C91.4917 106.633 91.074 106.347 90.6128 106.15C90.1517 105.952 89.6561 105.848 89.1545 105.842C88.653 105.837 88.1552 105.93 87.6898 106.117C87.2244 106.304 86.8004 106.581 86.4421 106.932V106.932C86.0832 107.282 85.7968 107.7 85.5995 108.161C85.4022 108.623 85.2978 109.118 85.2922 109.62C85.2867 110.121 85.38 110.619 85.5671 111.084C85.7541 111.55 86.031 111.974 86.3821 112.332H86.3861ZM88.0071 110.752C87.7924 110.533 87.6475 110.255 87.5908 109.954C87.5341 109.652 87.5682 109.341 87.6886 109.059C87.809 108.777 88.0104 108.537 88.2673 108.369C88.5243 108.201 88.8251 108.114 89.1318 108.117C89.4385 108.121 89.7373 108.215 89.9903 108.389C90.2434 108.562 90.4393 108.807 90.5532 109.091C90.6672 109.376 90.6941 109.688 90.6305 109.988C90.5669 110.289 90.4157 110.563 90.1961 110.777C89.9022 111.064 89.5068 111.222 89.0964 111.217C88.6861 111.212 88.2943 111.045 88.0071 110.752V110.752Z" fill="#C67F41"/>
<path opacity="0.2" d="M86.4458 106.939C86.8071 106.587 87.2346 106.309 87.7037 106.122C88.1727 105.936 88.6741 105.844 89.1788 105.852L89.1538 108.117C88.9503 108.115 88.7483 108.153 88.5593 108.228C88.3704 108.304 88.1983 108.416 88.0527 108.559C87.7587 108.846 87.591 109.239 87.5863 109.65C87.5817 110.061 87.7405 110.457 88.0279 110.751C88.3153 111.045 88.7078 111.212 89.1188 111.217L89.0788 115.052H89.0538L86.3858 112.324C85.6814 111.601 85.2922 110.629 85.3035 109.619C85.3147 108.61 85.7255 107.646 86.4458 106.939V106.939Z" fill="black"/>
<path d="M84.5081 61.9131L87.1761 64.6411L89.9091 61.9731C90.6328 61.2648 91.0456 60.2981 91.0569 59.2855C91.0681 58.2729 90.6769 57.2973 89.9691 56.5731V56.5731C89.6187 56.2142 89.201 55.9278 88.7398 55.7305C88.2786 55.5332 87.7831 55.4288 87.2815 55.4232C86.78 55.4176 86.2822 55.511 85.8168 55.6981C85.3513 55.8851 84.9274 56.162 84.5691 56.5131V56.5131C84.2101 56.8634 83.9237 57.2811 83.7263 57.7422C83.5289 58.2033 83.4244 58.6989 83.4187 59.2004C83.413 59.702 83.5063 60.1998 83.6933 60.6652C83.8802 61.1307 84.1571 61.5548 84.5081 61.9131V61.9131ZM86.1291 60.3331C85.8788 60.0764 85.7253 59.7408 85.6947 59.3836C85.6641 59.0264 85.7582 58.6696 85.9611 58.374C86.164 58.0784 86.4631 57.8623 86.8074 57.7625C87.1518 57.6627 87.5201 57.6853 87.8496 57.8265C88.1791 57.9677 88.4495 58.2188 88.6147 58.537C88.7799 58.8552 88.8297 59.2209 88.7556 59.5716C88.6814 59.9224 88.488 60.2366 88.2082 60.4608C87.9284 60.685 87.5796 60.8052 87.2211 60.8011C87.0172 60.7987 86.8158 60.7562 86.6285 60.6759C86.4411 60.5956 86.2714 60.4791 86.1291 60.3331V60.3331Z" fill="#C67F41"/>
<path opacity="0.2" d="M84.574 56.5181C84.9345 56.1644 85.3618 55.8861 85.8311 55.6995C86.3003 55.5128 86.8021 55.4216 87.307 55.4311L87.282 57.6961C87.0785 57.6938 86.8765 57.7316 86.6875 57.8074C86.4986 57.8831 86.3264 57.9954 86.1809 58.1377C85.8869 58.4251 85.7192 58.8175 85.7145 59.2286C85.7099 59.6397 85.8687 60.0358 86.1561 60.3297C86.4435 60.6237 86.8359 60.7915 87.247 60.7961L87.202 64.6161V64.6411L84.54 61.9131C84.1867 61.5568 83.9073 61.1342 83.7178 60.6696C83.5283 60.205 83.4324 59.7076 83.4356 59.2058C83.4389 58.7041 83.5412 58.2079 83.7367 57.7458C83.9323 57.2837 84.2172 56.8648 84.575 56.5131L84.574 56.5181Z" fill="black"/>
<path d="M154.568 116.351L157.235 119.079L159.963 116.412C160.323 116.062 160.609 115.644 160.807 115.183C161.005 114.722 161.109 114.226 161.115 113.725C161.121 113.223 161.027 112.725 160.84 112.259C160.652 111.794 160.375 111.37 160.023 111.012C159.673 110.653 159.255 110.367 158.794 110.17C158.333 109.972 157.837 109.868 157.335 109.862C156.834 109.857 156.336 109.95 155.871 110.137C155.405 110.324 154.981 110.601 154.623 110.952V110.952C153.9 111.661 153.489 112.628 153.478 113.64C153.468 114.653 153.86 115.628 154.568 116.351V116.351ZM156.189 114.771C155.939 114.514 155.785 114.179 155.755 113.822C155.724 113.464 155.818 113.108 156.021 112.812C156.224 112.516 156.523 112.3 156.867 112.2C157.212 112.101 157.58 112.123 157.91 112.265C158.239 112.406 158.509 112.657 158.675 112.975C158.84 113.293 158.89 113.659 158.815 114.01C158.741 114.36 158.548 114.675 158.268 114.899C157.988 115.123 157.64 115.243 157.281 115.239C157.077 115.237 156.875 115.194 156.688 115.113C156.5 115.032 156.33 114.916 156.188 114.769L156.189 114.771Z" fill="#C67F41"/>
<path opacity="0.2" d="M154.609 110.956C154.971 110.603 155.399 110.325 155.869 110.139C156.339 109.952 156.842 109.861 157.347 109.869L157.322 112.139C157.114 112.131 156.907 112.165 156.713 112.24C156.519 112.316 156.343 112.43 156.195 112.577C155.975 112.793 155.824 113.07 155.762 113.372C155.7 113.674 155.729 113.988 155.846 114.273C155.964 114.559 156.163 114.802 156.42 114.974C156.677 115.145 156.979 115.236 157.287 115.234L157.242 119.054V119.079L154.575 116.351C154.222 115.994 153.943 115.572 153.754 115.107C153.565 114.643 153.469 114.145 153.473 113.644C153.476 113.142 153.578 112.646 153.773 112.184C153.968 111.722 154.253 111.303 154.61 110.951L154.609 110.956Z" fill="black"/>
<path d="M183.841 68.4311L186.508 71.1591L189.236 68.4911C189.595 68.1407 189.881 67.723 190.079 67.2618C190.276 66.8007 190.38 66.3051 190.386 65.8035C190.392 65.302 190.298 64.8042 190.111 64.3388C189.924 63.8734 189.647 63.4494 189.296 63.0911V63.0911C188.588 62.3674 187.621 61.9545 186.609 61.9433C185.596 61.932 184.62 62.3233 183.896 63.0311V63.0311C183.537 63.3815 183.251 63.7992 183.054 64.2604C182.856 64.7215 182.752 65.2171 182.746 65.7187C182.741 66.2202 182.834 66.718 183.021 67.1834C183.208 67.6488 183.485 68.0728 183.836 68.4311H183.841ZM185.462 66.8511C185.247 66.632 185.103 66.3542 185.046 66.0527C184.989 65.7513 185.023 65.4398 185.144 65.1577C185.264 64.8756 185.466 64.6355 185.722 64.468C185.979 64.3004 186.28 64.2128 186.587 64.2163C186.894 64.2198 187.192 64.3143 187.445 64.4876C187.698 64.661 187.894 64.9056 188.008 65.1904C188.122 65.4752 188.149 65.7874 188.086 66.0874C188.022 66.3875 187.871 66.662 187.651 66.8761C187.357 67.1626 186.962 67.3208 186.552 67.3161C186.141 67.3114 185.749 67.1442 185.462 66.8511V66.8511Z" fill="#C67F41"/>
<path opacity="0.2" d="M183.901 63.0351C184.262 62.6823 184.689 62.4049 185.159 62.2191C185.628 62.0334 186.129 61.9429 186.634 61.9531L186.609 64.2181C186.401 64.2095 186.194 64.244 186 64.3193C185.806 64.3947 185.629 64.5094 185.482 64.6561C185.192 64.9475 185.029 65.3419 185.029 65.7531C185.029 66.1642 185.192 66.5587 185.482 66.8501C185.626 66.9994 185.798 67.1176 185.99 67.1973C186.181 67.2769 186.387 67.3163 186.594 67.3131L186.554 71.1381H186.529L183.862 68.4101C183.158 67.6903 182.767 66.7214 182.774 65.7145C182.781 64.7077 183.186 63.7445 183.901 63.0351V63.0351Z" fill="black"/>
<path d="M147.406 62.5381L150.074 65.2661L152.802 62.5981C153.161 62.2477 153.447 61.83 153.645 61.3688C153.842 60.9077 153.946 60.4121 153.952 59.9105C153.957 59.409 153.864 58.9112 153.677 58.4458C153.49 57.9804 153.213 57.5564 152.862 57.1981V57.1981C152.512 56.8388 152.094 56.5521 151.634 56.3544C151.173 56.1566 150.677 56.0517 150.175 56.0457C149.674 56.0397 149.176 56.1326 148.71 56.3192C148.245 56.5058 147.821 56.7823 147.462 57.1331V57.1331C146.738 57.8414 146.325 58.8081 146.314 59.8207C146.303 60.8333 146.694 61.8089 147.402 62.5331L147.406 62.5381ZM149.027 60.9531C148.777 60.6964 148.623 60.3608 148.593 60.0036C148.562 59.6464 148.656 59.2896 148.859 58.994C149.062 58.6984 149.361 58.4823 149.705 58.3825C150.05 58.2827 150.418 58.3053 150.748 58.4465C151.077 58.5877 151.347 58.8388 151.513 59.157C151.678 59.4752 151.728 59.8409 151.653 60.1916C151.579 60.5424 151.386 60.8567 151.106 61.0808C150.826 61.305 150.478 61.4253 150.119 61.4211C149.915 61.4187 149.714 61.3762 149.526 61.2959C149.339 61.2156 149.169 61.0991 149.027 60.9531V60.9531Z" fill="#C67F41"/>
<path opacity="0.2" d="M147.467 57.1371C147.828 56.7843 148.255 56.5069 148.724 56.3211C149.194 56.1354 149.695 56.0449 150.2 56.0551L150.175 58.3201C149.968 58.3122 149.761 58.347 149.568 58.4224C149.375 58.4977 149.2 58.612 149.053 58.7581C148.909 58.902 148.794 59.073 148.716 59.2613C148.638 59.4495 148.598 59.6513 148.598 59.8551C148.598 60.0589 148.638 60.2607 148.716 60.4489C148.794 60.6371 148.909 60.8081 149.053 60.9521C149.196 61.1014 149.369 61.2196 149.561 61.2993C149.752 61.3789 149.958 61.4184 150.165 61.4151L150.079 65.2251L150.054 65.2501L147.386 62.5221C146.685 61.7958 146.301 60.8218 146.316 59.8129C146.331 58.804 146.745 57.842 147.467 57.1371V57.1371Z" fill="black"/>
<path d="M132.503 47.7601L135.085 43.7391L138.362 47.7601H132.503Z" fill="#C67F41"/>
<path opacity="0.8" d="M132.503 47.7601L135.085 43.7391L138.362 47.7601H132.503Z" fill="white"/>
<path opacity="0.2" d="M135.04 44.3081L134.778 48.3191H135.432L135.04 44.3081Z" fill="black"/>
<path d="M128.734 47.2921L131.064 50.3121H139.716L142.077 46.3711C137.663 47.0518 133.2 47.3599 128.734 47.2921Z" fill="white"/>
<path d="M115.3 107.633L112.718 103.612L109.442 107.633H115.3Z" fill="#C67F41"/>
<path opacity="0.8" d="M115.3 107.633L112.718 103.612L109.442 107.633H115.3Z" fill="white"/>
<path opacity="0.2" d="M112.764 104.181L113.026 108.197H112.372L112.764 104.181Z" fill="black"/>
<path d="M119.071 107.165L116.746 110.185H108.089L105.728 106.239C110.142 106.924 114.605 107.234 119.071 107.165V107.165Z" fill="white"/>
<path d="M170.89 113.909L173.467 109.888L176.749 113.909H170.89Z" fill="#C67F41"/>
<path opacity="0.8" d="M170.89 113.909L173.467 109.888L176.749 113.909H170.89Z" fill="white"/>
<path opacity="0.2" d="M173.427 110.457L173.165 114.473H173.819L173.427 110.457Z" fill="black"/>
<path d="M167.116 113.442L169.446 116.462H178.103L180.463 112.516C176.048 113.201 171.582 113.511 167.115 113.442H167.116Z" fill="white"/>
<path d="M135.632 53.1461L134.625 52.9351C134.791 52.1351 134.925 51.6971 134.925 51.6771L135.891 51.9591C135.891 51.9591 135.79 52.3811 135.632 53.1461Z" fill="#C67F41"/>
<path d="M167.961 107.04C167.518 106.333 167.024 105.66 166.481 105.027L167.251 104.383C167.829 105.059 168.354 105.779 168.821 106.537L167.961 107.04ZM163.623 102.103C163.034 101.569 162.4 101.021 161.675 100.422L162.314 99.6471C163.049 100.256 163.698 100.815 164.297 101.353L163.623 102.103ZM158.434 97.8601C157.762 97.3434 157.074 96.8201 156.37 96.2901L156.979 95.4901L159.048 97.0601L158.434 97.8601ZM153.064 93.7731C152.385 93.2451 151.7 92.7111 151.016 92.1621L151.645 91.3771C152.324 91.9211 153.004 92.4491 153.683 92.9771L153.064 93.7731ZM147.809 89.4951C147.125 88.9011 146.475 88.3071 145.871 87.7441L146.561 87.0091C147.155 87.5681 147.799 88.1461 148.469 88.7351L147.809 89.4951ZM142.932 84.7571C142.332 84.0881 141.759 83.4181 141.232 82.7441L142.022 82.1201C142.522 82.7641 143.089 83.4201 143.678 84.0731L142.932 84.7571ZM138.825 79.3161C138.367 78.5714 137.939 77.8048 137.542 77.0161L138.442 76.5631C138.825 77.3181 139.242 78.0731 139.68 78.7931L138.825 79.3161ZM135.891 73.1451C135.599 72.3251 135.337 71.4791 135.111 70.6281L136.082 70.3661C136.303 71.1861 136.56 72.0071 136.837 72.8021L135.891 73.1451ZM134.255 66.5161C134.129 65.6601 134.028 64.7801 133.963 63.9041L134.97 63.8231C135.035 64.6791 135.131 65.5341 135.257 66.3401L134.255 66.5161ZM134.869 59.7311L133.862 59.7011C133.887 58.8301 133.938 57.9501 134.023 57.0841L135.03 57.1751C134.944 58.0151 134.894 58.8751 134.869 59.7271V59.7311Z" fill="#C67F41"/>
<path d="M170.377 111.922L169.37 111.882C169.386 111.49 169.369 111.098 169.32 110.709L170.327 110.583C170.378 111.027 170.395 111.475 170.377 111.922V111.922Z" fill="#C67F41"/>
<path d="M177.021 75.9301L176.145 75.4301C176.533 74.7511 176.719 74.3581 176.719 74.3531L177.63 74.7861C177.63 74.7861 177.428 75.2111 177.021 75.9301Z" fill="#C67F41"/>
<path d="M125.241 107.971L125.07 106.964C125.87 106.833 126.65 106.692 127.42 106.541L127.611 107.548C126.832 107.698 126.041 107.84 125.241 107.971ZM131.386 106.743L131.154 105.762C131.939 105.581 132.709 105.39 133.469 105.188L133.726 106.164C132.967 106.365 132.177 106.556 131.386 106.743ZM137.426 105.107L137.126 104.146C137.896 103.909 138.636 103.646 139.396 103.411L139.718 104.362C138.977 104.617 138.215 104.866 137.433 105.107H137.426ZM143.35 103.043L142.983 102.107C143.723 101.82 144.463 101.518 145.193 101.207L145.586 102.133C144.861 102.47 144.106 102.752 143.361 103.044L143.35 103.043ZM149.103 100.526L148.665 99.6201C149.38 99.2731 150.099 98.9101 150.794 98.5481L151.257 99.4391C150.583 99.8171 149.843 100.184 149.113 100.539L149.103 100.526ZM154.639 97.5621L154.139 96.6961C154.833 96.2834 155.504 95.8674 156.152 95.4481L156.691 96.2991C156.042 96.7321 155.347 97.1551 154.648 97.5721L154.639 97.5621ZM159.904 94.1341L159.32 93.3141C159.964 92.8561 160.608 92.3781 161.233 91.8951L161.847 92.6951C161.218 93.1951 160.564 93.6761 159.909 94.1451L159.904 94.1341ZM164.841 90.2541L164.187 89.4891C164.787 88.9891 165.387 88.4371 165.959 87.9041L166.643 88.6391C166.064 89.1931 165.46 89.7391 164.843 90.2651L164.841 90.2541ZM169.396 85.9211L168.701 85.2371C169.245 84.6631 169.788 84.0741 170.307 83.4861L171.062 84.1501C170.508 84.7501 169.962 85.3581 169.401 85.9321L169.396 85.9211ZM173.496 81.1501L172.726 80.5501C173.226 79.9161 173.687 79.2721 174.126 78.6321L174.951 79.2111C174.478 79.8601 173.995 80.5111 173.496 81.1641V81.1501Z" fill="#C67F41"/>
<path d="M120.158 108.696L120.037 107.689L121.28 107.533L121.411 108.54L120.158 108.696Z" fill="#C67F41"/>
<path d="M90.604 41.2131C90.176 40.7901 89.904 40.4731 89.748 40.3021L90.478 39.6071V39.6371C90.619 39.7981 90.886 40.1001 91.283 40.4981L90.604 41.2131Z" fill="#C67F41"/>
<path d="M119.554 50.1261V49.1191C120.384 49.1191 121.24 49.0791 122.071 49.0381L122.116 50.0451C121.26 50.0601 120.384 50.0851 119.554 50.1261ZM115.442 50.0661C114.576 50.0261 113.711 49.9661 112.87 49.9001L112.961 48.8931C113.786 48.9681 114.637 49.0241 115.478 49.0591L115.442 50.0661ZM108.808 49.3661C107.947 49.2251 107.097 49.0661 106.291 48.8661L106.507 47.8851C107.312 48.0611 108.148 48.2171 108.988 48.3531L108.808 49.3661ZM102.265 47.8161C101.435 47.5491 100.614 47.2571 99.829 46.9451L100.201 46.0091C100.966 46.3161 101.761 46.5981 102.572 46.8601L102.265 47.8161ZM96.074 45.1891C95.299 44.7611 94.564 44.3081 93.854 43.8401L94.418 43.0051C95.092 43.4581 95.812 43.8961 96.562 44.3051L96.074 45.1891Z" fill="#C67F41"/>
<path d="M126.238 49.7131L126.138 48.7061L127.381 48.5751L127.497 49.5821L126.238 49.7131Z" fill="#C67F41"/>
<path d="M112.774 113.466C112.474 112.776 112.274 112.374 112.274 112.374L113.16 111.874C113.16 111.874 113.397 112.312 113.714 113.052L112.774 113.466Z" fill="#C67F41"/>
<path d="M113.182 132.608L112.331 132.074C112.763 131.375 113.143 130.645 113.468 129.89L114.394 130.29C114.048 131.092 113.643 131.867 113.182 132.608V132.608ZM115.568 126.276L114.561 126.11C114.696 125.294 114.777 124.471 114.803 123.644L115.81 123.679C115.786 124.55 115.706 125.419 115.568 126.279V126.276ZM114.561 119.683C114.435 118.878 114.269 118.057 114.061 117.242L115.032 116.99C115.25 117.82 115.426 118.66 115.56 119.507L114.561 119.683Z" fill="#C67F41"/>
<path d="M109.638 136.759L108.969 136.004C109.276 135.732 109.578 135.45 109.86 135.163L110.575 135.873C110.278 136.191 109.961 136.473 109.638 136.759Z" fill="#C67F41"/>
<path d="M144.446 49.3161C143.641 49.3161 143.178 49.2811 143.163 49.2811L143.223 48.2741C143.223 48.2741 143.676 48.3041 144.451 48.3091L144.446 49.3161Z" fill="#C67F41"/>
<path d="M148.896 49.1191L148.805 48.1121C149.716 48.0371 150.632 47.9311 151.518 47.8001L151.659 48.8071C150.753 48.9431 149.822 49.0491 148.896 49.1191ZM156.038 47.9561L155.796 46.9801C156.696 46.7531 157.573 46.4801 158.413 46.2301L158.725 47.1861C157.859 47.4781 156.958 47.7351 156.037 47.9661L156.038 47.9561ZM162.873 45.5101L162.43 44.6101C163.24 44.2136 164.028 43.775 164.791 43.2961L165.324 44.1471C164.533 44.6499 163.715 45.1086 162.873 45.5211V45.5101ZM168.882 41.3881L168.197 40.6731C168.845 40.0552 169.449 39.3926 170.004 38.6901L170.794 39.3141C170.208 40.0542 169.568 40.7507 168.881 41.3981L168.882 41.3881Z" fill="#C67F41"/>
<path d="M173.15 35.4551L172.224 35.0271C172.395 34.6651 172.556 34.2821 172.724 33.9001L173.665 34.2621C173.497 34.6701 173.324 35.0731 173.15 35.4551Z" fill="#C67F41"/>
<path d="M142.137 68.4761L141.231 68.0381C141.409 67.6814 141.566 67.314 141.699 66.9381L142.655 67.2601C142.507 67.6746 142.334 68.0797 142.137 68.4731V68.4761Z" fill="#C67F41"/>
<path d="M133.616 74.5421C132.737 74.519 131.866 74.3802 131.024 74.1291L131.306 73.1631C132.062 73.3903 132.846 73.5154 133.636 73.5351L133.616 74.5421ZM137.708 73.5351L137.208 72.6591C137.89 72.2656 138.514 71.7774 139.06 71.2091L139.78 71.9091C139.168 72.536 138.471 73.0745 137.711 73.5091L137.708 73.5351ZM127.28 72.4281C126.852 72.1611 126.414 71.8691 125.98 71.5571C125.713 71.3661 125.447 71.1741 125.19 70.9781L125.79 70.1731C126.042 70.3591 126.29 70.5501 126.56 70.7371C126.978 71.0371 127.401 71.3161 127.808 71.5671L127.28 72.4281ZM122.051 68.4281C121.442 67.9281 120.833 67.3411 120.184 66.7371L120.884 65.9771C121.518 66.5771 122.117 67.1251 122.716 67.6481L122.051 68.4281ZM117.315 63.9281L116.927 63.5401L115.543 62.1611L116.253 61.4461C116.706 61.8941 117.169 62.3521 117.637 62.8301L118.025 63.2131L117.315 63.9281ZM112.644 59.4691C112.022 58.9432 111.37 58.4541 110.691 58.0041L111.24 57.1631C111.953 57.6258 112.637 58.1318 113.288 58.6781L112.644 59.4691ZM107.218 56.4491C106.45 56.2683 105.661 56.1886 104.873 56.2121L104.843 55.2051C105.719 55.1802 106.596 55.2682 107.45 55.4671L107.218 56.4491Z" fill="#C67F41"/>
<path d="M99.9469 57.4191L99.5469 56.4931C99.9549 56.3221 100.357 56.1611 100.747 56.0201L101.084 56.9711C100.715 57.1021 100.332 57.2531 99.9469 57.4191Z" fill="#C67F41"/>
<path d="M151.083 119.914L150.783 118.953C151.558 118.711 152.016 118.591 152.016 118.591L152.263 119.567C152.263 119.567 151.795 119.682 151.083 119.914Z" fill="#C67F41"/>
<path d="M132.094 135.074L131.118 134.827C131.329 133.995 131.617 133.184 131.979 132.406L132.89 132.829C132.554 133.551 132.287 134.303 132.09 135.074H132.094ZM134.938 129.598L134.163 128.964C134.699 128.308 135.276 127.686 135.889 127.102L136.584 127.832C136.001 128.388 135.452 128.978 134.938 129.599V129.598ZM139.604 125.38L139.01 124.555C139.679 124.087 140.389 123.629 141.129 123.191L141.629 124.057C140.933 124.484 140.244 124.927 139.6 125.38H139.604ZM145.14 122.224L144.712 121.313C145.457 120.966 146.223 120.63 147.012 120.306L147.39 121.237C146.615 121.554 145.861 121.883 145.13 122.223L145.14 122.224Z" fill="#C67F41"/>
<path d="M130.883 140.218C130.818 139.785 130.772 139.347 130.747 138.925L131.754 138.865C131.779 139.265 131.819 139.665 131.88 140.073L130.883 140.218Z" fill="#C67F41"/>
<path d="M130.002 37.3571L129.937 36.3501C130.697 36.3001 131.155 36.2391 131.16 36.2391L131.291 37.2461C131.291 37.2461 130.798 37.3071 130.002 37.3571Z" fill="#C67F41"/>
<path d="M125.82 37.3671C124.92 37.3121 124.038 37.2161 123.208 37.0901L123.359 36.0831C124.164 36.2091 125.01 36.2941 125.876 36.3501L125.82 37.3671ZM119.111 36.0331C118.274 35.7289 117.468 35.3444 116.705 34.8851L117.205 34.0241C117.918 34.4464 118.668 34.8035 119.445 35.0911L119.111 36.0331ZM113.529 32.0071C113.011 31.2613 112.601 30.4463 112.311 29.5861L113.267 29.2641C113.523 30.0336 113.888 30.7623 114.351 31.4281L113.529 32.0071Z" fill="#C67F41"/>
<path d="M112.734 25.3591L111.727 25.3291C111.735 24.8968 111.766 24.4653 111.818 24.0361L112.825 24.1421C112.774 24.5481 112.749 24.9611 112.734 25.3591Z" fill="#C67F41"/>
<path d="M82.5854 36.0236C80.8108 35.9908 79.0981 35.3653 77.72 34.2465L73.2446 38.5616L71.8566 37.1221L76.3321 32.807C75.2638 31.3889 74.7007 29.6541 74.7327 27.879C74.8132 23.4687 78.467 19.9458 82.8773 20.0262C87.2876 20.1067 90.8105 23.7606 90.73 28.1708C90.6496 32.5811 86.9957 36.104 82.5854 36.0236ZM82.8408 22.0259C79.5324 21.9656 76.7927 24.607 76.7324 27.9155C76.672 31.2239 79.3135 33.9636 82.6219 34.0239C85.9304 34.0843 88.67 31.4428 88.7304 28.1344C88.7907 24.8259 86.1493 22.0863 82.8408 22.0259Z" fill="#F4E5D9"/>
<path d="M47.3591 49.6221C47.3591 49.6221 58.5981 46.2601 60.4801 45.8021C62.3621 45.3441 69.6451 38.9371 71.0491 37.3111C71.0491 37.3111 71.0841 36.8111 71.8741 36.3351C72.6641 35.8591 77.0281 34.8551 77.6741 35.3281C78.3201 35.8011 77.4321 39.0171 76.4561 39.1931C75.4801 39.3691 72.4561 40.4311 71.9261 39.6511C71.9261 39.6511 65.7451 46.6971 61.6081 49.1511C57.4711 51.6051 46.2471 56.5851 46.2471 56.5851L47.3591 49.6221Z" fill="#B97964"/>
<path d="M48.7533 57.0611C48.7533 57.0611 51.7073 56.7241 55.8853 53.2361L53.8973 46.5521L45.3413 48.8521L48.7533 57.0611Z" fill="#C67F41"/>
<path opacity="0.3" d="M53.8973 46.5521L45.3413 48.8521L48.1803 55.7021L48.5073 56.4871V56.5371L48.7233 57.0371C49.5111 56.8999 50.2764 56.656 50.9983 56.3121C52.7583 55.5161 54.3941 54.4703 55.8553 53.2071L53.8973 46.5521Z" fill="white"/>
<path opacity="0.4" d="M49.9763 56.1651C49.9763 56.1651 50.6003 55.2941 49.9213 55.0331C49.2423 54.7721 49.1813 55.9241 49.1813 55.9241C49.1813 55.9241 48.5373 55.4241 48.1743 55.7181L48.5013 56.5031L48.5763 56.5281L48.5213 56.5531L48.7373 57.0531C49.5251 56.9159 50.2904 56.672 51.0123 56.3281C50.9273 55.8781 49.9763 56.1651 49.9763 56.1651Z" fill="white"/>
<path opacity="0.2" d="M49.0601 56.3361C49.1143 56.3013 49.1772 56.2823 49.2416 56.2812C49.306 56.28 49.3694 56.2969 49.4248 56.3298C49.4802 56.3627 49.5254 56.4103 49.5552 56.4674C49.585 56.5245 49.5984 56.5888 49.5937 56.6531C49.5891 56.7173 49.5666 56.779 49.5289 56.8313C49.4912 56.8835 49.4397 56.9242 49.3801 56.9488C49.3206 56.9734 49.2554 56.9809 49.1918 56.9706C49.1282 56.9602 49.0688 56.9324 49.0201 56.8901C48.9537 56.8106 48.9208 56.7084 48.9283 56.605C48.9357 56.5017 48.983 56.4053 49.0601 56.3361V56.3361Z" fill="black"/>
<path opacity="0.4" d="M50.2134 47.7451L50.3694 47.5081L52.2264 47.0081C52.3674 47.2141 52.6744 47.7681 52.2264 48.1081C51.6424 48.5361 51.4164 47.2981 51.4164 47.2981C51.4164 47.2981 50.7014 48.5061 50.3164 47.9221C50.2724 47.8693 50.2375 47.8094 50.2134 47.7451V47.7451Z" fill="white"/>
<path opacity="0.4" d="M53.7664 52.8681C53.7664 52.8681 54.3204 53.6781 53.7064 54.0511C53.0924 54.4241 52.9664 53.1801 52.9664 53.1801C52.9664 53.1801 52.1564 54.3231 51.8134 53.7081C51.4704 53.0931 52.4134 52.5651 52.4134 52.5651C52.4134 52.5651 51.5984 52.4341 51.8344 51.9311C52.0704 51.4281 52.9164 51.8911 52.9164 51.8911C52.9164 51.8911 52.8054 50.7381 53.5164 50.8841C54.2274 51.0301 53.7274 52.0011 53.7274 52.0011C53.7274 52.0011 54.7344 51.5581 54.8094 52.1121C54.8844 52.6661 53.7664 52.8681 53.7664 52.8681Z" fill="white"/>
<path opacity="0.2" d="M52.8602 52.3301C52.9164 52.2826 52.9863 52.2541 53.0597 52.2489C53.1331 52.2437 53.2063 52.262 53.2687 52.3011C53.331 52.3402 53.3793 52.3981 53.4066 52.4665C53.4339 52.5349 53.4387 52.6102 53.4204 52.6814C53.4021 52.7527 53.3615 52.8164 53.3047 52.8631C53.2478 52.9098 53.1776 52.9373 53.1041 52.9415C53.0306 52.9457 52.9577 52.9264 52.8958 52.8864C52.834 52.8464 52.7866 52.7878 52.7602 52.7191C52.7345 52.6519 52.7303 52.5783 52.7482 52.5087C52.7661 52.439 52.8053 52.3766 52.8602 52.3301Z" fill="black"/>
<path d="M55.6743 53.6741L53.6104 46.3661L54.5103 46.1601L56.4433 53.0301L55.6743 53.6741Z" fill="#C67F41"/>
<path d="M62.6052 170.521L58.4432 170.959L56.7222 161.959L60.8892 161.521L62.6052 170.521Z" fill="#E4897B"/>
<path d="M40.1225 171.321L36.0455 171.165L35.1045 161.758L39.1865 161.914L40.1225 171.321Z" fill="#E4897B"/>
<path d="M62.9792 170.597H58.0192C57.9379 170.598 57.8592 170.626 57.7961 170.677C57.733 170.728 57.6893 170.8 57.6722 170.879L56.8672 174.513C56.8347 174.669 56.8651 174.831 56.9519 174.964C57.0387 175.097 57.1748 175.19 57.3302 175.223H57.4662C59.0662 175.198 60.2342 175.097 62.2522 175.097C63.4902 175.097 67.2352 175.228 68.9462 175.228C70.6572 175.228 70.8842 173.537 70.1842 173.381C67.0382 172.697 64.6482 171.745 63.6412 170.839C63.457 170.681 63.2219 170.595 62.9792 170.597V170.597Z" fill="#263238"/>
<path d="M63.2593 171.155C63.2403 171.15 63.223 171.14 63.2096 171.126C63.1963 171.112 63.1875 171.093 63.1843 171.074C63.1813 171.055 63.1839 171.035 63.1919 171.017C63.1999 171 63.2129 170.985 63.2293 170.974C63.3753 170.883 64.6943 170.074 65.1473 170.305C65.1988 170.329 65.242 170.368 65.2715 170.416C65.3011 170.464 65.3156 170.52 65.3133 170.577C65.323 170.67 65.3099 170.765 65.275 170.852C65.2402 170.939 65.1847 171.016 65.1133 171.077C64.8831 171.234 64.6059 171.307 64.3283 171.283C63.9687 171.278 63.6107 171.233 63.2613 171.147L63.2593 171.155ZM63.5363 171.019C64.0131 171.178 64.5321 171.153 64.9913 170.949C65.04 170.907 65.0775 170.853 65.1003 170.792C65.1232 170.732 65.1307 170.666 65.1223 170.602C65.1223 170.521 65.0873 170.486 65.0623 170.486C65.0212 170.474 64.9775 170.474 64.9363 170.486C64.4404 170.575 63.9655 170.755 63.5363 171.019V171.019Z" fill="#C67F41"/>
<path d="M63.2335 171.18C63.2197 171.17 63.2084 171.158 63.2006 171.143C63.1927 171.128 63.1886 171.111 63.1885 171.094C63.1885 171.039 63.2945 169.861 63.7675 169.478C63.822 169.428 63.8868 169.391 63.9574 169.369C64.0279 169.348 64.1024 169.342 64.1755 169.352C64.2493 169.352 64.3208 169.378 64.3778 169.424C64.4347 169.471 64.4735 169.537 64.4875 169.609C64.5735 170.037 63.7575 170.938 63.3345 171.164H63.2895C63.2728 171.175 63.2533 171.18 63.2335 171.18ZM63.8875 169.595C63.5927 169.959 63.418 170.406 63.3875 170.873C63.8055 170.556 64.3235 169.866 64.2735 169.61C64.2735 169.61 64.2735 169.51 64.1325 169.51H64.0875C64.0118 169.514 63.9398 169.544 63.8835 169.595H63.8875Z" fill="#C67F41"/>
<path d="M40.7152 170.466H35.7572C35.6759 170.467 35.5972 170.495 35.5341 170.546C35.471 170.597 35.4273 170.669 35.4102 170.748L34.6052 174.382C34.5737 174.539 34.6052 174.702 34.6927 174.835C34.7803 174.969 34.9169 175.063 35.0732 175.097H35.2042C36.8102 175.072 37.9772 174.971 39.9902 174.971C41.2282 174.971 44.9732 175.102 46.6842 175.102C48.3952 175.102 48.6222 173.411 47.9222 173.255C44.7762 172.571 42.3862 171.619 41.3792 170.738C41.1987 170.569 40.9624 170.472 40.7152 170.466V170.466Z" fill="#263238"/>
<path d="M40.9971 171.03C40.9779 171.026 40.9603 171.017 40.9468 171.003C40.9333 170.988 40.9246 170.97 40.9218 170.951C40.9191 170.932 40.9224 170.912 40.9315 170.895C40.9405 170.877 40.9547 170.863 40.9721 170.854C41.1181 170.763 42.4371 169.954 42.8851 170.185C42.9366 170.209 42.9798 170.248 43.0093 170.296C43.0389 170.344 43.0534 170.4 43.0511 170.457C43.063 170.551 43.0509 170.646 43.0159 170.733C42.981 170.821 42.9242 170.898 42.8511 170.957C42.6209 171.114 42.3437 171.187 42.0661 171.163C41.7059 171.159 41.3473 171.115 40.9971 171.03V171.03ZM41.2791 170.899C41.7545 171.059 42.2728 171.032 42.7291 170.824C42.7778 170.782 42.8153 170.728 42.8381 170.667C42.861 170.607 42.8685 170.541 42.8601 170.477C42.8601 170.401 42.8251 170.361 42.8001 170.361C42.7608 170.343 42.7175 170.334 42.6741 170.336C42.1756 170.437 41.7019 170.636 41.2801 170.92L41.2791 170.899Z" fill="#C67F41"/>
<path d="M40.9724 171.055C40.9572 171.045 40.9448 171.032 40.9361 171.016C40.9274 171 40.9226 170.982 40.9224 170.964C40.9224 170.909 41.0284 169.736 41.5014 169.348C41.5563 169.299 41.6213 169.263 41.6918 169.242C41.7624 169.221 41.8366 169.216 41.9094 169.227C41.9829 169.225 42.0549 169.249 42.1122 169.295C42.1695 169.341 42.2082 169.407 42.2214 169.479C42.3074 169.912 41.4914 170.808 41.0684 171.039H41.0234C41.0083 171.048 40.9911 171.054 40.9734 171.054L40.9724 171.055ZM41.6264 169.465C41.3321 169.83 41.1575 170.276 41.1264 170.743C41.5444 170.426 42.0624 169.736 42.0124 169.48C42.0124 169.455 42.0124 169.38 41.8714 169.38C41.7822 169.375 41.6946 169.405 41.6274 169.464L41.6264 169.465Z" fill="#C67F41"/>
<path opacity="0.2" d="M60.8882 161.522L56.7212 161.96L57.6122 166.605L61.7792 166.162L60.8882 161.522Z" fill="black"/>
<path opacity="0.2" d="M39.1865 161.919L35.1045 161.763L35.5925 166.615L39.6745 166.771L39.1865 161.919Z" fill="black"/>
<path d="M62.7402 164.849H55.2762C55.2762 164.849 48.3462 136.749 45.1392 123.89C44.4142 120.99 43.5032 116.668 42.5472 111.811C41.7872 107.931 40.9922 103.711 40.2372 99.6111C38.4302 115.037 41.0272 163.495 41.0272 163.495L33.8152 164.401C29.6875 136.001 27.1937 107.387 26.3462 78.7011H50.5052C50.8272 81.5141 54.2602 111.601 56.4442 125.317C58.4422 137.947 62.7402 164.849 62.7402 164.849Z" fill="#263238"/>
<path d="M32.8851 164.995L41.9191 164.945L41.7481 162.403L32.3481 162.292L32.8851 164.995Z" fill="#C67F41"/>
<path d="M54.3851 164.909H63.1931L62.9211 162.302L53.7661 162.131L54.3851 164.909Z" fill="#C67F41"/>
<path d="M51.8042 84.3041C46.0764 86.0862 40.0949 86.9159 34.0982 86.7601H32.8202C32.2312 86.7601 31.6622 86.7251 31.1202 86.6951C29.0362 86.5951 27.2752 86.4181 25.9812 86.2621C25.9841 86.2288 25.9841 86.1953 25.9812 86.1621C25.9785 86.1288 25.9785 86.0954 25.9812 86.0621V85.8711C26.0362 84.8901 26.0872 83.9181 26.1222 82.9621C26.1222 82.5191 26.1622 82.0811 26.1772 81.6481C26.1922 81.2151 26.2072 80.7871 26.2172 80.3651C26.2272 79.9431 26.2172 79.5141 26.2522 79.0971V70.5461C26.2522 69.9221 26.2522 69.3081 26.2122 68.7091C26.2122 68.2711 26.2122 67.8381 26.1722 67.4091C26.1322 66.9801 26.1422 66.4731 26.1272 66.0251V65.7031C26.1272 65.1491 26.0772 64.6031 26.0572 64.0771C26.0548 64.0572 26.0548 64.037 26.0572 64.0171C26.0572 63.6291 26.0222 63.2521 26.0022 62.8851C25.9822 62.5181 25.9572 62.1601 25.9372 61.8031C25.9442 61.5657 25.9308 61.3282 25.8972 61.0931L25.8522 60.3981C25.8522 60.0311 25.8072 59.6731 25.7772 59.3161C25.7832 59.1487 25.7715 58.981 25.7422 58.8161C25.7307 58.4508 25.7003 58.0863 25.6512 57.7241V57.3771C25.5862 56.6121 25.5252 55.9331 25.4702 55.3241C25.4702 55.0321 25.4102 54.7551 25.3892 54.4991C25.3682 54.2431 25.3342 53.9991 25.3142 53.7991C25.3115 53.7859 25.3115 53.7723 25.3142 53.7591C25.3189 53.6845 25.3104 53.6097 25.2892 53.5381C25.2829 53.3453 25.2612 53.1534 25.2242 52.9641V52.8641C25.227 52.7807 25.2169 52.6974 25.1942 52.6171C25.1898 52.5505 25.1898 52.4837 25.1942 52.4171V52.4171V52.1401C28.9117 51.6628 32.5902 50.9192 36.2012 49.9151C36.9912 49.8551 38.3952 49.7341 40.0712 49.5481C40.7202 49.4781 41.4152 49.3921 42.1302 49.2961C42.5232 49.2461 42.9302 49.1851 43.3302 49.1251C43.9492 49.0341 44.5782 48.9341 45.1972 48.8251C46.0122 48.6791 46.8182 48.5181 47.5782 48.3251L47.6692 48.7981C47.7952 49.4171 47.9112 50.0561 48.0212 50.7161C48.0862 51.0781 48.1472 51.4411 48.2122 51.8161C48.2982 52.3161 48.3882 52.8681 48.4692 53.4011C48.4788 53.5361 48.5005 53.67 48.5342 53.8011V53.8011L48.6092 54.3011C48.6342 54.4721 48.6592 54.6481 48.6902 54.8011C48.7212 54.9541 48.7552 55.2441 48.7902 55.4651C48.8252 55.6861 48.8712 55.9981 48.9062 56.2651L48.9662 56.6781L48.9962 56.8781V57.0781L49.0712 57.6111C49.0962 57.8111 49.1262 58.0111 49.1522 58.2111C49.2022 58.5581 49.2432 58.9011 49.2932 59.2531C49.3632 59.8321 49.4442 60.4211 49.5142 61.0101C49.6502 62.0671 49.7762 63.1341 49.9022 64.2011L49.9772 64.8551L50.0072 65.1421C50.0572 65.5421 50.1072 65.9421 50.1432 66.3421C50.4252 68.8591 50.6822 71.3421 50.9082 73.6901C50.914 73.8577 50.9308 74.0247 50.9582 74.1901C51.0492 75.1161 51.1292 76.0121 51.2152 76.8901C51.2091 77.0221 51.2209 77.1543 51.2502 77.2831L51.3102 77.9521C51.3352 78.2041 51.3552 78.4521 51.3752 78.7021C51.3952 78.9521 51.4202 79.2021 51.4402 79.4371C51.4425 79.4604 51.4425 79.4838 51.4402 79.5071L51.4702 79.8071C51.466 79.9001 51.4744 79.9933 51.4952 80.0841C51.5202 80.1751 51.4952 80.1491 51.4952 80.1841L51.5402 80.6841V80.8701C51.5402 81.0961 51.5802 81.3181 51.5952 81.5341V81.8811C51.5998 81.8991 51.5998 81.918 51.5952 81.9361C51.5952 82.1271 51.6302 82.3241 51.6452 82.5151C51.7182 83.1831 51.7632 83.7721 51.8042 84.3041Z" fill="#C67F41"/>
<path opacity="0.4" d="M49.9664 65.1641C49.5664 65.5471 48.5824 65.4311 48.5824 65.4311C48.5824 65.4311 49.6894 67.1221 48.5174 67.2981C47.3454 67.4741 47.2874 65.7231 47.2874 65.7231C47.2874 65.7231 46.1804 67.0111 45.6214 66.2231C45.0624 65.4351 46.5474 64.4721 46.5474 64.4721C46.5474 64.4721 45.0724 63.5811 45.6564 62.6351C46.2404 61.6891 47.4484 63.5161 47.4484 63.5161C47.4484 63.5161 47.6854 61.2911 48.6814 62.0061C49.6774 62.7211 48.8074 64.0191 48.7514 64.1061C49.1216 64.0194 49.5104 64.0639 49.8514 64.2321C49.8874 64.5451 49.9264 64.8521 49.9664 65.1641Z" fill="white"/>
<path opacity="0.2" d="M48.3052 64.7221C48.2752 65.1101 48.0052 65.3761 47.7052 65.3111C47.54 65.2546 47.3997 65.1424 47.3085 64.9936C47.2172 64.8448 47.1807 64.6689 47.2052 64.4961C47.2352 64.1031 47.5052 63.8421 47.8052 63.9021C47.9707 63.9595 48.1112 64.0727 48.2024 64.2223C48.2936 64.372 48.33 64.5486 48.3052 64.7221Z" fill="black"/>
<path opacity="0.4" d="M44.1485 74.4451C44.1485 74.4451 42.6735 73.5541 43.2575 72.6081C43.8415 71.6621 45.0495 73.4941 45.0495 73.4941C45.0495 73.4941 45.2865 71.2641 46.2825 71.9841C47.2785 72.7041 46.3475 74.0841 46.3475 74.0841C46.3475 74.0841 47.6355 73.7921 47.7165 74.6981C47.7975 75.6041 46.1765 75.4131 46.1765 75.4131C46.1765 75.4131 47.2885 77.1041 46.1165 77.2801C44.9445 77.4561 44.8885 75.7101 44.8885 75.7101C44.8885 75.7101 43.7815 76.9931 43.2225 76.2101C42.6635 75.4271 44.1485 74.4451 44.1485 74.4451Z" fill="white"/>
<path opacity="0.2" d="M45.8991 74.7171C45.8691 75.1051 45.5991 75.3711 45.2901 75.3061C45.125 75.2496 44.9847 75.1374 44.8934 74.9886C44.8022 74.8398 44.7656 74.6639 44.7901 74.4911C44.8151 74.0981 45.0902 73.8371 45.3902 73.8971C45.5563 73.9545 45.6976 74.0673 45.7903 74.2167C45.883 74.366 45.9214 74.5427 45.8991 74.7171Z" fill="black"/>
<path opacity="0.4" d="M51.5823 81.5821C51.2053 81.8741 50.6713 82.1561 50.3343 81.6731C49.7753 80.8731 51.2603 79.9221 51.2603 79.9221C51.2603 79.9221 49.7853 79.0311 50.3693 78.0851C50.6063 77.7021 50.9433 77.7781 51.2693 77.9991C51.3813 79.2771 51.4873 80.4751 51.5823 81.5821Z" fill="white"/>
<path opacity="0.4" d="M34.1001 86.7661H32.8221C32.2331 86.7661 31.6641 86.7311 31.1221 86.7011C30.9537 86.5478 30.8422 86.3419 30.8059 86.117C30.7695 85.8922 30.8105 85.6617 30.9221 85.4631C31.5011 84.5171 32.7091 86.3441 32.7091 86.3441C32.7091 86.3441 32.9461 84.1141 33.9471 84.8341C34.7411 85.3971 34.3181 86.3941 34.1001 86.7661Z" fill="white"/>
<path opacity="0.2" d="M33.1413 86.7511H32.8193C32.8984 86.7284 32.9823 86.7284 33.0613 86.7511H33.1413Z" fill="black"/>
<path opacity="0.4" d="M30.3921 69.8201C30.3921 69.8201 31.8111 70.8271 31.1521 71.6921C30.4931 72.5571 29.4111 70.6851 29.4111 70.6851C29.4111 70.6851 29.0111 72.8691 28.0571 72.0791C27.1031 71.2891 28.1481 70.0001 28.1481 70.0001C28.1481 70.0001 26.8291 70.2001 26.8141 69.3001C26.7991 68.4001 28.4201 68.7001 28.4201 68.7001C28.4201 68.7001 27.4131 66.9541 28.6201 66.8631C29.8271 66.7721 29.7421 68.5041 29.7421 68.5041C29.7421 68.5041 30.9501 67.3161 31.4531 68.1421C31.9561 68.9681 30.3921 69.8201 30.3921 69.8201Z" fill="white"/>
<path opacity="0.2" d="M28.6463 69.4291C28.7013 69.0461 28.9933 68.8051 29.2953 68.8851C29.4568 68.9518 29.59 69.0729 29.6718 69.2273C29.7536 69.3818 29.7789 69.56 29.7433 69.7311C29.6833 70.1141 29.3913 70.3551 29.0893 70.2751C28.928 70.2083 28.7954 70.087 28.7144 69.9324C28.6334 69.7778 28.6093 69.5997 28.6463 69.4291V69.4291Z" fill="black"/>
<path opacity="0.4" d="M27.7751 81.5571C27.7751 81.5571 28.3391 83.1271 27.1861 83.3081C26.0331 83.4891 26.3561 81.5261 26.3561 81.5261L26.1851 81.6371C26.2151 80.7761 26.2401 79.9211 26.2551 79.0801C26.4605 79.2178 26.6511 79.3763 26.8241 79.5531C26.8241 79.5531 27.1241 77.7411 28.2131 78.4411C29.3021 79.1411 28.0821 80.2631 28.0821 80.2631C28.0821 80.2631 29.9091 80.2281 29.7881 81.1091C29.6671 81.9901 27.7751 81.5571 27.7751 81.5571Z" fill="white"/>
<path opacity="0.2" d="M26.5612 80.1781C26.6925 80.0704 26.8594 80.0158 27.0289 80.025C27.1985 80.0343 27.3584 80.1067 27.4772 80.2281C27.5243 80.2951 27.5572 80.371 27.5739 80.4511C27.5905 80.5312 27.5906 80.6139 27.5742 80.6941C27.5577 80.7743 27.5249 80.8503 27.478 80.9173C27.4311 80.9844 27.3709 81.0412 27.3012 81.0841C27.1686 81.1909 27.0011 81.2448 26.8311 81.2356C26.6611 81.2264 26.5005 81.1546 26.3802 81.0341C26.3333 80.9668 26.3007 80.8907 26.2844 80.8103C26.2681 80.73 26.2685 80.6471 26.2854 80.5669C26.3024 80.4867 26.3356 80.4108 26.3831 80.344C26.4305 80.2771 26.4911 80.2206 26.5612 80.1781V80.1781Z" fill="black"/>
<path opacity="0.4" d="M45.5372 49.3961C45.4212 50.2821 43.5242 49.8491 43.5242 49.8491C43.5242 49.8491 44.0882 51.4141 42.9352 51.5951C41.7822 51.7761 42.1052 49.8181 42.1052 49.8181C42.1052 49.8181 40.3132 51.0311 40.0212 49.8931C39.9942 49.7635 39.9942 49.6297 40.0212 49.5001C40.6702 49.4301 41.3652 49.3441 42.0802 49.2481C42.4732 49.1981 42.8802 49.1371 43.2802 49.0771C43.8992 48.9861 44.5282 48.8861 45.1472 48.7771C45.2741 48.8191 45.3825 48.9036 45.4541 49.0165C45.5258 49.1293 45.5562 49.2634 45.5402 49.3961H45.5372Z" fill="white"/>
<path opacity="0.2" d="M43.2625 49.0791C43.2146 49.1966 43.1341 49.2979 43.0305 49.3711C42.8997 49.4799 42.7325 49.5352 42.5626 49.526C42.3927 49.5167 42.2326 49.4435 42.1145 49.3211C42.095 49.2999 42.0782 49.2763 42.0645 49.2511C42.4575 49.2001 42.8745 49.1191 43.2625 49.0791Z" fill="black"/>
<path opacity="0.4" d="M31.4153 58.5211C31.4153 58.5211 31.9743 60.0911 30.8213 60.2721C29.6683 60.4531 29.9913 58.4901 29.9913 58.4901C29.9913 58.4901 28.2043 59.7081 27.9123 58.5711C27.6203 57.4341 29.3673 57.2221 29.3673 57.2221C29.3673 57.2221 28.1043 56.5221 28.6883 55.8981C29.2723 55.2741 30.4553 56.5171 30.4553 56.5171C30.4553 56.5171 30.7673 54.7051 31.8493 55.4051C32.9313 56.1051 31.7183 57.2221 31.7183 57.2221C31.7183 57.2221 33.5453 57.1921 33.4243 58.0731C33.3033 58.9541 31.4153 58.5211 31.4153 58.5211Z" fill="white"/>
<path opacity="0.2" d="M30.1774 57.1411C30.3082 57.0323 30.4753 56.9769 30.6452 56.9862C30.8151 56.9955 30.9752 57.0687 31.0934 57.1911C31.1405 57.2581 31.1734 57.3339 31.1901 57.4141C31.2068 57.4942 31.2068 57.5769 31.1904 57.6571C31.1739 57.7373 31.1412 57.8133 31.0942 57.8803C31.0473 57.9474 30.9871 58.0042 30.9174 58.0471C30.7848 58.1539 30.6174 58.2078 30.4473 58.1986C30.2773 58.1894 30.1167 58.1176 29.9964 57.9971C29.9495 57.9298 29.9169 57.8537 29.9006 57.7733C29.8844 57.693 29.8847 57.6101 29.9016 57.5299C29.9186 57.4497 29.9518 57.3738 29.9993 57.307C30.0467 57.2401 30.1073 57.1836 30.1774 57.1411V57.1411Z" fill="black"/>
<path opacity="0.4" d="M37.8424 63.2121C37.8424 63.2121 38.2804 64.4351 37.3794 64.5761C36.4784 64.7171 36.7354 63.2121 36.7354 63.2121C36.7354 63.2121 35.3354 64.1631 35.1094 63.2721C34.8834 62.3811 36.2414 62.2251 36.2414 62.2251C36.2414 62.2251 35.2604 61.6711 35.7414 61.1881C36.2224 60.7051 37.1204 61.6881 37.1204 61.6881C37.1204 61.6881 37.3624 60.2741 38.2074 60.8171C39.0524 61.3601 38.1074 62.2411 38.1074 62.2411C38.1074 62.2411 39.5314 62.2161 39.4364 62.9001C39.3414 63.5841 37.8424 63.2121 37.8424 63.2121Z" fill="white"/>
<path opacity="0.2" d="M36.8761 62.1401C36.9253 62.095 36.983 62.0602 37.0459 62.0377C37.1087 62.0152 37.1754 62.0056 37.2421 62.0093C37.3087 62.0131 37.3739 62.0301 37.4339 62.0594C37.4938 62.0887 37.5473 62.1298 37.5911 62.1801C37.628 62.2319 37.6539 62.2907 37.667 62.3529C37.6802 62.4152 37.6804 62.4794 37.6677 62.5417C37.6549 62.604 37.6295 62.663 37.5929 62.715C37.5563 62.7671 37.5094 62.811 37.4551 62.8441C37.3518 62.9286 37.2206 62.9714 37.0874 62.964C36.9541 62.9566 36.8284 62.8996 36.7351 62.8041C36.6992 62.7518 36.6742 62.6927 36.6618 62.6304C36.6494 62.5681 36.6498 62.5039 36.663 62.4418C36.6762 62.3797 36.7019 62.3209 36.7386 62.269C36.7752 62.2172 36.822 62.1733 36.8761 62.1401V62.1401Z" fill="black"/>
<path opacity="0.4" d="M48.9502 57.0971C48.8996 57.1612 48.8364 57.2144 48.7645 57.2532C48.6926 57.2921 48.6136 57.3159 48.5322 57.3231C47.6322 57.4691 47.8882 55.9341 47.8882 55.9341C47.8882 55.9341 46.4882 56.8851 46.2622 55.9991C46.0362 55.1131 47.3942 54.9471 47.3942 54.9471C47.3942 54.9471 46.4132 54.3931 46.8942 53.9151C47.3752 53.4371 48.2732 54.3931 48.2732 54.3931C48.312 54.1789 48.3831 53.9719 48.4842 53.7791C48.5392 54.1211 48.5902 54.4691 48.6452 54.8161C48.6752 55.0321 48.7102 55.2591 48.7452 55.4801C48.7992 56.0101 48.8742 56.5531 48.9502 57.0971Z" fill="white"/>
<path opacity="0.2" d="M48.7184 55.4811C48.6867 55.523 48.6493 55.5604 48.6074 55.5921C48.504 55.6741 48.3741 55.7154 48.2423 55.708C48.1105 55.7006 47.986 55.6452 47.8924 55.5521C47.8554 55.4999 47.8295 55.4407 47.8163 55.3781C47.803 55.3155 47.8028 55.2508 47.8155 55.1881C47.8283 55.1254 47.8537 55.066 47.8904 55.0136C47.927 54.9611 47.974 54.9167 48.0284 54.8831C48.1124 54.8198 48.2119 54.7803 48.3165 54.7689C48.421 54.7574 48.5267 54.7744 48.6224 54.8181C48.6534 55.0331 48.6884 55.2591 48.7184 55.4811Z" fill="black"/>
<path opacity="0.4" d="M37.3032 77.8081C37.3032 77.8081 37.6912 78.8951 36.8902 79.0211C36.0892 79.1471 36.3312 77.8081 36.3312 77.8081C36.3312 77.8081 35.0932 78.6491 34.8922 77.8631C34.6912 77.0771 35.8992 76.9321 35.8992 76.9321C35.8992 76.9321 35.0282 76.4321 35.4312 76.0161C35.8342 75.6001 36.6542 76.4441 36.6542 76.4441C36.6542 76.4441 36.8652 75.1911 37.6152 75.6741C38.3652 76.1571 37.5242 76.9321 37.5242 76.9321C37.5242 76.9321 38.7872 76.9321 38.7072 77.5211C38.6272 78.1101 37.3032 77.8081 37.3032 77.8081Z" fill="white"/>
<path opacity="0.2" d="M36.4432 76.8671C36.5341 76.7912 36.6502 76.7521 36.7685 76.7577C36.8869 76.7632 36.9988 76.813 37.0822 76.8971C37.1145 76.9439 37.1369 76.9967 37.148 77.0525C37.1592 77.1082 37.1588 77.1656 37.1471 77.2212C37.1353 77.2768 37.1122 77.3294 37.0794 77.3758C37.0466 77.4222 37.0047 77.4614 36.9562 77.4911C36.865 77.5649 36.7496 77.6023 36.6325 77.5958C36.5153 77.5893 36.4047 77.5395 36.3222 77.4561C36.2898 77.41 36.2672 77.3578 36.2557 77.3027C36.2443 77.2475 36.2442 77.1906 36.2555 77.1355C36.2669 77.0803 36.2893 77.028 36.3216 76.9819C36.3539 76.9357 36.3953 76.8967 36.4432 76.8671V76.8671Z" fill="black"/>
<path d="M42.6085 67.2381C42.6035 67.3076 42.5832 67.3751 42.5491 67.4359C42.515 67.4966 42.4679 67.549 42.4111 67.5895C42.3544 67.6299 42.2894 67.6572 42.2208 67.6696C42.1523 67.682 42.0818 67.6791 42.0145 67.6611C41.8688 67.6278 41.7392 67.5448 41.648 67.4264C41.5568 67.308 41.5096 67.1615 41.5145 67.0121C41.5193 66.9427 41.5396 66.8752 41.5737 66.8146C41.6079 66.754 41.6552 66.7018 41.7121 66.6618C41.7689 66.6217 41.8341 66.5949 41.9026 66.5832C41.9712 66.5715 42.0415 66.5752 42.1085 66.5941C42.2533 66.6273 42.3823 66.7095 42.4734 66.8269C42.5645 66.9443 42.6123 67.0896 42.6085 67.2381V67.2381Z" fill="#C67F41"/>
<path d="M43.7743 79.5541C43.7652 79.6224 43.7421 79.6882 43.7064 79.7471C43.6707 79.8061 43.6231 79.8571 43.5668 79.8968C43.5105 79.9365 43.4465 79.9641 43.3789 79.978C43.3114 79.9918 43.2417 79.9915 43.1743 79.9771C43.0282 79.9447 42.898 79.8619 42.8066 79.7433C42.7152 79.6247 42.6684 79.4777 42.6743 79.3281C42.6791 79.2587 42.6994 79.1913 42.7335 79.1306C42.7677 79.07 42.815 79.0178 42.8719 78.9778C42.9288 78.9377 42.9939 78.9109 43.0624 78.8992C43.131 78.8875 43.2014 78.8912 43.2683 78.9101C43.4143 78.9421 43.5446 79.0238 43.6369 79.1413C43.7292 79.2588 43.7778 79.4047 43.7743 79.5541Z" fill="#C67F41"/>
<path d="M25.9842 86.2431C25.9902 86.4301 25.9784 86.6173 25.9492 86.8021C25.9491 86.6154 25.9591 86.4287 25.9792 86.2431H25.9842Z" fill="#C67F41"/>
<path d="M40.8864 49.1191C40.2295 50.5179 39.4249 51.8424 38.4864 53.0701L30.7154 50.9701C33.9924 48.7701 30.0254 42.9171 30.0254 42.9171L36.8754 43.3951C37.0791 44.7284 37.4767 46.0248 38.0554 47.2431C39.3554 49.7581 40.8864 49.1191 40.8864 49.1191Z" fill="#B97964"/>
<path opacity="0.2" d="M38.0583 47.2371C36.7634 47.4393 35.4378 47.2841 34.2245 46.7884C33.0112 46.2927 31.9562 45.4752 31.1733 44.4241L36.1733 43.3371L36.8733 43.3821C37.078 44.718 37.4772 46.0168 38.0583 47.2371V47.2371Z" fill="black"/>
<path d="M24.1273 43.9811C22.5273 42.5011 32.9553 26.3351 38.7273 28.3431C44.4993 30.3511 27.9473 47.5191 24.1273 43.9811Z" fill="#C67F41"/>
<path d="M33.2464 33.6671C32.1894 35.2371 33.5234 36.6421 37.8614 37.9301C38.5004 35.6601 36.8194 30.7031 35.4204 30.2851C34.0214 29.8671 34.1674 32.3031 33.2464 33.6671Z" fill="#263238"/>
<path d="M39.6735 38.6801C39.7983 39.1555 39.8958 39.6376 39.9655 40.1241C40.4655 44.0041 36.7195 47.3161 32.9655 45.6601H32.9255C30.4085 44.5181 29.6695 42.3991 28.0785 38.9111C27.7024 38.1051 27.538 37.2165 27.601 36.3294C27.664 35.4422 27.9523 34.5858 28.4385 33.8411C28.9247 33.0963 29.5929 32.4879 30.3798 32.0734C31.1667 31.6589 32.0463 31.4519 32.9355 31.4721C36.4475 31.5031 38.8085 35.3781 39.6735 38.6801Z" fill="#B97964"/>
<path d="M33.8153 37.8251C33.9263 38.1171 34.1723 38.2931 34.3643 38.2181C34.5563 38.1431 34.6163 37.8561 34.5003 37.5641C34.3843 37.2721 34.1483 37.0961 33.9613 37.1641C33.7743 37.2321 33.7043 37.5431 33.8153 37.8251Z" fill="#263238"/>
<path d="M37.1023 36.5661C37.2133 36.8531 37.4593 37.0291 37.6463 36.9591C37.8333 36.8891 37.9033 36.5921 37.7923 36.3001C37.6813 36.0081 37.4353 35.8321 37.2433 35.9071C37.0513 35.9821 36.9913 36.2741 37.1023 36.5661Z" fill="#263238"/>
<path d="M36.0752 37.1151C36.761 37.8713 37.5486 38.5285 38.4152 39.0681C38.2706 39.2852 38.0805 39.4684 37.8581 39.6048C37.6357 39.7412 37.3863 39.8276 37.1272 39.8581L36.0752 37.1151Z" fill="#A24E3F"/>
<path d="M32.4922 37.1301C32.4622 37.1494 32.4269 37.1585 32.3913 37.1562C32.3557 37.1538 32.3219 37.14 32.2947 37.1169C32.2676 37.0938 32.2486 37.0626 32.2406 37.0279C32.2326 36.9931 32.2359 36.9567 32.2502 36.9241C32.3221 36.6427 32.4614 36.3829 32.6559 36.1672C32.8505 35.9516 33.0946 35.7865 33.3672 35.6861C33.4113 35.6714 33.4593 35.6742 33.5014 35.6939C33.5435 35.7136 33.5763 35.7488 33.5932 35.7921V35.7921C33.6059 35.8389 33.5999 35.8888 33.5764 35.9312C33.5528 35.9736 33.5137 36.0051 33.4672 36.0191V36.0191C33.2521 36.1051 33.0607 36.2414 32.9092 36.4166C32.7576 36.5918 32.6503 36.8008 32.5962 37.0261C32.5759 37.0738 32.5379 37.1118 32.4902 37.1321L32.4922 37.1301Z" fill="#263238"/>
<path d="M38.1793 34.8761C38.1456 34.889 38.1089 34.8921 38.0735 34.885C38.0381 34.8779 38.0054 34.861 37.9793 34.8361C37.817 34.675 37.6188 34.5547 37.401 34.4851C37.1831 34.4156 36.9519 34.3988 36.7263 34.4361C36.7028 34.442 36.6784 34.4432 36.6545 34.4395C36.6306 34.4359 36.6077 34.4274 36.5871 34.4148C36.5664 34.4021 36.5486 34.3854 36.5345 34.3657C36.5205 34.346 36.5105 34.3237 36.5053 34.3001C36.4945 34.2535 36.5021 34.2045 36.5265 34.1633C36.5509 34.1222 36.5902 34.092 36.6363 34.0791C36.9235 34.0295 37.2184 34.049 37.4966 34.1359C37.7748 34.2229 38.0284 34.3748 38.2363 34.5791C38.269 34.6129 38.2873 34.6581 38.2873 34.7051C38.2873 34.7521 38.269 34.7973 38.2363 34.8311V34.8311C38.2203 34.8496 38.201 34.8649 38.1793 34.8761V34.8761Z" fill="#263238"/>
<path d="M32.4913 29.3991C27.8003 28.9861 23.2153 33.0131 24.7553 38.0861C25.6313 40.9601 28.6463 43.8491 30.0153 43.3711C30.8303 40.4221 30.3153 36.5861 29.6683 35.7461C29.4338 35.0641 29.4772 34.3172 29.7893 33.6671C31.3147 33.4452 32.8196 33.1001 34.2893 32.6351C34.735 32.3771 35.1561 32.0789 35.5473 31.7441L36.7803 32.8311C36.7803 32.8311 37.2073 29.8081 32.4913 29.3991Z" fill="#263238"/>
<path d="M27.4831 42.3991C27.7697 42.7818 28.1294 43.1039 28.5414 43.3466C28.9534 43.5893 29.4094 43.7479 29.8831 43.8131C31.1461 43.9841 31.5991 42.8061 31.1011 41.7131C30.6481 40.7061 29.4451 39.4381 28.2521 39.7801C27.9907 39.8557 27.7526 39.9959 27.5598 40.1879C27.367 40.38 27.2257 40.6175 27.149 40.8786C27.0724 41.1397 27.0628 41.4159 27.1212 41.6817C27.1796 41.9474 27.3041 42.1942 27.4831 42.3991V42.3991Z" fill="#B97964"/>
<path d="M37.5704 40.9711C37.4621 41.4567 37.3899 41.9498 37.3544 42.4461H37.0924C35.9044 42.5371 35.3254 42.1891 35.0444 41.7771C34.9081 41.5724 34.8249 41.337 34.8024 41.0921C34.7807 40.9536 34.7807 40.8126 34.8024 40.6741C35.5588 40.9423 36.364 41.0447 37.1634 40.9741C37.299 40.9814 37.435 40.9804 37.5704 40.9711V40.9711Z" fill="#263238"/>
<path d="M37.1585 40.9961L37.0885 41.4291C36.3113 41.587 35.5035 41.4752 34.7985 41.1121C34.7768 40.9736 34.7768 40.8326 34.7985 40.6941C35.5544 40.9629 36.3593 41.0659 37.1585 40.9961V40.9961Z" fill="white"/>
<path d="M37.0915 42.4651C35.9035 42.5561 35.3245 42.2081 35.0435 41.7961C35.4939 41.7679 35.9457 41.8208 36.3775 41.9521C36.6611 42.0485 36.9096 42.2271 37.0915 42.4651Z" fill="#DE5753"/>
<path d="M33.7563 28.9361L24.9033 38.4031L23.8663 36.5361L22.5273 34.1201C23.8003 27.4761 30.2933 26.4201 30.2933 26.4201L33.1373 28.4991L33.7563 28.9361Z" fill="#C67F41"/>
<path d="M24.8643 44.3781C23.9643 43.5781 29.4643 29.6711 39.1833 28.5841C39.1833 28.5841 37.9833 26.8221 30.4763 30.2651C27.9194 31.8571 25.8688 34.1443 24.5643 36.8591C24.5643 36.8591 23.2813 42.0931 24.1313 43.9811L24.8643 44.3781Z" fill="#C67F41"/>
<path opacity="0.6" d="M33.7552 28.9371C32.6433 29.325 31.5516 29.7686 30.4842 30.2661C27.9238 31.8547 25.8689 34.1399 24.5602 36.8541C24.5602 36.8541 24.5002 37.1061 24.4092 37.5231L23.8652 36.5371C25.0232 34.2071 27.8912 29.6771 33.1562 28.4841L33.7552 28.9371Z" fill="white"/>
<path opacity="0.2" d="M24.8643 44.3781C23.9643 43.5781 29.4643 29.6711 39.1833 28.5841C39.1833 28.5841 37.9833 26.8221 30.4763 30.2651C27.9194 31.8571 25.8688 34.1443 24.5643 36.8591C24.5643 36.8591 23.2813 42.0931 24.1313 43.9811L24.8643 44.3781Z" fill="white"/>
<path d="M31.0522 49.4491C33.2117 50.8296 35.5965 51.8209 38.0982 52.3781C38.0982 52.3781 38.8632 49.2681 38.3852 47.5711L41.0932 49.0811C41.0932 49.0811 42.2462 49.7401 41.4702 53.6611L38.4752 53.0671L37.2522 56.6401C37.2522 56.6401 30.3922 54.4861 29.1992 51.2351L31.0522 49.4491Z" fill="#C67F41"/>
<path opacity="0.2" d="M31.0522 49.4491C33.2117 50.8296 35.5965 51.8209 38.0982 52.3781C38.0982 52.3781 38.8632 49.2681 38.3852 47.5711L41.0932 49.0811C41.0932 49.0811 42.2462 49.7401 41.4702 53.6611L38.4752 53.0671L37.2522 56.6401C37.2522 56.6401 30.3922 54.4861 29.1992 51.2351L31.0522 49.4491Z" fill="white"/>
<path d="M40.2332 53.4351C40.2237 53.5593 40.1715 53.6763 40.0855 53.7664C39.9995 53.8564 39.885 53.9139 39.7614 53.9291C39.6378 53.9443 39.5127 53.9161 39.4075 53.8495C39.3023 53.7829 39.2233 53.682 39.1841 53.5638C39.1449 53.4456 39.1479 53.3175 39.1924 53.2012C39.237 53.0849 39.3205 52.9876 39.4287 52.9259C39.5368 52.8642 39.663 52.8419 39.7858 52.8627C39.9086 52.8835 40.0204 52.9462 40.1022 53.0401C40.1491 53.094 40.1848 53.1566 40.2073 53.2244C40.2298 53.2923 40.2386 53.3639 40.2332 53.4351Z" fill="#C67F41"/>
<path opacity="0.2" d="M26.2653 78.6821C26.3653 74.4891 26.3203 70.6291 26.2153 67.2421C26.7153 65.8031 27.0813 64.8661 27.0813 64.8661C27.0813 64.8661 29.4013 72.6881 26.2653 78.6821Z" fill="black"/>
<path d="M23.6743 73.1771C24.3843 73.2421 26.8853 71.4201 28.2043 71.5161C29.5233 71.6121 30.3043 71.3751 30.5443 71.9641C30.7843 72.5531 29.4673 76.5441 29.0793 76.6091C28.4463 76.5926 27.8163 76.5169 27.1973 76.3831C26.47 76.6889 25.6746 76.7964 24.8922 76.6947C24.1098 76.593 23.3683 76.2857 22.7433 75.8041C20.7043 74.1201 23.6743 73.1771 23.6743 73.1771Z" fill="#B97964"/>
<path d="M21.3183 58.3041C21.3183 58.3041 13.4923 68.2041 13.3053 71.4911C13.1183 74.7781 23.2453 76.4331 23.2453 76.4331L24.1013 74.2991C24.1013 74.2991 17.8253 71.2791 17.6013 70.6751C17.3773 70.0711 24.0433 62.9751 24.0433 62.9751L21.3183 58.3041Z" fill="#B97964"/>
<path d="M25.1283 52.2341C25.1283 52.2341 20.9103 54.7511 16.7383 63.2061L22.6683 68.8881L25.9683 66.1351C25.9683 66.1351 28.0573 53.8601 25.1283 52.2341Z" fill="#C67F41"/>
<path opacity="0.3" d="M26.0243 65.8031L25.9693 66.1301L24.2533 67.5901L22.6983 68.8901L16.7393 63.2131C17.8035 61.023 19.0619 58.9326 20.4993 56.9671C21.2556 55.9364 22.0865 54.9624 22.9853 54.0531C23.6287 53.3693 24.3476 52.7608 25.1283 52.2391C27.7753 53.6991 26.3313 63.8391 26.0243 65.8031Z" fill="white"/>
<path opacity="0.4" d="M22.6671 56.3011C22.6671 56.3011 23.452 57.4231 22.622 57.6701C21.792 57.9171 21.7361 56.6701 21.7361 56.6701C21.7361 56.6701 20.9561 57.7171 20.5581 57.1701C20.5155 57.1108 20.4877 57.0423 20.4771 56.9701C21.2334 55.9393 22.0643 54.9654 22.9631 54.0561C23.2201 54.5561 22.8021 55.2641 22.7631 55.3241C22.8231 55.3241 23.674 55.0121 23.729 55.6411C23.784 56.2701 22.6671 56.3011 22.6671 56.3011Z" fill="white"/>
<path opacity="0.2" d="M22.4764 55.8181C22.4827 55.9404 22.4418 56.0605 22.3622 56.1535C22.2826 56.2465 22.1703 56.3055 22.0484 56.3181C21.9296 56.2903 21.8261 56.2177 21.7596 56.1154C21.693 56.0131 21.6686 55.889 21.6914 55.7691C21.6852 55.6468 21.726 55.5267 21.8057 55.4337C21.8853 55.3407 21.9976 55.2818 22.1194 55.2691C22.2389 55.2957 22.3432 55.3681 22.41 55.4708C22.4767 55.5734 22.5006 55.6981 22.4764 55.8181V55.8181Z" fill="black"/>
<path opacity="0.4" d="M26.0241 65.8041L25.9691 66.1311L24.2531 67.5911C24.0011 67.4401 23.3971 66.9971 23.7531 66.3981C24.1661 65.6531 25.0211 66.8611 25.0211 66.8611C25.0211 66.8611 25.1821 65.2201 25.8871 65.6481C25.9414 65.693 25.9889 65.7456 26.0281 65.8041H26.0241Z" fill="white"/>
<path opacity="0.4" d="M19.1231 62.3461C19.1231 62.3461 18.0811 61.8461 18.4941 61.0981C18.9071 60.3501 19.7571 61.5611 19.7571 61.5611C19.7571 61.5611 19.9231 59.9151 20.6281 60.3431C21.3331 60.7711 20.6781 61.8531 20.6781 61.8531C20.6781 61.8531 21.5891 61.5111 21.6441 62.1601C21.6991 62.8091 20.5571 62.8341 20.5571 62.8341C20.5571 62.8341 21.3421 63.9561 20.5121 64.2031C19.6821 64.4501 19.6461 63.1961 19.6461 63.1961C19.6461 63.1961 18.8611 64.2431 18.4681 63.6961C18.0751 63.1491 19.1231 62.3461 19.1231 62.3461Z" fill="white"/>
<path opacity="0.2" d="M20.3621 62.3661C20.3684 62.4884 20.3276 62.6085 20.2479 62.7015C20.1683 62.7945 20.056 62.8535 19.9342 62.8661C19.8156 62.8384 19.7125 62.7655 19.6468 62.663C19.5811 62.5605 19.5579 62.4364 19.5822 62.3171C19.5759 62.1948 19.6168 62.0747 19.6964 61.9817C19.776 61.8887 19.8883 61.8297 20.0102 61.8171C20.1294 61.8437 20.2333 61.9163 20.2992 62.0191C20.3651 62.1219 20.3878 62.2467 20.3621 62.3661V62.3661Z" fill="black"/>
<path d="M16.7031 62.6331L23.0751 68.9141L22.2751 69.6491L16.2861 63.7351L16.7031 62.6331Z" fill="#C67F41"/>
<path d="M41.0885 58.1781C41.1369 58.4963 41.0897 58.8216 40.9531 59.1129C40.8164 59.4043 40.5964 59.6485 40.3208 59.8147C40.0452 59.9809 39.7266 60.0616 39.4051 60.0466C39.0837 60.0316 38.7739 59.9215 38.515 59.7304C38.2562 59.5392 38.0599 59.2755 37.9509 58.9727C37.842 58.6699 37.8254 58.3416 37.9032 58.0293C37.981 57.7171 38.1497 57.4349 38.3879 57.2186C38.6262 57.0023 38.9232 56.8615 39.2415 56.8141C39.6672 56.7507 40.1007 56.8587 40.4469 57.1144C40.7931 57.3701 41.0239 57.7526 41.0885 58.1781V58.1781Z" fill="#263238"/>
<path d="M40.5053 54.3181C40.5602 54.6889 40.4849 55.0674 40.2922 55.389C40.0995 55.7105 39.8012 55.9553 39.4483 56.0817C39.0953 56.2081 38.7095 56.2083 38.3564 56.0822C38.0034 55.9561 37.705 55.7115 37.512 55.3901C37.319 55.0686 37.2434 54.6903 37.2981 54.3194C37.3527 53.9485 37.5343 53.608 37.8117 53.3559C38.0892 53.1038 38.4455 52.9557 38.8199 52.9367C39.1944 52.9178 39.5638 53.0292 39.8653 53.2521C40.2114 53.5086 40.4416 53.892 40.5053 54.3181V54.3181Z" fill="#263238"/>
<path d="M39.6481 60.9261C39.5887 60.9257 39.5313 60.9043 39.4861 60.8657C39.4409 60.8271 39.4108 60.7737 39.4012 60.7151L38.8472 57.1721C38.7257 57.0013 38.6461 56.8043 38.6147 56.5971C38.5832 56.3899 38.6009 56.1782 38.6662 55.9791L38.1332 52.4561C38.1245 52.4217 38.1232 52.3859 38.1292 52.351C38.1352 52.3161 38.1485 52.2828 38.1681 52.2533C38.1878 52.2238 38.2134 52.1988 38.2433 52.1798C38.2732 52.1608 38.3068 52.1482 38.3418 52.143C38.3769 52.1377 38.4126 52.1399 38.4468 52.1492C38.481 52.1586 38.5128 52.1751 38.5402 52.1975C38.5677 52.2199 38.5901 52.2478 38.6061 52.2795C38.6221 52.3111 38.6313 52.3457 38.6331 52.3811L39.1772 55.9951C39.1874 56.0522 39.1767 56.1111 39.1472 56.1611C39.1023 56.2966 39.0932 56.4414 39.1205 56.5815C39.1478 56.7216 39.2107 56.8523 39.3031 56.9611C39.3221 56.9914 39.334 57.0256 39.3381 57.0611L39.8822 60.6401C39.8909 60.7059 39.8738 60.7726 39.8344 60.8261C39.7951 60.8796 39.7366 60.9158 39.6712 60.9271L39.6481 60.9261Z" fill="#263238"/>
</svg>
