<svg width="208" height="56" viewBox="0 0 208 56" fill="none" xmlns="http://www.w3.org/2000/svg">
<path d="M90.088 38H85.512L83.752 32.848H75.656L73.896 38H69.384L77.096 16.88H82.376L90.088 38ZM76.648 29.584H82.76L79.688 20.368L76.648 29.584ZM99.6305 21.68C101.06 21.68 102.265 21.8933 103.247 22.32C104.249 22.7253 105.049 23.2907 105.647 24.016C106.265 24.72 106.703 25.5093 106.958 26.384L102.863 27.856C102.649 26.896 102.287 26.1707 101.775 25.68C101.263 25.1893 100.569 24.944 99.6945 24.944C98.8838 24.944 98.1905 25.136 97.6145 25.52C97.0385 25.8827 96.6012 26.448 96.3025 27.216C96.0038 27.9627 95.8545 28.9013 95.8545 30.032C95.8545 31.1627 96.0038 32.1013 96.3025 32.848C96.6225 33.5947 97.0705 34.1493 97.6465 34.512C98.2438 34.8747 98.9372 35.056 99.7265 35.056C100.367 35.056 100.911 34.9493 101.359 34.736C101.807 34.5013 102.169 34.1707 102.447 33.744C102.745 33.3173 102.948 32.8053 103.055 32.208L107.023 33.488C106.788 34.448 106.351 35.2907 105.711 36.016C105.071 36.7413 104.249 37.3067 103.247 37.712C102.244 38.1173 101.081 38.32 99.7585 38.32C98.1158 38.32 96.6652 37.9893 95.4065 37.328C94.1478 36.6667 93.1772 35.7173 92.4945 34.48C91.8118 33.2427 91.4705 31.7493 91.4705 30C91.4705 28.2507 91.8118 26.7573 92.4945 25.52C93.1772 24.2827 94.1372 23.3333 95.3745 22.672C96.6118 22.0107 98.0305 21.68 99.6305 21.68ZM116.093 17.104V32.784C116.093 33.552 116.285 34.1173 116.669 34.48C117.074 34.8213 117.618 34.992 118.301 34.992C118.834 34.992 119.304 34.9173 119.709 34.768C120.114 34.5973 120.477 34.3733 120.797 34.096L121.501 37.008C120.989 37.4133 120.349 37.7333 119.581 37.968C118.813 38.2027 118.002 38.32 117.149 38.32C116.082 38.32 115.133 38.16 114.301 37.84C113.49 37.52 112.85 37.008 112.381 36.304C111.933 35.6 111.709 34.6613 111.709 33.488V18.32L116.093 17.104ZM121.213 22V25.264H108.765V22H121.213ZM129.747 38.32C128.68 38.32 127.72 38.128 126.867 37.744C126.014 37.36 125.331 36.752 124.819 35.92C124.328 35.0667 124.083 33.968 124.083 32.624V22H128.467V31.568C128.467 32.8053 128.723 33.6693 129.235 34.16C129.747 34.6293 130.483 34.864 131.443 34.864C131.891 34.864 132.328 34.7893 132.755 34.64C133.182 34.4693 133.555 34.2133 133.875 33.872C134.216 33.5307 134.483 33.0933 134.675 32.56C134.867 32.0053 134.963 31.3547 134.963 30.608V22H139.347V38H135.443L135.283 35.216C134.75 36.2827 134.014 37.072 133.075 37.584C132.158 38.0747 131.048 38.32 129.747 38.32ZM153.08 27.792C153.08 26.8747 152.814 26.16 152.28 25.648C151.768 25.136 151.086 24.88 150.232 24.88C149.443 24.88 148.75 25.0827 148.152 25.488C147.555 25.8933 147.118 26.5653 146.84 27.504L143.096 26.352C143.459 24.944 144.248 23.8133 145.464 22.96C146.702 22.1067 148.355 21.68 150.424 21.68C151.832 21.68 153.059 21.904 154.104 22.352C155.15 22.7787 155.96 23.4293 156.536 24.304C157.134 25.1787 157.432 26.2773 157.432 27.6V34.096C157.432 34.9067 157.816 35.312 158.584 35.312C158.947 35.312 159.288 35.2587 159.608 35.152L159.352 37.872C158.798 38.1493 158.104 38.288 157.272 38.288C156.526 38.288 155.854 38.16 155.256 37.904C154.659 37.648 154.19 37.264 153.848 36.752C153.507 36.2187 153.336 35.5573 153.336 34.768V34.64L154.104 34.512C153.976 35.3227 153.624 36.016 153.048 36.592C152.472 37.1467 151.768 37.5733 150.936 37.872C150.126 38.1707 149.283 38.32 148.408 38.32C147.32 38.32 146.382 38.16 145.592 37.84C144.803 37.4987 144.195 37.008 143.768 36.368C143.342 35.728 143.128 34.9387 143.128 34C143.128 32.8053 143.512 31.8347 144.28 31.088C145.048 30.32 146.147 29.7973 147.576 29.52L153.592 28.304L153.56 31.024L149.72 31.792C148.995 31.9413 148.44 32.144 148.056 32.4C147.694 32.6347 147.512 33.0293 147.512 33.584C147.512 34.1173 147.704 34.5227 148.088 34.8C148.494 35.0773 148.974 35.216 149.528 35.216C149.976 35.216 150.414 35.1627 150.84 35.056C151.267 34.9493 151.651 34.7787 151.992 34.544C152.334 34.3093 152.6 33.9893 152.792 33.584C152.984 33.1787 153.08 32.688 153.08 32.112V27.792ZM166.655 14.992V33.072C166.655 33.8187 166.783 34.3413 167.039 34.64C167.295 34.9387 167.722 35.088 168.319 35.088C168.682 35.088 168.981 35.0667 169.215 35.024C169.45 34.96 169.749 34.8747 170.111 34.768L169.727 37.648C169.365 37.8613 168.906 38.0213 168.351 38.128C167.818 38.256 167.285 38.32 166.751 38.32C165.194 38.32 164.053 37.9467 163.327 37.2C162.623 36.432 162.271 35.216 162.271 33.552V14.992H166.655ZM176.874 14.992V33.072C176.874 33.8187 177.002 34.3413 177.258 34.64C177.514 34.9387 177.941 35.088 178.538 35.088C178.901 35.088 179.199 35.0667 179.434 35.024C179.669 34.96 179.967 34.8747 180.33 34.768L179.946 37.648C179.583 37.8613 179.125 38.0213 178.57 38.128C178.037 38.256 177.503 38.32 176.97 38.32C175.413 38.32 174.271 37.9467 173.546 37.2C172.842 36.432 172.49 35.216 172.49 33.552V14.992H176.874ZM187.093 14.992V33.072C187.093 33.8187 187.221 34.3413 187.477 34.64C187.733 34.9387 188.159 35.088 188.757 35.088C189.119 35.088 189.418 35.0667 189.653 35.024C189.887 34.96 190.186 34.8747 190.549 34.768L190.165 37.648C189.802 37.8613 189.343 38.0213 188.789 38.128C188.255 38.256 187.722 38.32 187.189 38.32C185.631 38.32 184.49 37.9467 183.765 37.2C183.061 36.432 182.709 35.216 182.709 33.552V14.992H187.093ZM207.375 22L200.911 38.992C200.399 40.4427 199.823 41.5947 199.183 42.448C198.565 43.3013 197.839 43.92 197.007 44.304C196.197 44.688 195.226 44.88 194.095 44.88C193.263 44.88 192.495 44.7733 191.791 44.56C191.109 44.368 190.511 44.112 189.999 43.792L190.927 40.624C191.333 40.944 191.759 41.168 192.207 41.296C192.655 41.4453 193.167 41.52 193.743 41.52C194.341 41.52 194.853 41.392 195.279 41.136C195.727 40.88 196.101 40.368 196.399 39.6L196.943 38.224L195.183 34.064L190.287 22H195.151L198.191 31.6L199.023 34.8L200.015 31.408L202.927 22H207.375Z" fill="white"/>
<path d="M56 28C56 12.536 43.464 0 28 0C12.536 0 0 12.536 0 28C0 43.464 12.536 56 28 56C43.464 56 56 43.464 56 28Z" fill="#E29B00"/>
<path d="M28.6108 14H32.6719L25.8322 39.8627H21.1299L28.6108 14Z" fill="white"/>
<path d="M33.313 14H29.2519L36.0916 39.8627H40.7939L33.313 14Z" fill="white"/>
<path d="M23.8021 25.2213L22.3059 29.7099L36.0922 39.8626L38.8619 36.5369L23.8021 25.2213Z" fill="white"/>
<path d="M23.3741 14.2138H24.4428L17.0687 39.8628H16L23.3741 14.2138Z" fill="white"/>
<path d="M24.8702 14.2138H25.9389L18.5648 39.8628H17.4961L24.8702 14.2138Z" fill="white"/>
<path d="M26.3672 14.2138H27.4359L20.0619 39.8628H18.9932L26.3672 14.2138Z" fill="white"/>
</svg>
