<svg width="37" height="44" viewBox="0 0 37 44" fill="none" xmlns="http://www.w3.org/2000/svg">
<path d="M35.6789 20.4596L3.07656 0.522076C2.80211 0.352781 2.48746 0.259771 2.16508 0.252641C1.84269 0.24551 1.52424 0.324518 1.24257 0.481513C0.9609 0.638508 0.726216 0.867807 0.562724 1.14575C0.399233 1.4237 0.312855 1.74023 0.3125 2.0627V41.9377C0.312855 42.2602 0.399233 42.5767 0.562724 42.8546C0.726216 43.1326 0.9609 43.3619 1.24257 43.5189C1.52424 43.6759 1.84269 43.7549 2.16508 43.7478C2.48746 43.7406 2.80211 43.6476 3.07656 43.4783L35.6789 23.5408C35.9466 23.3825 36.1685 23.1572 36.3226 22.887C36.4767 22.6169 36.5577 22.3112 36.5577 22.0002C36.5577 21.6892 36.4767 21.3835 36.3226 21.1134C36.1685 20.8432 35.9466 20.6179 35.6789 20.4596Z" fill="white" fill-opacity="0.2"/>
</svg>
